<?xml version="1.0" encoding="utf-8"?>
<!-- Generator: Adobe Illustrator 20.1.0, SVG Export Plug-In . SVG Version: 6.00 Build 0)  -->
<svg version="1.1" id="Layer_1" xmlns="http://www.w3.org/2000/svg" xmlns:xlink="http://www.w3.org/1999/xlink" x="0px" y="0px"
	 viewBox="0 0 1773.6 1124.9" style="enable-background:new 0 0 1773.6 1124.9;" xml:space="preserve">
<style type="text/css">
	.st0{fill:#333333;}
	.st1{fill:none;stroke:#8BC63F;stroke-width:13;stroke-miterlimit:10;}
	.st2{fill:none;stroke:#8BC63F;stroke-width:8;stroke-miterlimit:10;}
	.st3{fill:#8BC63F;}
	.st4{fill:none;stroke:#333333;stroke-width:21;stroke-miterlimit:10;}
</style>
<g>
	<path class="st0" d="M846.7,24h-231C601.6,120.8,584,223.1,563,331c-34.3,161.3-59.7,277-76.1,347.1h111.5l20.8-82.2
		c8.2,18.5,14.5,32.8,18.8,43l21.9,51.5c18.5-17.9,35.2-32.2,50.4-43c23.6-14.8,38.3-23.4,44.2-26l14.2,56.6h210.3
		c-31.3-143.4-55.7-257.7-73.4-342.9C873.5,172.3,853.9,68.5,846.7,24 M682.9,551.7c-27.2,3.4-44.6,5.1-52.3,5.1
		c9.5-37.2,17.7-66.6,24.6-88.2c12.6-37.5,21.8-64.5,27.7-80.9c13.6,32.9,23.7,58.8,30.4,77.5c11,33.8,18.7,58.2,23.1,73.3
		C717.2,544.7,699.3,549.1,682.9,551.7"/>
	<path class="st1" d="M846.7,24h-231C601.6,120.8,584,223.1,563,331c-34.3,161.3-59.7,277-76.1,347.1h111.5l20.8-82.2
		c8.2,18.5,14.5,32.8,18.8,43l21.9,51.5c18.5-17.9,35.2-32.2,50.4-43c23.6-14.8,38.3-23.4,44.2-26l14.2,56.6h210.3
		c-31.3-143.4-55.7-257.7-73.4-342.9C873.5,172.3,853.9,68.5,846.7,24z M682.9,551.7c-27.2,3.4-44.6,5.1-52.3,5.1
		c9.5-37.2,17.7-66.6,24.6-88.2c12.6-37.5,21.8-64.5,27.7-80.9c13.6,32.9,23.7,58.8,30.4,77.5c11,33.8,18.7,58.2,23.1,73.3
		C717.2,544.7,699.3,549.1,682.9,551.7z"/>
	<path class="st0" d="M917.4,291.9l55-6.4l60.7-2.6c2.8,40.6,5.5,82.2,8.1,124.8c5.6,122.9,9.5,213.1,11.5,270.4h186
		c6.4-120.4,11-211.7,13.8-273.9c3.8-64.2,6.5-104.6,8.1-121.4c30.5,0.9,52.5,1.7,66.1,2.6c22,2.6,38.1,4.7,48,6.4L1386,24H907.8
		L917.4,291.9z"/>
	<path class="st1" d="M917.4,291.9l55-6.4l60.7-2.6c2.8,40.6,5.5,82.2,8.1,124.8c5.6,122.9,9.5,213.1,11.5,270.4h186
		c6.4-120.4,11-211.7,13.8-273.9c3.8-64.2,6.5-104.6,8.1-121.4c30.5,0.9,52.5,1.7,66.1,2.6c22,2.6,38.1,4.7,48,6.4L1386,24H907.8
		L917.4,291.9z"/>
	<path class="st0" d="M1672.6,341.3c0-17.6,6-31.9,18.1-43c10-9.1,21-13.6,33.1-13.6c9.7,0,24.1,2.4,43.1,7.2l-11.5-267
		c-47.2-12.2-89.7-18.3-127.6-18.3c-66.9,0-120.4,15.3-160.7,46c-46.1,35.2-69.2,87-69.2,155.5c0,65.6,24.3,122.2,73,169.9
		c25.1,24.7,50.2,49.3,75.3,73.7c15.4,18.5,23.1,39.3,23.1,62.6c0,32.1-19.1,48.1-57.3,48.1c-9.7,0-88.7-12.8-116.9-20.5
		c6.4,26.4,11.4,47.6,15,63.5c5.6,29.5,9.6,50.8,11.9,63.9c20,6.5,111,18.8,153,18.8c45.6,0,83.9-14.6,114.9-43.9
		c32.5-30.4,48.8-69.3,48.8-116.7c0-32.6-11-68.4-33.1-107.3C1683.6,381.2,1672.6,354.9,1672.6,341.3"/>
	<path class="st1" d="M1672.6,341.3c0-17.6,6-31.9,18.1-43c10-9.1,21-13.6,33.1-13.6c9.7,0,24.1,2.4,43.1,7.2l-11.5-267
		c-47.2-12.2-89.7-18.3-127.6-18.3c-66.9,0-120.4,15.3-160.7,46c-46.1,35.2-69.2,87-69.2,155.5c0,65.6,24.3,122.2,73,169.9
		c25.1,24.7,50.2,49.3,75.3,73.7c15.4,18.5,23.1,39.3,23.1,62.6c0,32.1-19.1,48.1-57.3,48.1c-9.7,0-88.7-12.8-116.9-20.5
		c6.4,26.4,11.4,47.6,15,63.5c5.6,29.5,9.6,50.8,11.9,63.9c20,6.5,111,18.8,153,18.8c45.6,0,83.9-14.6,114.9-43.9
		c32.5-30.4,48.8-69.3,48.8-116.7c0-32.6-11-68.4-33.1-107.3C1683.6,381.2,1672.6,354.9,1672.6,341.3z"/>
	<path class="st0" d="M176.3,95.4c21.8-7.9-6.4-37,75.5,17.7c53.7,35.9,74.9,19,110.5,66.9c35.6,48,69,81.7,100.6,106.3
		c10.4,1.2,19.6,3,27.6,5.5l-13.6-267c-24.1-6.2-63.2-9.4-117.1-9.4c-112.2,0-200,32.1-263.6,96.3C36.3,171.9,6.5,250.8,6.5,348.5
		c0,105.6,34.6,191.4,103.9,257.2c63.9,60.5,140.8,90.7,230.8,90.7c49.7,0,90.4-6.1,122.2-18.3c3.7-22.4,7.5-44,11.5-64.7
		c6.8-31.2,11.6-52.7,14.5-64.3c-25.3,13.9-52,20.9-80.1,20.9c-41.2,0-74.5-12.6-99.9-37.7L287,504.5c-0.4-0.5-0.8-1.1-1.1-1.7
		c-4.9-9.3-3,0-21.5-43.4c-26.3-61.9,5.8-67-21.6-102.2c-18.5-23.8-51.3,7-78.9,4.8c-8.1-0.6-60.6-34.6-59.1-53.6
		c1.9-24.1,13.4-20.3,15.8-51.1c2.3-29.6-11.1-17.3,13.6-55.5c6.7-9.6,30.6-35.6,31.2-43.2C167.3,134.3,96.2,52.1,176.3,95.4"/>
	<path class="st1" d="M176.3,95.4c21.8-7.9-6.4-37,75.5,17.7c53.7,35.9,74.9,19,110.5,66.9c35.6,48,69,81.7,100.6,106.3
		c10.4,1.2,19.6,3,27.6,5.5l-13.6-267c-24.1-6.2-63.2-9.4-117.1-9.4c-112.2,0-200,32.1-263.6,96.3C36.3,171.9,6.5,250.8,6.5,348.5
		c0,105.6,34.6,191.4,103.9,257.2c63.9,60.5,140.8,90.7,230.8,90.7c49.7,0,90.4-6.1,122.2-18.3c3.7-22.4,7.5-44,11.5-64.7
		c6.8-31.2,11.6-52.7,14.5-64.3c-25.3,13.9-52,20.9-80.1,20.9c-41.2,0-74.5-12.6-99.9-37.7L287,504.5c-0.4-0.5-0.8-1.1-1.1-1.7
		c-4.9-9.3-3,0-21.5-43.4c-26.3-61.9,5.8-67-21.6-102.2c-18.5-23.8-51.3,7-78.9,4.8c-8.1-0.6-60.6-34.6-59.1-53.6
		c1.9-24.1,13.4-20.3,15.8-51.1c2.3-29.6-11.1-17.3,13.6-55.5c6.7-9.6,30.6-35.6,31.2-43.2C167.3,134.3,96.2,52.1,176.3,95.4z"/>
	<path class="st0" d="M149.1,251.9c6.2,1,24.6-3.3,18.5-35C164.5,200.8,142.9,250.9,149.1,251.9"/>
	<path class="st2" d="M149.1,251.9c6.2,1,24.6-3.3,18.5-35C164.5,200.8,142.9,250.9,149.1,251.9z"/>
	<path class="st3" d="M446.1,1090.5h-129l-8.7-30.9c-3.6,1.4-12.7,6.1-27.1,14.2c-9.3,5.9-19.6,13.7-30.9,23.5l-13.4-28.1
		c-2.7-5.6-6.5-13.4-11.6-23.5l-12.7,44.8h-68.4c10.1-38.3,25.6-101.4,46.7-189.4c12.9-58.9,23.7-114.7,32.3-167.5H365
		c4.4,24.3,16.4,80.9,36.1,169.9C411.9,949.9,426.9,1012.2,446.1,1090.5 M297.3,1014.3c-2.7-8.2-7.4-21.5-14.1-40
		c-4.1-10.2-10.3-24.3-18.6-42.3c-3.6,9-9.3,23.7-17,44.2c-4.2,11.8-9.3,27.8-15.1,48.1c4.7,0,15.4-0.9,32.1-2.8
		C274.6,1020.1,285.5,1017.7,297.3,1014.3"/>
	<path class="st4" d="M446.1,1090.5h-129l-8.7-30.9c-3.6,1.4-12.7,6.1-27.1,14.2c-9.3,5.9-19.6,13.7-30.9,23.5l-13.4-28.1
		c-2.7-5.6-6.5-13.4-11.6-23.5l-12.7,44.8h-68.4c10.1-38.3,25.6-101.4,46.7-189.4c12.9-58.9,23.7-114.7,32.3-167.5H365
		c4.4,24.3,16.4,80.9,36.1,169.9C411.9,949.9,426.9,1012.2,446.1,1090.5z M297.3,1014.3c-2.7-8.2-7.4-21.5-14.1-40
		c-4.1-10.2-10.3-24.3-18.6-42.3c-3.6,9-9.3,23.7-17,44.2c-4.2,11.8-9.3,27.8-15.1,48.1c4.7,0,15.4-0.9,32.1-2.8
		C274.6,1020.1,285.5,1017.7,297.3,1014.3z"/>
	<path class="st3" d="M771.5,867.2c0,28.5-8.1,53.8-24.3,75.8c-14.3,19.2-32.2,33-53.8,41.4c4.6,7,15.8,21.6,33.7,43.9
		c9,10.2,22.6,23.7,41,40.4c-7.4,2.6-23.7,9.3-48.8,20c-17.6,7.9-34.2,15.6-49.7,23.2c-4.6-5.6-14.7-20-30.4-43.2
		c-7.2-11.8-17.8-31.6-31.8-59.5h-0.5l-2.4,81.3H471.8c-1.7-33.8-4.2-89.5-7.3-167.1c-1.4-45.7-4.6-109-9.7-189.8
		c43.2-4.5,82.7-6.7,118.4-6.7C705.4,726.8,771.5,773.6,771.5,867.2 M664.4,917.4c0-14.7-6.3-25.2-18.9-31.6
		c-9.3-4.6-20.9-6.7-34.9-6l-1.4,79.5c13,0,24.7-2.9,34.9-8.6C657.7,943.2,664.4,932.1,664.4,917.4"/>
	<path class="st4" d="M771.5,867.2c0,28.5-8.1,53.8-24.3,75.8c-14.3,19.2-32.2,33-53.8,41.4c4.6,7,15.8,21.6,33.7,43.9
		c9,10.2,22.6,23.7,41,40.4c-7.4,2.6-23.7,9.3-48.8,20c-17.6,7.9-34.2,15.6-49.7,23.2c-4.6-5.6-14.7-20-30.4-43.2
		c-7.2-11.8-17.8-31.6-31.8-59.5h-0.5l-2.4,81.3H471.8c-1.7-33.8-4.2-89.5-7.3-167.1c-1.4-45.7-4.6-109-9.7-189.8
		c43.2-4.5,82.7-6.7,118.4-6.7C705.4,726.8,771.5,773.6,771.5,867.2z M664.4,917.4c0-14.7-6.3-25.2-18.9-31.6
		c-9.3-4.6-20.9-6.7-34.9-6l-1.4,79.5c13,0,24.7-2.9,34.9-8.6C657.7,943.2,664.4,932.1,664.4,917.4z"/>
	<path class="st3" d="M1032.9,733.6l-10.1,147.1c-5.8-0.9-18.4-2.6-37.7-4.9c-13.2-1.2-27.7-2-43.4-2.3l-3.5,44.4
		c17.3,0.5,45.5,0.1,84.6-1.2c-1.7,5.7-4.5,16.4-8.3,32.1c-2.2,9.5-4.2,20.4-5.9,32.8c-4.6-1.1-16-2.5-34.2-4.2
		c-8.5-0.5-21.1-0.6-37.7-0.5l-2.4,51.8c11.8-0.2,33.5-1.2,65.1-3c6-0.5,15.8-2.3,29.5-5.6c-1.3,4.8-4.2,16.3-8.7,34.6
		c-2.2,9.5-4.9,21.4-8,35.8h-211l-6.8-182.2c-1.3-41.7-4.3-99.9-9.2-174.7H1032.9z"/>
	<path class="st4" d="M1032.9,733.6l-10.1,147.1c-5.8-0.9-18.4-2.6-37.7-4.9c-13.2-1.2-27.7-2-43.4-2.3l-3.5,44.4
		c17.3,0.5,45.5,0.1,84.6-1.2c-1.7,5.7-4.5,16.4-8.3,32.1c-2.2,9.5-4.2,20.4-5.9,32.8c-4.6-1.1-16-2.5-34.2-4.2
		c-8.5-0.5-21.1-0.6-37.7-0.5l-2.4,51.8c11.8-0.2,33.5-1.2,65.1-3c6-0.5,15.8-2.3,29.5-5.6c-1.3,4.8-4.2,16.3-8.7,34.6
		c-2.2,9.5-4.9,21.4-8,35.8h-211l-6.8-182.2c-1.3-41.7-4.3-99.9-9.2-174.7H1032.9z"/>
	<path class="st3" d="M1342.9,733.6c-2.2,31.3-5.3,85.9-9.2,163.8c-2.4,57.3-4.3,123.2-5.9,197.7c-20.6-16-51.9-39.7-94.1-71.3
		c-18.2-12.5-45.4-31.4-81.6-56.5l-2.4,123.2h-75.9c-1.3-31.4-4.2-90.8-8.7-178c-3.9-70.6-7.9-130.3-12-178.9h118.4l87.7,81.8
		c0-18.7-0.3-33.5-0.9-44.2c-0.5-9.4-1.4-22-2.8-37.6H1342.9z"/>
	<path class="st4" d="M1342.9,733.6c-2.2,31.3-5.3,85.9-9.2,163.8c-2.4,57.3-4.3,123.2-5.9,197.7c-20.6-16-51.9-39.7-94.1-71.3
		c-18.2-12.5-45.4-31.4-81.6-56.5l-2.4,123.2h-75.9c-1.3-31.4-4.2-90.8-8.7-178c-3.9-70.6-7.9-130.3-12-178.9h118.4l87.7,81.8
		c0-18.7-0.3-33.5-0.9-44.2c-0.5-9.4-1.4-22-2.8-37.6H1342.9z"/>
	<path class="st3" d="M1650.6,1090.5h-129l-8.7-30.9c-3.6,1.4-12.7,6.1-27.1,14.2c-9.3,5.9-19.6,13.7-30.9,23.5l-13.4-28.1
		c-2.7-5.6-6.5-13.4-11.6-23.5l-12.7,44.8h-68.4c10.1-38.3,25.6-101.4,46.7-189.4c12.9-58.9,23.7-114.7,32.3-167.5h141.7
		c4.4,24.3,16.4,80.9,36.1,169.9C1616.4,949.9,1631.4,1012.2,1650.6,1090.5 M1501.9,1014.3c-2.7-8.2-7.4-21.5-14.1-40
		c-4.1-10.2-10.3-24.3-18.6-42.3c-3.6,9-9.3,23.7-17,44.2c-4.2,11.8-9.3,27.8-15.1,48.1c4.7,0,15.4-0.9,32.1-2.8
		C1479.1,1020.1,1490.1,1017.7,1501.9,1014.3"/>
	<path class="st4" d="M1650.6,1090.5h-129l-8.7-30.9c-3.6,1.4-12.7,6.1-27.1,14.2c-9.3,5.9-19.6,13.7-30.9,23.5l-13.4-28.1
		c-2.7-5.6-6.5-13.4-11.6-23.5l-12.7,44.8h-68.4c10.1-38.3,25.6-101.4,46.7-189.4c12.9-58.9,23.7-114.7,32.3-167.5h141.7
		c4.4,24.3,16.4,80.9,36.1,169.9C1616.4,949.9,1631.4,1012.2,1650.6,1090.5z M1501.9,1014.3c-2.7-8.2-7.4-21.5-14.1-40
		c-4.1-10.2-10.3-24.3-18.6-42.3c-3.6,9-9.3,23.7-17,44.2c-4.2,11.8-9.3,27.8-15.1,48.1c4.7,0,15.4-0.9,32.1-2.8
		C1479.1,1020.1,1490.1,1017.7,1501.9,1014.3z"/>
</g>
</svg>
