<?xml version="1.0" encoding="utf-8"?>
<!-- Generator: Adobe Illustrator 20.1.0, SVG Export Plug-In . SVG Version: 6.00 Build 0)  -->
<svg version="1.1" id="Layer_1" xmlns="http://www.w3.org/2000/svg" xmlns:xlink="http://www.w3.org/1999/xlink" x="0px" y="0px"
	 viewBox="0 0 160 160" style="enable-background:new 0 0 160 160;" xml:space="preserve">
<style type="text/css">
	.st0{fill:#EEF0F2;}
	.st1{fill:#FFFFFF;}
	.st2{fill:#424D5D;}
</style>
<g>
	<circle class="st0" cx="80.2" cy="80.5" r="61"/>
	<g>
		<g>
			<path class="st1" d="M68.6,114c-3.7,0-7.3-1.4-10.1-3.9c-0.2-0.2-0.4-0.3-0.7-0.3c-0.1,0-0.2,0-0.3,0c-1.1,0.3-2.2,0.5-3.4,0.5
				c-6.3,0-11.4-5.1-11.4-11.4c0-1.5,0.3-3,0.9-4.4c0.2-0.4,0-0.9-0.3-1.2c-4.1-2.9-6.6-7.7-6.6-12.7c0-8.6,7-15.5,15.5-15.5
				c1.1,0,2.3,0.1,3.4,0.4c0.1,0,0.1,0,0.2,0c0.2,0,0.5-0.1,0.6-0.2c0.2-0.2,0.4-0.5,0.4-0.8l0-0.5c0-2.6,0.5-5.1,1.4-7.5l2.5-4.6
				c3.9-5.4,10.2-8.7,16.9-8.7c9.3,0,17.6,6.3,20.1,15.2c0.1,0.4,0.5,0.7,1,0.7c0,0,0,0,0.1,0c0.4,0,0.9-0.1,1.4-0.1
				c10.2,0,18.5,8.3,18.5,18.5c0,10.1-8.2,18.4-18.3,18.5c0,0-0.1,0-0.1,0h-6.8c-0.4,0-0.7,0.2-0.9,0.5c-1.8,3.2-5,5.2-8.6,5.4
				c-0.4,0-0.8,0.3-0.9,0.7C81.3,109.5,75.3,114,68.6,114z"/>
			<path class="st2" d="M77.7,44.4c8.9,0,16.7,6,19.1,14.5c0.2,0.9,1,1.5,1.9,1.5c0,0,0.1,0,0.1,0c0.5,0,0.9-0.1,1.3-0.1
				c9.7,0,17.5,7.9,17.5,17.5c0,9.5-7.8,17.4-17.3,17.5c0,0-0.1,0-0.1,0h-6.8c-0.7,0-1.4,0.4-1.8,1c-1.6,2.9-4.5,4.7-7.8,4.9
				c-0.8,0.1-1.6,0.6-1.8,1.5c-1.7,6.1-7.3,10.3-13.6,10.3c-3.5,0-6.8-1.3-9.4-3.6c-0.4-0.3-0.9-0.5-1.3-0.5c-0.2,0-0.4,0-0.6,0.1
				c-1,0.3-2,0.5-3.1,0.5c-5.7,0-10.4-4.7-10.4-10.4c0-1.4,0.3-2.7,0.8-4c0.4-0.9,0.1-1.9-0.7-2.4c-3.9-2.7-6.2-7.2-6.2-11.9
				c0-8,6.5-14.5,14.5-14.5c1.1,0,2.1,0.1,3.2,0.4c0.1,0,0.3,0,0.4,0c0.5,0,0.9-0.2,1.3-0.5c0.5-0.4,0.7-1,0.7-1.6l0-0.2
				c0-0.1,0-0.2,0-0.2c0-2.4,0.4-4.8,1.3-7.1l2.5-4.5C65.3,47.4,71.3,44.4,77.7,44.4 M77.7,42.4c-7.3,0-13.8,3.6-17.8,9.1l-2.6,4.8
				c-1,2.5-1.5,5.1-1.5,7.9c0,0.2,0,0.3,0,0.5c-1.2-0.3-2.4-0.4-3.6-0.4c-9.1,0-16.5,7.4-16.5,16.5c0,5.6,2.8,10.5,7,13.5
				c-0.6,1.5-0.9,3.1-0.9,4.8c0,6.8,5.5,12.4,12.4,12.4c1.3,0,2.5-0.2,3.7-0.6c2.9,2.6,6.6,4.2,10.8,4.2c7.4,0,13.6-5,15.5-11.7
				c4-0.3,7.5-2.6,9.4-6h6.9v0c10.7-0.1,19.3-8.8,19.3-19.5c0-10.8-8.7-19.5-19.5-19.5c-0.5,0-1,0-1.4,0.1
				C96.1,49.1,87.7,42.4,77.7,42.4L77.7,42.4z"/>
		</g>
		<g>
			<circle class="st1" cx="73" cy="56.4" r="1.5"/>
			<path class="st2" d="M73,55.9c0.3,0,0.5,0.2,0.5,0.5s-0.2,0.5-0.5,0.5s-0.5-0.2-0.5-0.5S72.7,55.9,73,55.9 M73,53.9
				c-1.4,0-2.5,1.1-2.5,2.5s1.1,2.5,2.5,2.5s2.5-1.1,2.5-2.5S74.4,53.9,73,53.9L73,53.9z"/>
		</g>
		<g>
			<circle class="st1" cx="46.7" cy="47" r="1.5"/>
			<path class="st2" d="M46.7,46.5c0.3,0,0.5,0.2,0.5,0.5s-0.2,0.5-0.5,0.5s-0.5-0.2-0.5-0.5S46.5,46.5,46.7,46.5 M46.7,44.5
				c-1.4,0-2.5,1.1-2.5,2.5s1.1,2.5,2.5,2.5s2.5-1.1,2.5-2.5S48.1,44.5,46.7,44.5L46.7,44.5z"/>
		</g>
		<g>
			<circle class="st1" cx="46.7" cy="80.5" r="1.5"/>
			<path class="st2" d="M46.7,80c0.3,0,0.5,0.2,0.5,0.5S47,81,46.7,81s-0.5-0.2-0.5-0.5S46.5,80,46.7,80 M46.7,78
				c-1.4,0-2.5,1.1-2.5,2.5s1.1,2.5,2.5,2.5s2.5-1.1,2.5-2.5S48.1,78,46.7,78L46.7,78z"/>
		</g>
		<g>
			<circle class="st1" cx="73.7" cy="96.6" r="1.5"/>
			<path class="st2" d="M73.7,96.1c0.3,0,0.5,0.2,0.5,0.5s-0.2,0.5-0.5,0.5s-0.5-0.2-0.5-0.5S73.5,96.1,73.7,96.1 M73.7,94.1
				c-1.4,0-2.5,1.1-2.5,2.5s1.1,2.5,2.5,2.5s2.5-1.1,2.5-2.5S75.1,94.1,73.7,94.1L73.7,94.1z"/>
		</g>
		<g>
			<circle class="st1" cx="96.6" cy="81.2" r="1.5"/>
			<path class="st2" d="M96.6,80.7c0.3,0,0.5,0.2,0.5,0.5s-0.2,0.5-0.5,0.5s-0.5-0.2-0.5-0.5S96.3,80.7,96.6,80.7 M96.6,78.7
				c-1.4,0-2.5,1.1-2.5,2.5s1.1,2.5,2.5,2.5s2.5-1.1,2.5-2.5S98,78.7,96.6,78.7L96.6,78.7z"/>
		</g>
		<g>
			<circle class="st1" cx="81.6" cy="76.2" r="1.5"/>
			<path class="st2" d="M81.6,75.7c0.3,0,0.5,0.2,0.5,0.5s-0.2,0.5-0.5,0.5s-0.5-0.2-0.5-0.5S81.3,75.7,81.6,75.7 M81.6,73.7
				c-1.4,0-2.5,1.1-2.5,2.5s1.1,2.5,2.5,2.5s2.5-1.1,2.5-2.5S83,73.7,81.6,73.7L81.6,73.7z"/>
		</g>
		<g>
			<circle class="st1" cx="97.4" cy="45.5" r="1.5"/>
			<path class="st2" d="M97.4,45c0.3,0,0.5,0.2,0.5,0.5S97.6,46,97.4,46s-0.5-0.2-0.5-0.5S97.1,45,97.4,45 M97.4,43
				c-1.4,0-2.5,1.1-2.5,2.5S96,48,97.4,48s2.5-1.1,2.5-2.5S98.8,43,97.4,43L97.4,43z"/>
		</g>
		<g>
			<circle class="st1" cx="130.7" cy="73.7" r="1.5"/>
			<path class="st2" d="M130.7,73.2c0.3,0,0.5,0.2,0.5,0.5s-0.2,0.5-0.5,0.5s-0.5-0.2-0.5-0.5S130.5,73.2,130.7,73.2 M130.7,71.2
				c-1.4,0-2.5,1.1-2.5,2.5s1.1,2.5,2.5,2.5c1.4,0,2.5-1.1,2.5-2.5S132.1,71.2,130.7,71.2L130.7,71.2z"/>
		</g>
		<g>
			<circle class="st1" cx="104.5" cy="111.6" r="1.5"/>
			<path class="st2" d="M104.5,111.1c0.3,0,0.5,0.2,0.5,0.5s-0.2,0.5-0.5,0.5s-0.5-0.2-0.5-0.5S104.2,111.1,104.5,111.1
				 M104.5,109.1c-1.4,0-2.5,1.1-2.5,2.5s1.1,2.5,2.5,2.5s2.5-1.1,2.5-2.5S105.9,109.1,104.5,109.1L104.5,109.1z"/>
		</g>
		<g>
			<circle class="st1" cx="58" cy="101.6" r="1.5"/>
			<path class="st2" d="M58,101.1c0.3,0,0.5,0.2,0.5,0.5s-0.2,0.5-0.5,0.5s-0.5-0.2-0.5-0.5S57.7,101.1,58,101.1 M58,99.1
				c-1.4,0-2.5,1.1-2.5,2.5s1.1,2.5,2.5,2.5s2.5-1.1,2.5-2.5S59.4,99.1,58,99.1L58,99.1z"/>
		</g>
		<g>
			<circle class="st1" cx="72.2" cy="127.5" r="1.5"/>
			<path class="st2" d="M72.2,127c0.3,0,0.5,0.2,0.5,0.5s-0.2,0.5-0.5,0.5s-0.5-0.2-0.5-0.5S72,127,72.2,127 M72.2,125
				c-1.4,0-2.5,1.1-2.5,2.5s1.1,2.5,2.5,2.5s2.5-1.1,2.5-2.5S73.6,125,72.2,125L72.2,125z"/>
		</g>
		<g>
			<circle class="st1" cx="63" cy="73.7" r="1.5"/>
			<path class="st2" d="M63,73.2c0.3,0,0.5,0.2,0.5,0.5s-0.2,0.5-0.5,0.5s-0.5-0.2-0.5-0.5S62.7,73.2,63,73.2 M63,71.2
				c-1.4,0-2.5,1.1-2.5,2.5s1.1,2.5,2.5,2.5c1.4,0,2.5-1.1,2.5-2.5S64.4,71.2,63,71.2L63,71.2z"/>
		</g>
		<g>
			<circle class="st1" cx="29.6" cy="95.7" r="1.5"/>
			<path class="st2" d="M29.6,95.2c0.3,0,0.5,0.2,0.5,0.5s-0.2,0.5-0.5,0.5s-0.5-0.2-0.5-0.5S29.3,95.2,29.6,95.2 M29.6,93.2
				c-1.4,0-2.5,1.1-2.5,2.5s1.1,2.5,2.5,2.5s2.5-1.1,2.5-2.5S31,93.2,29.6,93.2L29.6,93.2z"/>
		</g>
	</g>
	<path class="st2" d="M137.5,26.1c-0.9-1-1.9-1.9-2.8-2.8C120.5,9.8,101.3,1.5,80.2,1.5c-43.6,0-79,35.4-79,79
		c0,21.1,8.3,40.3,21.8,54.4c0.9,1,1.9,1.9,2.8,2.8c14.2,13.5,33.3,21.8,54.4,21.8c43.6,0,79-35.4,79-79
		C159.2,59.4,150.9,40.3,137.5,26.1z M5.2,80.5c0-41.4,33.6-75,75-75c20,0,38.1,7.8,51.6,20.6l-106,106C13,118.6,5.2,100.5,5.2,80.5
		z M80.2,155.5c-20,0-38.1-7.8-51.6-20.6l106-106c12.8,13.5,20.6,31.6,20.6,51.6C155.2,121.9,121.6,155.5,80.2,155.5z"/>
</g>
</svg>
