<?xml version="1.0" encoding="utf-8"?>
<!-- Generator: Adobe Illustrator 20.1.0, SVG Export Plug-In . SVG Version: 6.00 Build 0)  -->
<svg version="1.1" id="Layer_1" xmlns="http://www.w3.org/2000/svg" xmlns:xlink="http://www.w3.org/1999/xlink" x="0px" y="0px"
	 viewBox="0 0 250 250" style="enable-background:new 0 0 250 250;" xml:space="preserve">
<style type="text/css">
	.st0{fill:#EEF0F2;}
	.st1{fill:#FFFFFF;}
	.st2{fill:#424D5D;}
</style>
<circle class="st0" cx="124.7" cy="124.7" r="94.1"/>
<g>
	<g>
		<path class="st1" d="M107.5,166.1c-5.5,0-10.9-2.1-15-5.8c-0.3-0.3-0.6-0.4-1-0.4c-0.1,0-0.3,0-0.4,0c-1.6,0.4-3.3,0.7-5.1,0.7
			c-9.4,0-17-7.6-17-17c0-2.2,0.4-4.5,1.3-6.6c0.3-0.6,0-1.3-0.4-1.8c-6.1-4.3-9.8-11.5-9.8-18.9c0-12.8,10.4-23.1,23.1-23.1
			c1.6,0,3.4,0.1,5.1,0.6c0.1,0,0.1,0,0.3,0c0.3,0,0.7-0.1,0.9-0.3c0.3-0.3,0.6-0.7,0.6-1.2v-0.7c0-3.9,0.7-7.6,2.1-11.2l3.7-6.8
			c5.8-8,15.2-13,25.2-13c13.8,0,26.2,9.4,29.9,22.6c0.1,0.6,0.7,1,1.5,1c0,0,0,0,0.1,0c0.6,0,1.3-0.1,2.1-0.1
			c15.2,0,27.5,12.4,27.5,27.5c0,15-12.2,27.4-27.2,27.5h-0.1h-10.1c-0.6,0-1,0.3-1.3,0.7c-2.7,4.8-7.4,7.7-12.8,8
			c-0.6,0-1.2,0.4-1.3,1C126.4,159.4,117.5,166.1,107.5,166.1z"/>
		<path class="st2" d="M121,62.4c13.3,0,24.9,8.9,28.4,21.6c0.3,1.3,1.5,2.2,2.8,2.2h0.1c0.7,0,1.3-0.1,1.9-0.1
			c14.4,0,26.1,11.8,26.1,26.1c0,14.1-11.6,25.9-25.8,26.1h-0.1h-10.1c-1,0-2.1,0.6-2.7,1.5c-2.4,4.3-6.7,7-11.6,7.3
			c-1.2,0.1-2.4,0.9-2.7,2.2c-2.5,9.1-10.9,15.3-20.2,15.3c-5.2,0-10.1-1.9-14-5.4c-0.6-0.4-1.3-0.7-1.9-0.7c-0.3,0-0.6,0-0.9,0.1
			c-1.5,0.4-3,0.7-4.6,0.7c-8.5,0-15.5-7-15.5-15.5c0-2.1,0.4-4,1.2-6c0.6-1.3,0.1-2.8-1-3.6c-5.8-4-9.2-10.7-9.2-17.7
			c0-11.9,9.7-21.6,21.6-21.6c1.6,0,3.1,0.1,4.8,0.6c0.1,0,0.4,0,0.6,0c0.7,0,1.3-0.3,1.9-0.7c0.7-0.6,1-1.5,1-2.4v-0.3
			c0-0.1,0-0.3,0-0.3c0-3.6,0.6-7.1,1.9-10.6l3.7-6.7C102.6,66.9,111.5,62.4,121,62.4 M121,59.5c-10.9,0-20.5,5.4-26.5,13.5
			l-3.9,7.1c-1.5,3.7-2.2,7.6-2.2,11.8c0,0.3,0,0.4,0,0.7c-1.8-0.4-3.6-0.6-5.4-0.6c-13.5,0-24.6,11-24.6,24.6
			c0,8.3,4.2,15.6,10.4,20.1c-0.9,2.2-1.3,4.6-1.3,7.1c0,10.1,8.2,18.5,18.5,18.5c1.9,0,3.7-0.3,5.5-0.9c4.3,3.9,9.8,6.3,16.1,6.3
			c11,0,20.2-7.4,23.1-17.4c6-0.4,11.2-3.9,14-8.9H155l0,0c15.9-0.1,28.7-13.1,28.7-29c0-16.1-13-29-29-29c-0.7,0-1.5,0-2.1,0.1
			C148.4,69.4,135.9,59.5,121,59.5L121,59.5z"/>
	</g>
	<g>
		<circle class="st1" cx="114" cy="80.3" r="2.2"/>
		<path class="st2" d="M114,79.6c0.4,0,0.7,0.3,0.7,0.7s-0.3,0.7-0.7,0.7s-0.7-0.3-0.7-0.7S113.6,79.6,114,79.6 M114,76.6
			c-2.1,0-3.7,1.6-3.7,3.7s1.6,3.7,3.7,3.7c2.1,0,3.7-1.6,3.7-3.7S116.1,76.6,114,76.6L114,76.6z"/>
	</g>
	<g>
		<circle class="st1" cx="74.9" cy="66.3" r="2.2"/>
		<path class="st2" d="M74.9,65.6c0.4,0,0.7,0.3,0.7,0.7c0,0.4-0.3,0.7-0.7,0.7c-0.4,0-0.7-0.3-0.7-0.7
			C74.1,65.9,74.6,65.6,74.9,65.6 M74.9,62.6c-2.1,0-3.7,1.6-3.7,3.7c0,2.1,1.6,3.7,3.7,3.7c2.1,0,3.7-1.6,3.7-3.7
			C78.6,64.2,77,62.6,74.9,62.6L74.9,62.6z"/>
	</g>
	<g>
		<circle class="st1" cx="74.9" cy="116.2" r="2.2"/>
		<path class="st2" d="M74.9,115.4c0.4,0,0.7,0.3,0.7,0.7s-0.3,0.7-0.7,0.7c-0.4,0-0.7-0.3-0.7-0.7S74.6,115.4,74.9,115.4
			 M74.9,112.5c-2.1,0-3.7,1.6-3.7,3.7c0,2.1,1.6,3.7,3.7,3.7c2.1,0,3.7-1.6,3.7-3.7C78.6,114.1,77,112.5,74.9,112.5L74.9,112.5z"/>
	</g>
	<g>
		<circle class="st1" cx="115.1" cy="140.2" r="2.2"/>
		<path class="st2" d="M115.1,139.4c0.4,0,0.7,0.3,0.7,0.7c0,0.4-0.3,0.7-0.7,0.7c-0.4,0-0.7-0.3-0.7-0.7
			C114.3,139.7,114.8,139.4,115.1,139.4 M115.1,136.4c-2.1,0-3.7,1.6-3.7,3.7s1.6,3.7,3.7,3.7c2.1,0,3.7-1.6,3.7-3.7
			S117.2,136.4,115.1,136.4L115.1,136.4z"/>
	</g>
	<g>
		<circle class="st1" cx="149.2" cy="117.2" r="2.2"/>
		<path class="st2" d="M149.2,116.5c0.4,0,0.7,0.3,0.7,0.7s-0.3,0.7-0.7,0.7c-0.4,0-0.7-0.3-0.7-0.7S148.7,116.5,149.2,116.5
			 M149.2,113.5c-2.1,0-3.7,1.6-3.7,3.7s1.6,3.7,3.7,3.7s3.7-1.6,3.7-3.7S151.3,113.5,149.2,113.5L149.2,113.5z"/>
	</g>
	<g>
		<circle class="st1" cx="126.8" cy="109.8" r="2.2"/>
		<path class="st2" d="M126.8,109c0.4,0,0.7,0.3,0.7,0.7s-0.3,0.7-0.7,0.7s-0.7-0.3-0.7-0.7S126.4,109,126.8,109 M126.8,106.1
			c-2.1,0-3.7,1.6-3.7,3.7s1.6,3.7,3.7,3.7c2.1,0,3.7-1.6,3.7-3.7S128.9,106.1,126.8,106.1L126.8,106.1z"/>
	</g>
	<g>
		<circle class="st1" cx="150.4" cy="64.1" r="2.2"/>
		<path class="st2" d="M150.4,63.3c0.4,0,0.7,0.3,0.7,0.7c0,0.4-0.4,0.7-0.7,0.7c-0.3,0-0.7-0.3-0.7-0.7
			C149.6,63.6,149.9,63.3,150.4,63.3 M150.4,60.4c-2.1,0-3.7,1.6-3.7,3.7s1.6,3.7,3.7,3.7s3.7-1.6,3.7-3.7S152.4,60.4,150.4,60.4
			L150.4,60.4z"/>
	</g>
	<g>
		<circle class="st1" cx="199.9" cy="106.1" r="2.2"/>
		<path class="st2" d="M199.9,105.3c0.4,0,0.7,0.3,0.7,0.7c0,0.4-0.3,0.7-0.7,0.7c-0.4,0-0.7-0.3-0.7-0.7
			C199.2,105.6,199.6,105.3,199.9,105.3 M199.9,102.3c-2.1,0-3.7,1.6-3.7,3.7c0,2.1,1.6,3.7,3.7,3.7s3.7-1.6,3.7-3.7
			C203.7,104,202,102.3,199.9,102.3L199.9,102.3z"/>
	</g>
	<g>
		<circle class="st1" cx="160.9" cy="162.5" r="2.2"/>
		<path class="st2" d="M160.9,161.8c0.4,0,0.7,0.3,0.7,0.7c0,0.4-0.3,0.7-0.7,0.7c-0.4,0-0.7-0.3-0.7-0.7
			C160.2,162.1,160.5,161.8,160.9,161.8 M160.9,158.8c-2.1,0-3.7,1.6-3.7,3.7s1.6,3.7,3.7,3.7s3.7-1.6,3.7-3.7
			S163,158.8,160.9,158.8L160.9,158.8z"/>
	</g>
	<g>
		<circle class="st1" cx="91.7" cy="147.6" r="2.2"/>
		<path class="st2" d="M91.7,146.9c0.4,0,0.7,0.3,0.7,0.7c0,0.4-0.3,0.7-0.7,0.7s-0.7-0.3-0.7-0.7C91,147.2,91.3,146.9,91.7,146.9
			 M91.7,143.9c-2.1,0-3.7,1.6-3.7,3.7s1.6,3.7,3.7,3.7s3.7-1.6,3.7-3.7S93.8,143.9,91.7,143.9L91.7,143.9z"/>
	</g>
	<g>
		<circle class="st1" cx="112.8" cy="186.2" r="2.2"/>
		<path class="st2" d="M112.8,185.4c0.4,0,0.7,0.3,0.7,0.7c0,0.4-0.3,0.7-0.7,0.7s-0.7-0.3-0.7-0.7
			C112.1,185.7,112.5,185.4,112.8,185.4 M112.8,182.4c-2.1,0-3.7,1.6-3.7,3.7c0,2.1,1.6,3.7,3.7,3.7s3.7-1.6,3.7-3.7
			S114.9,182.4,112.8,182.4L112.8,182.4z"/>
	</g>
	<g>
		<circle class="st1" cx="99.1" cy="106.1" r="2.2"/>
		<path class="st2" d="M99.1,105.3c0.4,0,0.7,0.3,0.7,0.7c0,0.4-0.3,0.7-0.7,0.7c-0.4,0-0.7-0.3-0.7-0.7
			C98.4,105.6,98.7,105.3,99.1,105.3 M99.1,102.3c-2.1,0-3.7,1.6-3.7,3.7c0,2.1,1.6,3.7,3.7,3.7s3.7-1.6,3.7-3.7
			C102.9,104,101.2,102.3,99.1,102.3L99.1,102.3z"/>
	</g>
	<g>
		<circle class="st1" cx="49.4" cy="138.8" r="2.2"/>
		<path class="st2" d="M49.4,138.1c0.4,0,0.7,0.3,0.7,0.7c0,0.4-0.3,0.7-0.7,0.7s-0.7-0.3-0.7-0.7C48.7,138.4,49,138.1,49.4,138.1
			 M49.4,135.1c-2.1,0-3.7,1.6-3.7,3.7s1.6,3.7,3.7,3.7s3.7-1.6,3.7-3.7S51.5,135.1,49.4,135.1L49.4,135.1z"/>
	</g>
</g>
<path class="st2" d="M193.1,59.9c-1.1-1.2-2.3-2.3-3.3-3.3c-16.9-16.1-39.7-25.9-64.8-25.9c-51.9,0-94,42.1-94,94
	c0,25.1,9.9,47.9,25.9,64.7c1.1,1.2,2.3,2.3,3.3,3.3c16.9,16.1,39.6,25.9,64.7,25.9c51.9,0,94-42.1,94-94
	C218.9,99.5,209.1,76.8,193.1,59.9z M35.7,124.6c0-49.2,40-89.2,89.2-89.2c23.8,0,45.3,9.3,61.4,24.5L60.3,186
	C45,169.9,35.7,148.4,35.7,124.6z M125,213.8c-23.8,0-45.3-9.3-61.4-24.5L189.7,63.2c15.2,16.1,24.5,37.6,24.5,61.4
	C214.2,173.8,174.2,213.8,125,213.8z"/>
</svg>
