<?xml version="1.0" encoding="utf-8"?>
<!-- Generator: Adobe Illustrator 20.1.0, SVG Export Plug-In . SVG Version: 6.00 Build 0)  -->
<svg version="1.1" id="Layer_1" xmlns="http://www.w3.org/2000/svg" xmlns:xlink="http://www.w3.org/1999/xlink" x="0px" y="0px"
	 viewBox="0 0 250 250" style="enable-background:new 0 0 250 250;" xml:space="preserve">
<style type="text/css">
	.st0{fill:#EEF0F2;}
	.st1{fill:#424D5D;}
	.st2{fill:#8BC63F;}
</style>
<circle class="st0" cx="124.7" cy="124.7" r="94.1"/>
<g>
	<g>
		<path class="st1" d="M106.7,123.5c-6.5-7.8-8.8-13.2-10.3-20.7c-0.7-3.6-1.5-13.7,6.9-27.9c1.1-2,0.8-4.6-1-6
			c-1.8-1.6-4.2-1.6-6.2-0.2C86.5,75.8,80.3,87,78.8,99.5c-1.6,13.6,2.6,27.1,11.8,38.1c1,1.1,1.8,2.1,2.4,3.1
			c4.2,5.2,3.8,4.7,5.9,7.8c9,13.6,9.8,29.6,2.3,47.9c-0.8,2.1-0.2,4.6,1.8,5.9c2,1.3,4.6,1,6.2-0.7c4.9-5.1,9-11.3,11.6-17.6
			C132.4,154.2,115.1,133.4,106.7,123.5z M116.7,181.8c-2.9,7.3-7.5,12.9-10.6,16.2c0,0-0.2,0.2-0.3,0c-0.2-0.2-0.2-0.2-0.2-0.3
			c7.3-18,7.8-36.1-2.8-52.1c-2.4-3.6-3.1-4.6-6-8.2c-4.4-5.4-15.5-17.8-13.2-37.6c1.3-11.3,6.9-21.4,15.5-27.8c0.2,0,0.2-0.2,0.3,0
			c0.2,0.2,0.2,0.3,0,0.3c-6.4,10.9-9,22.4-7.3,31.2c1.3,6.9,3.8,13.4,8.8,19.8C107.9,132.3,128.3,152.1,116.7,181.8z"/>
		<path class="st2" d="M116.7,181.8c-2.9,7.3-7.5,12.9-10.6,16.2c0,0-0.2,0.2-0.3,0c-0.2-0.2-0.2-0.2-0.2-0.3
			c7.3-18,7.8-36.1-2.8-52.1c-2.4-3.6-3.1-4.6-6-8.2c-4.4-5.4-15.5-17.8-13.2-37.6c1.3-11.3,6.9-21.4,15.5-27.8c0.2,0,0.2-0.2,0.3,0
			c0.2,0.2,0.2,0.3,0,0.3c-6.4,10.9-9,22.4-7.3,31.2c1.3,6.9,3.8,13.4,8.8,19.8C107.9,132.3,128.3,152.1,116.7,181.8z"/>
		<path class="st1" d="M170.4,103.5c-1-6-7.5-17.1-11.1-21.4c-4.1-4.9-5.4-8.2-6.4-12.7c-0.5-2.3-0.8-8.3,4.2-17.1
			c1-1.6,0.7-3.6-0.8-4.9c-1.5-1.3-3.4-1.3-4.9-0.2c-6.2,4.7-10.3,12.1-11.3,20.1c-1,8.8,1.6,17.6,7.7,24.7c0.7,0.8,1.1,1.3,1.6,2
			c2.6,3.3,2.3,2.9,3.6,4.9c5.6,8.3,6,18.3,1.5,29.4c-0.7,1.8-0.2,3.8,1.5,4.7c1.6,1,3.6,0.8,5.1-0.5c3.3-3.3,5.9-7.3,7.5-11.4
			c0.8-2,1.3-3.1,1.8-5.9C170.6,112.2,171.4,109.6,170.4,103.5z M165.7,114.2c-0.3,1.5-0.8,3.3-1.5,5.1c-1.3,3.1-2.8,5.6-4.2,7.3
			c3.8-11.3,2.6-21.6-3.1-30.2c-1.5-2.3-2.1-3.1-3.9-5.2c-2.8-3.4-9.6-11.1-8.2-23.2c0.7-5.7,3.1-10.8,6.9-14.7
			c-2.9,6-4.1,12.2-3.1,17.1c1.1,5.4,2.8,9.3,7.3,14.9c3.3,3.9,8.8,10.6,10.1,19.3c0.2,0.8,0.2,1.6,0.2,2.4
			C166.3,109.6,166,112,165.7,114.2z"/>
		<path class="st2" d="M165.7,114.2c-0.3,1.5-0.8,3.3-1.5,5.1c-1.3,3.1-2.8,5.6-4.2,7.3c3.8-11.3,2.6-21.6-3.1-30.2
			c-1.5-2.3-2.1-3.1-3.9-5.2c-2.8-3.4-9.6-11.1-8.2-23.2c0.7-5.7,3.1-10.8,6.9-14.7c-2.9,6-4.1,12.2-3.1,17.1
			c1.1,5.4,2.8,9.3,7.3,14.9c3.3,3.9,8.8,10.6,10.1,19.3c0.2,0.8,0.2,1.6,0.2,2.4C166.3,109.6,166,112,165.7,114.2z"/>
		<path class="st1" d="M134.7,103.4c-0.8-1-1.5-1.6-2-2.4c-2.6-3.6-4.2-6.5-5.1-9c-0.7-1.6-1-2.8-1-3.3c-1-3.9-1-7.7-0.8-9.8
			c0.7-5.2,2.6-10.9,5.9-16.7c1.1-1.8,0.7-4.2-1-5.7c-1.6-1.5-3.9-1.5-5.7-0.2c-8.2,6.2-13.7,16-14.9,26.6
			c-1.3,11.6,2.3,23.4,10.1,32.7c4.4,5.4,4.7,5.6,7,9.3l0,0c7.7,11.4,8.3,25.2,2,40.5c-0.8,2-0.2,4.2,1.6,5.4c1.8,1.1,4.2,1,5.7-0.7
			c4.2-4.4,7.7-9.6,10-15.2C156.5,129.8,141.7,112,134.7,103.4z M142.5,153.4c-2.4,6-6,10.6-8.7,13.4c6.2-15.4,6.5-30.7-2.6-44.4
			c-2-3.1-2.8-3.9-5.2-7c-3.8-4.6-13.2-15.2-11.3-31.8c1.1-9.3,5.7-17.8,12.7-23.4c-2.3,3.4-5.7,9.6-6.4,18
			c-0.5,5.6,0.5,10,0.8,11.6c0.2,1,0.5,1.8,0.8,2.6c0.2,0.3,0.2,0.7,0.3,1.1c0,0,0,0.2,0.2,0.3c0,0.2,0.2,0.3,0.2,0.5
			c0,0.2,0.2,0.3,0.3,0.7c0.2,0.2,0.2,0.5,0.3,0.7l0,0l0,0c0.2,0.3,0.2,0.5,0.3,0.8c0.2,0.5,0.5,1,0.7,1.3c1,2,2.1,3.6,2.9,4.7
			c0,0.2,0.2,0.2,0.2,0.3c0.3,0.5,0.5,0.8,0.8,1.1C142.5,120.7,149.4,136.2,142.5,153.4z"/>
		<path class="st2" d="M142.5,153.4c-2.4,6-6,10.6-8.7,13.4c6.2-15.4,6.5-30.7-2.6-44.4c-2-3.1-2.8-3.9-5.2-7
			c-3.8-4.6-13.2-15.2-11.3-31.8c1.1-9.3,5.7-17.8,12.7-23.4c-2.3,3.4-5.7,9.6-6.4,18c-0.5,5.6,0.5,10,0.8,11.6
			c0.2,1,0.5,1.8,0.8,2.6c0.2,0.3,0.2,0.7,0.3,1.1c0,0,0,0.2,0.2,0.3c0,0.2,0.2,0.3,0.2,0.5c0.2,0.5,0.3,0.8,0.5,1.3l0,0
			c1.8,4.1,3.9,7,5.1,8.3C142.5,120.7,149.4,136.2,142.5,153.4z"/>
	</g>
</g>
<path class="st1" d="M193,60.4c-1.1-1.2-2.3-2.3-3.3-3.3c-16.9-16-39.6-25.9-64.7-25.9c-51.7,0-93.8,42-93.8,93.8
	c0,25,9.8,47.8,25.9,64.6c1.1,1.2,2.3,2.3,3.3,3.3c16.7,16,39.5,25.9,64.6,25.9c51.7,0,93.8-42,93.8-93.8
	C218.8,100,208.9,77.3,193,60.4z M36,125c0-49.1,39.9-89,89-89c23.7,0,45.2,9.3,61.2,24.4L60.4,186.2C45.3,170.2,36,148.7,36,125z
	 M125,214c-23.7,0-45.2-9.3-61.2-24.4L189.6,63.8c15.2,16,24.4,37.5,24.4,61.2C214,174.1,174.1,214,125,214z"/>
</svg>
