<?xml version="1.0" encoding="utf-8"?>
<!-- Generator: Adobe Illustrator 20.1.0, SVG Export Plug-In . SVG Version: 6.00 Build 0)  -->
<svg version="1.1" id="Layer_1" xmlns="http://www.w3.org/2000/svg" xmlns:xlink="http://www.w3.org/1999/xlink" x="0px" y="0px"
	 viewBox="0 0 160 160" style="enable-background:new 0 0 160 160;" xml:space="preserve">
<style type="text/css">
	.st0{fill:#EEF0F2;}
	.st1{fill:#424D5D;}
	.st2{fill:#A0D3A5;}
</style>
<g>
	<g>
		<circle class="st0" cx="80" cy="80" r="61"/>
		<g>
			<path class="st1" d="M67.5,81.8c-4-4.8-5.4-8.1-6.3-12.7c-0.4-2.2-0.9-8.4,4.2-17.1c0.7-1.2,0.5-2.8-0.6-3.7
				c-1.1-1-2.6-1-3.8-0.1c-5.9,4.4-9.7,11.3-10.6,18.9c-1,8.3,1.6,16.6,7.2,23.3c0.6,0.7,1.1,1.3,1.5,1.9c2.6,3.2,2.3,2.9,3.6,4.8
				c5.5,8.3,6,18.1,1.4,29.3c-0.5,1.3-0.1,2.8,1.1,3.6c1.2,0.8,2.8,0.6,3.8-0.4c3-3.1,5.5-6.9,7.1-10.8
				C83.2,100.6,72.6,87.9,67.5,81.8z M73.6,117.5c-1.8,4.5-4.6,7.9-6.5,9.9c0,0-0.1,0.1-0.2,0c-0.1-0.1-0.1-0.1-0.1-0.2
				c4.5-11,4.8-22.1-1.7-31.9c-1.5-2.2-1.9-2.8-3.7-5c-2.7-3.3-9.5-10.9-8.1-23c0.8-6.9,4.2-13.1,9.5-17c0.1,0,0.1-0.1,0.2,0
				c0.1,0.1,0.1,0.2,0,0.2c-3.9,6.7-5.5,13.7-4.5,19.1c0.8,4.2,2.3,8.2,5.4,12.1C68.2,87.2,80.7,99.3,73.6,117.5z"/>
			<path class="st2" d="M73.6,117.5c-1.8,4.5-4.6,7.9-6.5,9.9c0,0-0.1,0.1-0.2,0c-0.1-0.1-0.1-0.1-0.1-0.2c4.5-11,4.8-22.1-1.7-31.9
				c-1.5-2.2-1.9-2.8-3.7-5c-2.7-3.3-9.5-10.9-8.1-23c0.8-6.9,4.2-13.1,9.5-17c0.1,0,0.1-0.1,0.2,0c0.1,0.1,0.1,0.2,0,0.2
				c-3.9,6.7-5.5,13.7-4.5,19.1c0.8,4.2,2.3,8.2,5.4,12.1C68.2,87.2,80.7,99.3,73.6,117.5z"/>
			<path class="st1" d="M106.5,69.6c-0.6-3.7-4.6-10.5-6.8-13.1c-2.5-3-3.3-5-3.9-7.8c-0.3-1.4-0.5-5.1,2.6-10.5
				c0.6-1,0.4-2.2-0.5-3c-0.9-0.8-2.1-0.8-3-0.1c-3.8,2.9-6.3,7.4-6.9,12.3c-0.6,5.4,1,10.8,4.7,15.1c0.4,0.5,0.7,0.8,1,1.2
				c1.6,2,1.4,1.8,2.2,3c3.4,5.1,3.7,11.2,0.9,18c-0.4,1.1-0.1,2.3,0.9,2.9c1,0.6,2.2,0.5,3.1-0.3c2-2,3.6-4.5,4.6-7
				c0.5-1.2,0.8-1.9,1.1-3.6C106.6,74.9,107.1,73.3,106.5,69.6z M103.6,76.1c-0.2,0.9-0.5,2-0.9,3.1c-0.8,1.9-1.7,3.4-2.6,4.5
				c2.3-6.9,1.6-13.2-1.9-18.5c-0.9-1.4-1.3-1.9-2.4-3.2c-1.7-2.1-5.9-6.8-5-14.2c0.4-3.5,1.9-6.6,4.2-9c-1.8,3.7-2.5,7.5-1.9,10.5
				c0.7,3.3,1.7,5.7,4.5,9.1c2,2.4,5.4,6.5,6.2,11.8c0.1,0.5,0.1,1,0.1,1.5C104,73.3,103.8,74.8,103.6,76.1z"/>
			<path class="st2" d="M103.6,76.1c-0.2,0.9-0.5,2-0.9,3.1c-0.8,1.9-1.7,3.4-2.6,4.5c2.3-6.9,1.6-13.2-1.9-18.5
				c-0.9-1.4-1.3-1.9-2.4-3.2c-1.7-2.1-5.9-6.8-5-14.2c0.4-3.5,1.9-6.6,4.2-9c-1.8,3.7-2.5,7.5-1.9,10.5c0.7,3.3,1.7,5.7,4.5,9.1
				c2,2.4,5.4,6.5,6.2,11.8c0.1,0.5,0.1,1,0.1,1.5C104,73.3,103.8,74.8,103.6,76.1z"/>
			<path class="st1" d="M84.6,69.5c-0.5-0.6-0.9-1-1.2-1.5c-1.6-2.2-2.6-4-3.1-5.5c-0.4-1-0.6-1.7-0.6-2c-0.6-2.4-0.6-4.7-0.5-6
				c0.4-3.2,1.6-6.7,3.6-10.2c0.7-1.1,0.4-2.6-0.6-3.5c-1-0.9-2.4-0.9-3.5-0.1c-5,3.8-8.4,9.8-9.1,16.3c-0.8,7.1,1.4,14.3,6.2,20
				c2.7,3.3,2.9,3.4,4.3,5.7c0,0,0,0,0,0c4.7,7,5.1,15.4,1.2,24.8c-0.5,1.2-0.1,2.6,1,3.3c1.1,0.7,2.6,0.6,3.5-0.4
				c2.6-2.7,4.7-5.9,6.1-9.3C98,85.7,88.9,74.8,84.6,69.5z M89.4,100.1c-1.5,3.7-3.7,6.5-5.3,8.2c3.8-9.4,4-18.8-1.6-27.2
				c-1.2-1.9-1.7-2.4-3.2-4.3c-2.3-2.8-8.1-9.3-6.9-19.5c0.7-5.7,3.5-10.9,7.8-14.3c-1.4,2.1-3.5,5.9-3.9,11
				c-0.3,3.4,0.3,6.1,0.5,7.1c0.1,0.6,0.3,1.1,0.5,1.6c0.1,0.2,0.1,0.4,0.2,0.7c0,0,0,0.1,0.1,0.2c0,0.1,0.1,0.2,0.1,0.3
				c0,0.1,0.1,0.2,0.2,0.4c0.1,0.1,0.1,0.3,0.2,0.4v0c0,0,0,0,0,0c0.1,0.2,0.1,0.3,0.2,0.5c0.1,0.3,0.3,0.6,0.4,0.8
				c0.6,1.2,1.3,2.2,1.8,2.9c0,0.1,0.1,0.1,0.1,0.2c0.2,0.3,0.3,0.5,0.5,0.7C89.4,80.1,93.6,89.6,89.4,100.1z"/>
			<path class="st2" d="M89.4,100.1c-1.5,3.7-3.7,6.5-5.3,8.2c3.8-9.4,4-18.8-1.6-27.2c-1.2-1.9-1.7-2.4-3.2-4.3
				c-2.3-2.8-8.1-9.3-6.9-19.5c0.7-5.7,3.5-10.9,7.8-14.3c-1.4,2.1-3.5,5.9-3.9,11c-0.3,3.4,0.3,6.1,0.5,7.1
				c0.1,0.6,0.3,1.1,0.5,1.6c0.1,0.2,0.1,0.4,0.2,0.7c0,0,0,0.1,0.1,0.2c0,0.1,0.1,0.2,0.1,0.3c0.1,0.3,0.2,0.5,0.3,0.8v0
				c1.1,2.5,2.4,4.3,3.1,5.1C89.4,80.1,93.6,89.6,89.4,100.1z"/>
		</g>
	</g>
	<path class="st1" d="M137.3,25.6c-0.9-1-1.9-1.9-2.8-2.8C120.3,9.3,101.1,1,80,1C36.4,1,1,36.4,1,80c0,21.1,8.3,40.3,21.8,54.4
		c0.9,1,1.9,1.9,2.8,2.8C39.7,150.7,58.9,159,80,159c43.6,0,79-35.4,79-79C159,58.9,150.7,39.8,137.3,25.6z M5,80
		C5,38.6,38.6,5,80,5c20,0,38.1,7.8,51.6,20.6l-106,106C12.8,118.1,5,100,5,80z M80,155c-20,0-38.1-7.8-51.6-20.6l106-106
		C147.2,41.9,155,60,155,80C155,121.4,121.4,155,80,155z"/>
</g>
</svg>
