<?xml version="1.0" encoding="utf-8"?>
<!-- Generator: Adobe Illustrator 20.1.0, SVG Export Plug-In . SVG Version: 6.00 Build 0)  -->
<svg version="1.1" id="Layer_1" xmlns="http://www.w3.org/2000/svg" xmlns:xlink="http://www.w3.org/1999/xlink" x="0px" y="0px"
	 viewBox="0 0 160 160" style="enable-background:new 0 0 160 160;" xml:space="preserve">
<style type="text/css">
	.st0{fill:#EEF0F2;}
	.st1{fill:#90CEA4;}
	.st2{fill:#424D5D;}
	.st3{fill:#FFFFFF;}
</style>
<g>
	<circle class="st0" cx="78.7" cy="82.5" r="61"/>
	<g>
		<path class="st1" d="M105.6,68.7c-0.3,0-0.6-0.1-0.8-0.3L91.5,55.1c-0.5-0.5-0.5-1.2,0-1.7l47-47c2-2,4.6-3.1,7.5-3.1
			s5.5,1.1,7.5,3.1c2,2,3.1,4.6,3.1,7.5s-1.1,5.5-3.1,7.5l-47,47C106.2,68.6,105.9,68.7,105.6,68.7z"/>
		<path class="st2" d="M146,5.3c2.3,0,4.4,0.9,6,2.5c3.3,3.3,3.3,8.7,0,12.1l-46.5,46.5L93.5,54.3L140,7.8
			C141.6,6.2,143.7,5.3,146,5.3 M146,1.3c-3.2,0-6.4,1.2-8.9,3.7l-47,47c-1.2,1.2-1.2,3.3,0,4.5l13.2,13.2c0.6,0.6,1.4,0.9,2.3,0.9
			c0.8,0,1.6-0.3,2.2-0.9l47-47c4.9-4.9,4.9-12.8,0-17.7l0,0C152.4,2.5,149.2,1.3,146,1.3L146,1.3z"/>
	</g>
	<g>
		<path class="st1" d="M80.9,59.7L80.9,59.7c-0.3-0.1-0.5-0.1-0.7-0.2C80.4,59.6,80.6,59.7,80.9,59.7z"/>
	</g>
	<g>
		<g>
			<path class="st1" d="M94.9,68.1l-12-12c-3.2-3.2-7-5.7-11-7.3c-4-1.6-8.3-2.4-12.5-2.4c-8.5,0-17,3.3-23.5,9.7L5,87
				c-2.3,2.3-3.6,5.4-3.6,8.7v19.2c0,0.4,0.1,0.9,0.3,1.3c0.2,0.4,0.4,0.8,0.7,1.1h0l0.8,0.8l1.8,1.8L29.2,144l11.2,11.2l0.8,0.8
				c0.8,0.8,1.7,1.4,2.6,1.8c1.2,0.5,2.5,0.8,3.8,0.8c2.3,0,4.6-0.9,6.4-2.6l41-41C107.9,102.1,107.9,81.1,94.9,68.1z M80.9,59.7
				L80.9,59.7c-0.3-0.1-0.5-0.1-0.7-0.2C80.4,59.6,80.6,59.7,80.9,59.7z M40.5,145.4v2.7c0,0.6-0.7,0.9-1.1,0.5L6.8,116
				c-0.3-0.3-0.3-0.8,0-1l44-44c5.5-5.5,12.8-8.6,20.6-8.6c4.9,0,9.6,1.2,13.8,3.4h0c5.9,11.1,4.2,25.1-5.1,34.4L44.4,136
				C41.9,138.5,40.5,141.9,40.5,145.4z"/>
		</g>
		<g>
			<path class="st1" d="M80.9,59.7L80.9,59.7c-0.3-0.1-0.5-0.1-0.7-0.2C80.4,59.6,80.6,59.7,80.9,59.7z"/>
		</g>
	</g>
	<g>
		<path class="st2" d="M94.9,68.1l-12-12c-3.2-3.2-7-5.7-11-7.3c-4-1.6-8.3-2.4-12.5-2.4c-8.5,0-17,3.3-23.5,9.7L5,87
			c-2.3,2.3-3.6,5.4-3.6,8.7v19.2c0,0.4,0.1,0.9,0.3,1.3c0.2,0.4,0.4,0.8,0.7,1.1l0.8,0.8l1.8,1.8L29.2,144l11.2,11.2l0.8,0.8
			c0.8,0.8,1.7,1.4,2.6,1.8c1.2,0.5,2.5,0.8,3.8,0.8c2.3,0,4.6-0.9,6.4-2.6l41-41C107.9,102.1,107.9,81.1,94.9,68.1z M5,109.1V92.8
			l33.8-33.8c5.5-5.5,12.8-8.6,20.6-8.6s15.1,3,20.7,8.6c0.3,0.3,0.5,0.5,0.8,0.8v0c-0.3-0.1-0.5-0.1-0.7-0.2
			c-0.3-0.1-0.5-0.1-0.8-0.2c-2.6-0.6-5.3-1-7.9-1c-8.5,0-17,3.3-23.5,9.7L6.4,109.7C5.8,110.2,5,109.9,5,109.1z M40.5,145.4v2.7
			c0,0.6-0.7,0.9-1.1,0.5L6.8,116c-0.3-0.3-0.3-0.8,0-1l44-44c5.5-5.5,12.8-8.6,20.6-8.6c4.9,0,9.6,1.2,13.8,3.4h0
			c5.9,11.1,4.2,25.1-5.1,34.4L44.4,136C41.9,138.5,40.5,141.9,40.5,145.4z M92.1,112.2l-40.8,40.8c-0.8,0.8-1.9,1.4-3,1.6
			c-1.6,0.2-3.1-0.3-4.2-1.4l-0.2-0.2v-7.4c0-2.2,0.9-4.4,2.5-6l36.6-36.6c8.9-8.9,11.7-21.6,8.4-32.9c0.3,0.2,0.5,0.5,0.8,0.8
			C103.5,82.3,103.5,100.9,92.1,112.2z"/>
		<path class="st0" d="M80.1,100.2L44.4,136c-2.5,2.5-3.9,5.9-3.9,9.4v2.7c0,0.6-0.7,0.9-1.1,0.5L6.8,116c-0.3-0.3-0.3-0.8,0-1
			l44-44c5.5-5.5,12.8-8.6,20.6-8.6c4.9,0,9.6,1.2,13.8,3.4h0C91.1,76.9,89.4,90.9,80.1,100.2z"/>
		<path class="st2" d="M80.9,59.7L80.9,59.7c-0.3-0.1-0.5-0.1-0.7-0.2C80.4,59.6,80.6,59.7,80.9,59.7z"/>
	</g>
	<g>
		<path class="st3" d="M44.6,115.9c-1.1,0-2.1-0.4-2.9-1.1c-0.2-0.2-0.4-0.3-0.7-0.3c-0.1,0-0.2,0-0.3,0c-0.3,0.1-0.6,0.1-0.9,0.1
			c-1.7,0-3.1-1.4-3.1-3.1c0-0.4,0.1-0.8,0.2-1.2c0.2-0.4,0-0.9-0.3-1.2c-1.2-0.8-1.9-2.2-1.9-3.7c0-2.5,2-4.5,4.5-4.5
			c0.3,0,0.7,0,1,0.1c0.1,0,0.1,0,0.2,0c0.2,0,0.5-0.1,0.6-0.2c0.2-0.2,0.4-0.5,0.4-0.8l0-0.1c0-0.8,0.1-1.5,0.4-2.2l0.8-1.5
			c1.2-1.6,3-2.6,5-2.6c2.8,0,5.2,1.9,6,4.6c0.1,0.4,0.5,0.7,1,0.7c0,0,0.1,0,0.1,0c0.1,0,0.3,0,0.4,0c3,0,5.5,2.5,5.5,5.5
			c0,3-2.4,5.4-5.4,5.5l-2.3,0c-0.4,0-0.7,0.2-0.9,0.5c-0.5,0.9-1.3,1.4-2.3,1.5c-0.4,0-0.8,0.3-0.9,0.7
			C48.3,114.6,46.5,115.9,44.6,115.9z"/>
		<path class="st2" d="M47.6,94.8c2.3,0,4.4,1.6,5,3.8c0.2,0.9,1,1.5,1.9,1.5c0,0,0.1,0,0.1,0c0.1,0,0.2,0,0.3,0
			c2.5,0,4.5,2,4.5,4.5c0,2.4-2,4.4-4.4,4.5c0,0,0,0-0.1,0h-2.2c-0.7,0-1.4,0.4-1.8,1c-0.3,0.5-0.9,0.9-1.5,0.9
			c-0.8,0.1-1.6,0.6-1.8,1.5c-0.4,1.4-1.7,2.4-3.2,2.4c-0.8,0-1.6-0.3-2.2-0.9c-0.4-0.3-0.9-0.5-1.3-0.5c-0.2,0-0.4,0-0.6,0.1
			c-0.2,0.1-0.4,0.1-0.6,0.1c-1.2,0-2.1-0.9-2.1-2.1c0-0.3,0.1-0.6,0.2-0.8c0.4-0.9,0.1-1.9-0.7-2.4c-0.9-0.7-1.5-1.7-1.5-2.8
			c0-1.9,1.6-3.5,3.5-3.5c0.3,0,0.5,0,0.8,0.1c0.1,0,0.3,0,0.4,0c0.5,0,0.9-0.2,1.3-0.5c0.5-0.4,0.7-1,0.7-1.6l0-0.1
			c0-0.6,0.1-1.2,0.3-1.8l0.7-1.3C44.4,95.6,46,94.8,47.6,94.8 M47.6,92.8c-2.4,0-4.6,1.2-5.9,3l-0.9,1.6c-0.3,0.8-0.5,1.7-0.5,2.6
			c0,0.1,0,0.1,0,0.2c-0.4-0.1-0.8-0.1-1.2-0.1c-3,0-5.5,2.4-5.5,5.5c0,1.8,0.9,3.5,2.3,4.5c-0.2,0.5-0.3,1-0.3,1.6
			c0,2.3,1.8,4.1,4.1,4.1c0.4,0,0.8-0.1,1.2-0.2c0.9,0.9,2.2,1.4,3.6,1.4c2.4,0,4.5-1.6,5.1-3.9c1.3-0.1,2.5-0.9,3.1-2h2.3v0
			c3.5,0,6.4-2.9,6.4-6.5c0-3.6-2.9-6.5-6.5-6.5c-0.2,0-0.3,0-0.5,0C53.7,95.1,50.9,92.8,47.6,92.8L47.6,92.8z"/>
	</g>
</g>
</svg>
