<?xml version="1.0" encoding="utf-8"?>
<!-- Generator: Adobe Illustrator 20.1.0, SVG Export Plug-In . SVG Version: 6.00 Build 0)  -->
<svg version="1.1" id="Layer_1" xmlns="http://www.w3.org/2000/svg" xmlns:xlink="http://www.w3.org/1999/xlink" x="0px" y="0px"
	 viewBox="0 0 250 250" style="enable-background:new 0 0 250 250;" xml:space="preserve">
<style type="text/css">
	.st0{fill:#EEF0F2;}
	.st1{fill:#8BC63F;}
	.st2{fill:#424D5D;}
	.st3{fill:#FFFFFF;}
</style>
<circle class="st0" cx="124.7" cy="124.7" r="94.1"/>
<g>
	<g>
		<path class="st1" d="M155.6,111.6c-0.4,0-0.7-0.1-1-0.4l-15.8-15.8c-0.6-0.6-0.6-1.4,0-2l56-56c2.4-2.4,5.5-3.7,8.9-3.7
			s6.5,1.3,8.9,3.7c2.4,2.4,3.7,5.5,3.7,8.9s-1.3,6.5-3.7,8.9l-56,56C156.3,111.5,155.9,111.6,155.6,111.6z"/>
		<path class="st2" d="M203.7,36.1c2.7,0,5.2,1.1,7.1,3c3.9,3.9,3.9,10.4,0,14.4l-55.4,55.4l-14.3-14.4l55.4-55.4
			C198.4,37.2,200.9,36.1,203.7,36.1 M203.7,31.3c-3.8,0-7.6,1.4-10.6,4.4l-56,56c-1.4,1.4-1.4,3.9,0,5.4l15.7,15.7
			c0.7,0.7,1.7,1.1,2.7,1.1c1,0,1.9-0.4,2.6-1.1l56-56c5.8-5.8,5.8-15.2,0-21.1l0,0C211.3,32.8,207.5,31.3,203.7,31.3L203.7,31.3z"
			/>
	</g>
	<g>
		<path class="st1" d="M126.1,100.9L126.1,100.9c-0.4-0.1-0.6-0.1-0.8-0.2C125.6,100.8,125.8,100.9,126.1,100.9z"/>
	</g>
	<g>
		<g>
			<path class="st1" d="M142.8,110.9l-14.3-14.3c-3.8-3.8-8.3-6.8-13.1-8.7c-4.8-1.9-9.9-2.9-14.9-2.9c-10.1,0-20.2,3.9-28,11.5
				l-36.8,36.8c-2.7,2.7-4.3,6.4-4.3,10.4v22.9c0,0.5,0.1,1.1,0.4,1.5c0.2,0.5,0.5,1,0.8,1.3l0,0l1,1l2.1,2.1l28.8,28.7l13.3,13.3
				l1,1c1,1,2,1.7,3.1,2.1c1.4,0.6,3,1,4.5,1c2.7,0,5.5-1.1,7.6-3.1l48.8-48.8C158.3,151.4,158.3,126.4,142.8,110.9z M126.1,100.9
				L126.1,100.9c-0.4-0.1-0.6-0.1-0.8-0.2C125.6,100.8,125.8,100.9,126.1,100.9z M78,202.9v3.2c0,0.7-0.8,1.1-1.3,0.6l-38.8-38.8
				c-0.4-0.4-0.4-1,0-1.2l52.4-52.4c6.5-6.5,15.2-10.2,24.5-10.2c5.8,0,11.4,1.4,16.4,4l0,0c7,13.2,5,29.9-6.1,41l-42.5,42.6
				C79.7,194.7,78,198.8,78,202.9z"/>
		</g>
		<g>
			<path class="st1" d="M126.1,100.9L126.1,100.9c-0.4-0.1-0.6-0.1-0.8-0.2C125.6,100.8,125.8,100.9,126.1,100.9z"/>
		</g>
	</g>
	<g>
		<path class="st2" d="M142.8,110.9l-14.3-14.3c-3.8-3.8-8.3-6.8-13.1-8.7c-4.8-1.9-9.9-2.9-14.9-2.9c-10.1,0-20.2,3.9-28,11.5
			l-36.8,36.8c-2.7,2.7-4.3,6.4-4.3,10.4v22.9c0,0.5,0.1,1.1,0.4,1.5c0.2,0.5,0.5,1,0.8,1.3l1,1l2.1,2.1l28.8,28.7l13.3,13.3l1,1
			c1,1,2,1.7,3.1,2.1c1.4,0.6,3,1,4.5,1c2.7,0,5.5-1.1,7.6-3.1l48.8-48.8C158.3,151.4,158.3,126.4,142.8,110.9z M35.8,159.7v-19.4
			L76,100.1c6.5-6.5,15.2-10.2,24.5-10.2s18,3.6,24.6,10.2c0.4,0.4,0.6,0.6,1,1l0,0c-0.4-0.1-0.6-0.1-0.8-0.2
			c-0.4-0.1-0.6-0.1-1-0.2c-3.1-0.7-6.3-1.2-9.4-1.2c-10.1,0-20.2,3.9-28,11.5l-49.5,49.5C36.7,161,35.8,160.7,35.8,159.7z
			 M78,202.9v3.2c0,0.7-0.8,1.1-1.3,0.6l-38.8-38.8c-0.4-0.4-0.4-1,0-1.2l52.4-52.4c6.5-6.5,15.2-10.2,24.5-10.2
			c5.8,0,11.4,1.4,16.4,4l0,0c7,13.2,5,29.9-6.1,41l-42.5,42.6C79.7,194.7,78,198.8,78,202.9z M139.5,163.4L90.9,212
			c-1,1-2.3,1.7-3.6,1.9c-1.9,0.2-3.7-0.4-5-1.7l-0.2-0.2v-8.8c0-2.6,1.1-5.2,3-7.1l43.6-43.6c10.6-10.6,13.9-25.7,10-39.2
			c0.4,0.2,0.6,0.6,1,1C153.1,127.8,153.1,149.9,139.5,163.4z"/>
		<path class="st0" d="M125.2,149.1l-42.5,42.6c-3,3-4.6,7-4.6,11.2v3.2c0,0.7-0.8,1.1-1.3,0.6l-38.8-38.8c-0.4-0.4-0.4-1,0-1.2
			l52.4-52.4c6.5-6.5,15.2-10.2,24.5-10.2c5.8,0,11.4,1.4,16.4,4l0,0C138.3,121.4,136.3,138,125.2,149.1z"/>
		<path class="st2" d="M126.1,100.9L126.1,100.9c-0.4-0.1-0.6-0.1-0.8-0.2C125.6,100.8,125.8,100.9,126.1,100.9z"/>
	</g>
	<g>
		<path class="st3" d="M81.2,174.3c-2,0-3.7-0.7-5.2-2c-0.4-0.4-0.7-0.5-1.2-0.5c-0.2,0-0.4,0-0.5,0c-0.5,0.2-1.1,0.2-1.6,0.2
			c-3,0-5.5-2.5-5.5-5.5c0-0.7,0.2-1.4,0.4-2.1c0.4-0.7,0-1.6-0.5-2.1c-2.1-1.4-3.4-3.9-3.4-6.6c0-4.5,3.6-8,8-8
			c0.5,0,1.2,0,1.8,0.2c0.2,0,0.2,0,0.4,0c0.4,0,0.9-0.2,1.1-0.4c0.4-0.4,0.7-0.9,0.7-1.4v-0.2c0-1.4,0.2-2.7,0.7-3.9l1.4-2.7
			c2.1-2.8,5.3-4.6,8.9-4.6c5,0,9.3,3.4,10.7,8.2c0.2,0.7,0.9,1.2,1.8,1.2h0.2c0.2,0,0.5,0,0.7,0c5.3,0,9.8,4.5,9.8,9.8
			s-4.3,9.6-9.6,9.8H96c-0.7,0-1.2,0.4-1.6,0.9c-0.9,1.6-2.3,2.5-4.1,2.7c-0.7,0-1.4,0.5-1.6,1.2C87.8,172,84.6,174.3,81.2,174.3z"
			/>
		<path class="st2" d="M86.6,136.7c4.1,0,7.8,2.8,8.9,6.8c0.4,1.6,1.8,2.7,3.4,2.7H99c0.2,0,0.4,0,0.5,0c4.5,0,8,3.6,8,8
			c0,4.3-3.6,7.8-7.8,8c0,0,0,0-0.2,0h-3.9c-1.2,0-2.5,0.7-3.2,1.8c-0.5,0.9-1.6,1.6-2.7,1.6c-1.4,0.2-2.8,1.1-3.2,2.7
			c-0.7,2.5-3,4.3-5.7,4.3c-1.4,0-2.8-0.5-3.9-1.6c-0.7-0.5-1.6-0.9-2.3-0.9c-0.4,0-0.7,0-1.1,0.2s-0.7,0.2-1.1,0.2
			c-2.1,0-3.7-1.6-3.7-3.7c0-0.5,0.2-1.1,0.4-1.4c0.7-1.6,0.2-3.4-1.2-4.3c-1.6-1.2-2.7-3-2.7-5c0-3.4,2.8-6.2,6.2-6.2
			c0.5,0,0.9,0,1.4,0.2c0.2,0,0.5,0,0.7,0c0.9,0,1.6-0.4,2.3-0.9c0.9-0.7,1.2-1.8,1.2-2.8V146c0-1.1,0.2-2.1,0.5-3.2l1.2-2.3
			C80.9,138.1,83.7,136.7,86.6,136.7 M86.6,133.2c-4.3,0-8.2,2.1-10.5,5.3l-1.6,2.8c-0.5,1.4-0.9,3-0.9,4.6c0,0.2,0,0.2,0,0.4
			c-0.7-0.2-1.4-0.2-2.1-0.2c-5.3,0-9.8,4.3-9.8,9.8c0,3.2,1.6,6.2,4.1,8c-0.4,0.9-0.5,1.8-0.5,2.8c0,4.1,3.2,7.3,7.3,7.3
			c0.7,0,1.4-0.2,2.1-0.4c1.6,1.6,3.9,2.5,6.4,2.5c4.3,0,8-2.8,9.1-6.9c2.3-0.2,4.5-1.6,5.5-3.6h4.1l0,0c6.2,0,11.4-5.2,11.4-11.6
			c0-6.4-5.2-11.6-11.6-11.6c-0.4,0-0.5,0-0.9,0C97.4,137.3,92.4,133.2,86.6,133.2L86.6,133.2z"/>
	</g>
</g>
</svg>
