<?xml version="1.0" encoding="utf-8"?>
<!-- Generator: Adobe Illustrator 20.1.0, SVG Export Plug-In . SVG Version: 6.00 Build 0)  -->
<svg version="1.1" id="Layer_1" xmlns="http://www.w3.org/2000/svg" xmlns:xlink="http://www.w3.org/1999/xlink" x="0px" y="0px"
	 viewBox="0 0 160 160" style="enable-background:new 0 0 160 160;" xml:space="preserve">
<style type="text/css">
	.st0{fill:#EEF0F2;}
	.st1{fill:#FFFFFF;}
	.st2{fill:#424D5D;}
	.st3{fill:#A0D3A5;}
</style>
<g>
	<g>
		<circle class="st0" cx="80" cy="77.2" r="61"/>
		<g>
			<path class="st1" d="M86.7,15.7c-2.2-2.5-4.3-5-6.2-7.3c-1.9,2.3-4,4.7-6.2,7.4c-13.4,15.5-31.9,37-31.9,53.6
				c0,10.5,4.3,20.1,11.2,27c7,6.9,16.4,11.2,27,11.2c10.5,0,20-4.3,27-11.3c6.9-7,11.2-16.4,11.2-27
				C118.7,52.6,100.1,31.2,86.7,15.7z M80.7,99.1c-8,0-15.3-3.3-20.3-8.3C55.2,85.5,52,78.3,52,70.3c0-1.5,1.2-2.6,2.6-2.6
				c1.5,0,2.6,1.2,2.6,2.6c0,6.5,2.6,12.4,6.9,16.6c4.2,4.2,10.1,6.9,16.6,6.9c1.5,0,2.6,1.2,2.6,2.6C83.4,97.9,82.2,99.1,80.7,99.1
				z"/>
			<path class="st2" d="M83.4,96.5c0,1.5-1.2,2.6-2.6,2.6c-8,0-15.3-3.3-20.3-8.3C55.2,85.5,52,78.3,52,70.3c0-1.5,1.2-2.6,2.6-2.6
				c1.5,0,2.6,1.2,2.6,2.6c0,6.5,2.6,12.4,6.9,16.6c4.2,4.2,10.1,6.9,16.6,6.9C82.2,93.8,83.4,95,83.4,96.5z"/>
			<path class="st2" d="M90.9,12.4c-3.2-3.7-6-7-8.2-9.7c-0.1-0.2-0.3-0.3-0.4-0.4c-1.2-1-2.8-0.7-3.8,0.4c-2.2,2.7-5.1,6-8.2,9.7
				C56.3,28.5,37,50.8,37,69.5c0,12,4.8,22.9,12.8,30.8c7.9,7.8,18.8,12.8,30.8,12.8s22.9-4.9,30.8-12.8
				c7.9-7.9,12.8-18.8,12.8-30.8C124.1,50.8,104.8,28.5,90.9,12.4z M107.5,96.4c-7,7-16.4,11.3-27,11.3c-10.5,0-20-4.3-27-11.2
				c-6.8-6.8-11.2-16.4-11.2-27c0-16.6,18.5-38.1,31.9-53.6c2.2-2.6,4.3-5.1,6.2-7.4c1.9,2.3,4,4.7,6.2,7.3
				c13.4,15.5,31.9,36.9,31.9,53.6C118.7,79.9,114.4,89.4,107.5,96.4z"/>
		</g>
	</g>
	<g>
		<path class="st3" d="M144,99.3c-7.2,0-13.1-5.9-13.1-13.1c0-7.2,5.9-13.1,13.1-13.1c7.2,0,13.1,5.9,13.1,13.1
			C157.1,93.4,151.2,99.3,144,99.3z"/>
		<path class="st2" d="M144,74.6c6.4,0,11.6,5.2,11.6,11.6s-5.2,11.6-11.6,11.6c-6.4,0-11.6-5.2-11.6-11.6S137.6,74.6,144,74.6
			 M144,71.6c-8.1,0-14.6,6.5-14.6,14.6s6.5,14.6,14.6,14.6s14.6-6.5,14.6-14.6S152.1,71.6,144,71.6L144,71.6z"/>
	</g>
	<g>
		<path class="st3" d="M93,154.8c-7.2,0-13.1-5.9-13.1-13.1c0-7.2,5.9-13.1,13.1-13.1c7.2,0,13.1,5.9,13.1,13.1
			C106.1,148.9,100.2,154.8,93,154.8z"/>
		<path class="st2" d="M93,130.1c6.4,0,11.6,5.2,11.6,11.6s-5.2,11.6-11.6,11.6s-11.6-5.2-11.6-11.6S86.6,130.1,93,130.1 M93,127.1
			c-8.1,0-14.6,6.5-14.6,14.6S85,156.3,93,156.3s14.6-6.5,14.6-14.6S101.1,127.1,93,127.1L93,127.1z"/>
	</g>
	<g>
		<path class="st3" d="M14.8,95.8c-6.6,0-11.9-5.3-11.9-11.9s5.3-11.9,11.9-11.9c6.6,0,11.9,5.3,11.9,11.9S21.3,95.8,14.8,95.8z"/>
		<path class="st2" d="M14.8,73.6c5.7,0,10.4,4.7,10.4,10.4s-4.7,10.4-10.4,10.4S4.4,89.7,4.4,83.9S9,73.6,14.8,73.6 M14.8,70.6
			c-7.4,0-13.4,6-13.4,13.4c0,7.4,6,13.4,13.4,13.4s13.4-6,13.4-13.4C28.2,76.5,22.2,70.6,14.8,70.6L14.8,70.6z"/>
	</g>
	<g>
		<path class="st3" d="M146.7,131.5c-5.7,0-10.4-4.7-10.4-10.4c0-5.7,4.7-10.4,10.4-10.4s10.4,4.7,10.4,10.4
			C157.1,126.9,152.4,131.5,146.7,131.5z"/>
		<path class="st2" d="M146.7,112.2c4.9,0,8.9,4,8.9,8.9s-4,8.9-8.9,8.9s-8.9-4-8.9-8.9S141.8,112.2,146.7,112.2 M146.7,109.2
			c-6.6,0-11.9,5.3-11.9,11.9s5.3,11.9,11.9,11.9c6.6,0,11.9-5.3,11.9-11.9S153.3,109.2,146.7,109.2L146.7,109.2z"/>
	</g>
	<g>
		<path class="st3" d="M39.3,157.2c-5.7,0-10.4-4.7-10.4-10.4c0-5.7,4.7-10.4,10.4-10.4c5.7,0,10.4,4.7,10.4,10.4
			C49.8,152.5,45.1,157.2,39.3,157.2z"/>
		<path class="st2" d="M39.3,137.8c4.9,0,8.9,4,8.9,8.9s-4,8.9-8.9,8.9s-8.9-4-8.9-8.9S34.4,137.8,39.3,137.8 M39.3,134.8
			c-6.6,0-11.9,5.3-11.9,11.9s5.3,11.9,11.9,11.9s11.9-5.3,11.9-11.9S45.9,134.8,39.3,134.8L39.3,134.8z"/>
	</g>
	<g>
		<path class="st3" d="M12,131.8c-5.1,0-9.2-4.1-9.2-9.2s4.1-9.2,9.2-9.2s9.2,4.1,9.2,9.2S17.1,131.8,12,131.8z"/>
		<path class="st2" d="M12,115c4.2,0,7.7,3.4,7.7,7.7c0,4.2-3.4,7.7-7.7,7.7s-7.7-3.4-7.7-7.7C4.4,118.4,7.8,115,12,115 M12,112
			c-5.9,0-10.7,4.8-10.7,10.7c0,5.9,4.8,10.7,10.7,10.7c5.9,0,10.7-4.8,10.7-10.7C22.7,116.8,17.9,112,12,112L12,112z"/>
	</g>
	<g>
		<circle class="st3" cx="116.2" cy="118.8" r="8.3"/>
		<path class="st2" d="M116.2,112c3.7,0,6.8,3,6.8,6.8s-3,6.8-6.8,6.8s-6.8-3-6.8-6.8S112.5,112,116.2,112 M116.2,109
			c-5.4,0-9.8,4.4-9.8,9.8c0,5.4,4.4,9.8,9.8,9.8c5.4,0,9.8-4.4,9.8-9.8C126,113.4,121.6,109,116.2,109L116.2,109z"/>
	</g>
	<g>
		<circle class="st3" cx="62.2" cy="128.6" r="8.3"/>
		<path class="st2" d="M62.2,121.8c3.7,0,6.8,3,6.8,6.8s-3,6.8-6.8,6.8c-3.7,0-6.8-3-6.8-6.8S58.5,121.8,62.2,121.8 M62.2,118.8
			c-5.4,0-9.8,4.4-9.8,9.8c0,5.4,4.4,9.8,9.8,9.8s9.8-4.4,9.8-9.8C72,123.2,67.6,118.8,62.2,118.8L62.2,118.8z"/>
	</g>
	<g>
		<circle class="st3" cx="130" cy="146" r="6.9"/>
		<path class="st2" d="M130,140.7c3,0,5.4,2.4,5.4,5.4s-2.4,5.4-5.4,5.4c-3,0-5.4-2.4-5.4-5.4S127,140.7,130,140.7 M130,137.7
			c-4.6,0-8.4,3.7-8.4,8.4s3.7,8.4,8.4,8.4c4.6,0,8.4-3.7,8.4-8.4S134.6,137.7,130,137.7L130,137.7z"/>
	</g>
	<g>
		<circle class="st3" cx="34.1" cy="107.4" r="6.8"/>
		<path class="st2" d="M34.1,102.1c2.9,0,5.3,2.4,5.3,5.3c0,2.9-2.4,5.3-5.3,5.3s-5.3-2.4-5.3-5.3C28.9,104.5,31.2,102.1,34.1,102.1
			 M34.1,99.1c-4.6,0-8.3,3.7-8.3,8.3c0,4.6,3.7,8.3,8.3,8.3s8.3-3.7,8.3-8.3C42.4,102.8,38.7,99.1,34.1,99.1L34.1,99.1z"/>
	</g>
</g>
</svg>
