<?xml version="1.0" encoding="utf-8"?>
<!-- Generator: Adobe Illustrator 20.1.0, SVG Export Plug-In . SVG Version: 6.00 Build 0)  -->
<svg version="1.1" id="Layer_1" xmlns="http://www.w3.org/2000/svg" xmlns:xlink="http://www.w3.org/1999/xlink" x="0px" y="0px"
	 viewBox="0 0 250 250" style="enable-background:new 0 0 250 250;" xml:space="preserve">
<style type="text/css">
	.st0{fill:#EEF0F2;}
	.st1{fill:#FFFFFF;}
	.st2{fill:#424D5D;}
	.st3{fill:#8BC63F;}
</style>
<circle class="st0" cx="124.7" cy="124.7" r="94.1"/>
<g>
	<path class="st1" d="M133.1,47.7c-2.6-3-5.2-6-7.4-8.8c-2.3,2.8-4.8,5.6-7.4,8.9C102.2,66.4,80,92.2,80,112.1
		c0,12.6,5.2,24.1,13.4,32.4c8.4,8.3,19.7,13.4,32.4,13.4c12.6,0,24-5.2,32.4-13.5c8.3-8.4,13.4-19.7,13.4-32.4
		C171.5,92,149.2,66.3,133.1,47.7z M125.9,147.7c-9.6,0-18.3-4-24.3-10c-6.2-6.4-10.1-15-10.1-24.6c0-1.8,1.4-3.1,3.1-3.1
		c1.8,0,3.1,1.4,3.1,3.1c0,7.8,3.1,14.9,8.3,19.9c5,5,12.1,8.3,19.9,8.3c1.8,0,3.1,1.4,3.1,3.1C129.1,146.3,127.7,147.7,125.9,147.7
		z"/>
	<path class="st2" d="M129.1,144.6c0,1.8-1.4,3.1-3.1,3.1c-9.6,0-18.3-4-24.3-10c-6.4-6.4-10.2-15-10.2-24.6c0-1.8,1.4-3.1,3.1-3.1
		c1.8,0,3.1,1.4,3.1,3.1c0,7.8,3.1,14.9,8.3,19.9c5,5,12.1,8.3,19.9,8.3C127.7,141.4,129.1,142.8,129.1,144.6z"/>
	<path class="st2" d="M138.1,43.8c-3.8-4.4-7.2-8.4-9.8-11.6c-0.1-0.2-0.4-0.4-0.5-0.5c-1.4-1.2-3.4-0.8-4.6,0.5
		c-2.6,3.2-6.1,7.2-9.8,11.6c-16.8,19.3-39.9,46-39.9,68.5c0,14.4,5.8,27.5,15.3,36.9c9.5,9.4,22.5,15.3,36.9,15.3
		c14.4,0,27.5-5.9,36.9-15.3c9.5-9.5,15.3-22.5,15.3-36.9C177.9,89.8,154.8,63.1,138.1,43.8z M158,144.5
		c-8.4,8.4-19.7,13.5-32.4,13.5c-12.6,0-24-5.2-32.4-13.4c-8.2-8.2-13.4-19.7-13.4-32.4c0-19.9,22.2-45.7,38.3-64.3
		c2.6-3.1,5.2-6.1,7.4-8.9c2.3,2.8,4.8,5.6,7.4,8.8c16.1,18.6,38.3,44.2,38.3,64.3C171.5,124.7,166.3,136.1,158,144.5z"/>
</g>
<g>
	<path class="st3" d="M201.8,148c-8.6,0-15.7-7.1-15.7-15.7s7.1-15.7,15.7-15.7c8.6,0,15.7,7.1,15.7,15.7S210.4,148,201.8,148z"/>
	<path class="st2" d="M201.8,118.4c7.7,0,13.9,6.2,13.9,13.9s-6.2,13.9-13.9,13.9c-7.7,0-13.9-6.2-13.9-13.9
		S194.1,118.4,201.8,118.4 M201.8,114.8c-9.7,0-17.5,7.8-17.5,17.5s7.8,17.5,17.5,17.5s17.5-7.8,17.5-17.5S211.5,114.8,201.8,114.8
		L201.8,114.8z"/>
</g>
<path class="st3" d="M140.6,214.5c-8.6,0-15.7-7.1-15.7-15.7s7.1-15.7,15.7-15.7c8.6,0,15.7,7.1,15.7,15.7
	C156.4,207.4,149.3,214.5,140.6,214.5z"/>
<path class="st2" d="M140.6,184.9c7.7,0,13.9,6.2,13.9,13.9s-6.2,13.9-13.9,13.9c-7.7,0-13.9-6.2-13.9-13.9S133,184.9,140.6,184.9
	 M140.6,181.3c-9.7,0-17.5,7.8-17.5,17.5s7.9,17.5,17.5,17.5c9.6,0,17.5-7.8,17.5-17.5C158.2,189.1,150.4,181.3,140.6,181.3
	L140.6,181.3z"/>
<path class="st3" d="M46.9,143.8c-7.9,0-14.3-6.4-14.3-14.3s6.4-14.3,14.3-14.3s14.3,6.4,14.3,14.3S54.7,143.8,46.9,143.8z"/>
<path class="st2" d="M46.9,117.2c6.8,0,12.5,5.6,12.5,12.5s-5.6,12.5-12.5,12.5s-12.5-5.6-12.5-12.6S39.9,117.2,46.9,117.2
	 M46.9,113.6c-8.9,0-16.1,7.2-16.1,16.1s7.2,16.1,16.1,16.1s16.1-7.2,16.1-16.1C62.9,120.6,55.8,113.6,46.9,113.6L46.9,113.6z"/>
<g>
	<path class="st3" d="M205,186.6c-6.8,0-12.5-5.6-12.5-12.5s5.6-12.5,12.5-12.5c6.8,0,12.5,5.6,12.5,12.5
		C217.5,181.1,211.9,186.6,205,186.6z"/>
	<path class="st2" d="M205,163.4c5.9,0,10.7,4.8,10.7,10.7c0,5.9-4.8,10.7-10.7,10.7c-5.9,0-10.7-4.8-10.7-10.7
		C194.4,168.2,199.2,163.4,205,163.4 M205,159.8c-7.9,0-14.3,6.4-14.3,14.3s6.4,14.3,14.3,14.3c7.9,0,14.3-6.4,14.3-14.3
		S213,159.8,205,159.8L205,159.8z"/>
</g>
<path class="st3" d="M76.3,217.4c-6.8,0-12.5-5.6-12.5-12.5c0-6.8,5.6-12.5,12.5-12.5s12.5,5.6,12.5,12.5
	C88.8,211.8,83.2,217.4,76.3,217.4z"/>
<path class="st2" d="M76.3,194.1c5.9,0,10.7,4.8,10.7,10.7c0,5.9-4.8,10.7-10.7,10.7s-10.7-4.8-10.7-10.7
	C65.6,198.9,70.4,194.1,76.3,194.1 M76.3,190.5c-7.9,0-14.3,6.4-14.3,14.3s6.4,14.3,14.3,14.3s14.3-6.4,14.3-14.3
	S84.2,190.5,76.3,190.5L76.3,190.5z"/>
<path class="st3" d="M43.5,186.9c-6.1,0-11-4.9-11-11c0-6.1,4.9-11,11-11s11,4.9,11,11C54.6,182,49.6,186.9,43.5,186.9z"/>
<path class="st2" d="M43.5,166.8c5,0,9.2,4.1,9.2,9.2c0,5-4.1,9.2-9.2,9.2s-9.2-4.1-9.2-9.2C34.4,170.9,38.5,166.8,43.5,166.8
	 M43.5,163.2c-7.1,0-12.8,5.8-12.8,12.8s5.8,12.8,12.8,12.8s12.8-5.8,12.8-12.8S50.6,163.2,43.5,163.2L43.5,163.2z"/>
<g>
	<circle class="st3" cx="168.5" cy="171.3" r="10"/>
	<path class="st2" d="M168.5,163.2c4.4,0,8.2,3.6,8.2,8.2c0,4.6-3.6,8.2-8.2,8.2s-8.2-3.6-8.2-8.2
		C160.3,166.8,164,163.2,168.5,163.2 M168.5,159.6c-6.5,0-11.8,5.3-11.8,11.8c0,6.5,5.3,11.8,11.8,11.8s11.8-5.3,11.8-11.8
		C180.2,164.9,174.9,159.6,168.5,159.6L168.5,159.6z"/>
</g>
<circle class="st3" cx="103.7" cy="183.1" r="10"/>
<path class="st2" d="M103.7,174.9c4.4,0,8.2,3.6,8.2,8.2c0,4.6-3.6,8.2-8.2,8.2c-4.4,0-8.2-3.6-8.2-8.2
	C95.6,178.5,99.3,174.9,103.7,174.9 M103.7,171.3c-6.5,0-11.8,5.3-11.8,11.8s5.3,11.8,11.8,11.8s11.8-5.3,11.8-11.8
	C115.5,176.6,110.2,171.3,103.7,171.3L103.7,171.3z"/>
<g>
	<circle class="st3" cx="185" cy="204" r="8.3"/>
	<path class="st2" d="M185,197.6c3.6,0,6.5,2.9,6.5,6.5s-2.9,6.5-6.5,6.5s-6.5-2.9-6.5-6.5S181.4,197.6,185,197.6 M185,194
		c-5.5,0-10.1,4.4-10.1,10.1s4.4,10.1,10.1,10.1c5.5,0,10.1-4.4,10.1-10.1S190.5,194,185,194L185,194z"/>
</g>
<circle class="st3" cx="70" cy="157.7" r="8.2"/>
<path class="st2" d="M70,151.3c3.5,0,6.4,2.9,6.4,6.4c0,3.5-2.9,6.4-6.4,6.4c-3.5,0-6.4-2.9-6.4-6.4C63.8,154.2,66.5,151.3,70,151.3
	 M70,147.7c-5.5,0-10,4.4-10,10s4.4,10,10,10c5.5,0,10-4.4,10-10C80,152.2,75.5,147.7,70,147.7L70,147.7z"/>
</svg>
