<?xml version="1.0" encoding="utf-8"?>
<!-- Generator: Adobe Illustrator 24.0.1, SVG Export Plug-In . SVG Version: 6.00 Build 0)  -->
<svg version="1.1" id="Layer_1" xmlns="http://www.w3.org/2000/svg" xmlns:xlink="http://www.w3.org/1999/xlink" x="0px" y="0px"
	 viewBox="0 0 283.5 101.8" style="enable-background:new 0 0 283.5 101.8;" xml:space="preserve">
<style type="text/css">
	.st0{clip-path:url(#SVGID_2_);fill:none;stroke:#333333;stroke-width:5.8;}
	.st1{fill:#FFFFFF;}
</style>
<g>
	<defs>
		<path id="SVGID_1_" d="M280.9,16.5H267c-15,0-38,0.2-52.9,1.9c-8.8,1-17.6,1.3-26.4,1c-3.5-0.1-6.9-0.7-9.8-2.7
			c-2.1-1.6-4.9-1.8-7.1-0.5c-1.5,0.9-3,1.8-4.4,2.9c-1.9,1.3-3.7,2.6-5.6,3.9c-1.4,0.9-2.2,0.2-2.4-1.1c-0.5-2.6-0.7-5.3-0.8-8
			c0-3.8,0.6-7.6,0.7-11.4c0-0.9-0.5-1.8-1.3-2.3c-0.9-0.2-1.8,0.1-2.5,0.6c-5.1,4.2-7.7,9.9-9.8,15.9c-0.2,0.6-0.5,1.3-0.8,1.9
			c-0.4-2.5-0.3-5-0.4-7.4c0-0.9-0.5-1.7-1.1-2.2c-0.9-0.1-1.8,0.1-2.5,0.7c-1.1,0.8-2.1,1.7-3,2.6c-3.9,3.4-7.7,6.8-12.5,9.1
			c-3.3,1.5-6,0.6-7-2.6c-0.6-1.9-1-3.9-1.2-5.9c-0.3-1.8-1.7-2.6-3.2-1.7c-0.5,0.3-0.9,0.7-1.3,1.1c-2.8,2.6-5.4,5.3-8.3,7.8
			c-2.2,2-4.6,1.6-6.4-0.7c-0.6-0.8-1.1-1.7-1.5-2.6c-1-2.2-1.8-4.4-2.9-6.6c-1-1.9-2.4-2-3.7-0.3c-0.8,1.1-1.6,2.3-2.4,3.4
			c-2.3,2.9-4.6,5.8-7.1,9.1c-0.8-1-1.4-2-2-3.1c-0.8-2-1.5-4.1-2.2-6.3s-1.4-2.6-3.6-1.9c-6,2.1-12,4.4-18.1,6.2
			c-9,2.7-18.1,5.4-27.3,7.3c-7.5,1.5-15.3,1.9-23,2.8c-0.5,0.1-1.3,0-1.6,0.4c-0.5,0.6-1,1.6-0.8,2.1c0.5,0.7,1.3,1,2.1,1.1
			c9.9-0.1,19.7-1.4,29.3-4c8.8-2.2,17.5-4.8,26.3-7.4c3.5-1,6.9-2.5,10.3-3.7c2-0.7,3.3,0.1,3.9,2.1c0.6,2.5,1.4,4.9,2.3,7.3
			c0.1,0.3,0.2,0.6,0.4,0.9c0.5,1.1,1.1,1.9,1.6,2c1.9,0.5,3.7-2.1,6.5-5.1c1.9-2,3.7-4.1,5.3-6.4c0.6-0.8,1.2-1.5,2-2.5
			c0.6,1.7,1,2.9,1.6,4.1c1,2.2,1.8,4.5,4,5.8c3.7,2.2,7.1,1.8,10.8-1.6c1.9-1.7,3.6-3.6,5.7-5.6c0.3,0.9,0.6,1.5,0.8,2.2
			c1.9,5.6,5.7,7.5,11.2,5.4c2.9-1.2,5.7-2.7,8.3-4.4c2.3-1.4,4.3-3.1,6.7-5c1.1,11.1,0.2,21.9-1.2,32.7c0,0.3-0.3,1.6-0.5,3.5
			c-0.2,1.2-0.3,2.3-0.5,3.5h0.1c-0.1,1-0.2,2-0.3,3c0,0.1,0,0.1,0,0.2v0.9c0,0.7-0.1,1.3-0.1,2c0,0.5-0.1,0.9-0.1,1.4
			c-0.3,5.7-0.9,8.7,0.1,10.3s2.4,1.8,3.2-1c0.1-0.1,0.1-0.2,0.1-0.3l0.1-0.8V70c0-0.1,0-0.2,0.1-0.4c0.6-4.2,1.2-8.4,1.6-12.6
			c0.8-8.4,1.3-16.8,2.4-25.2c0.8-7.7,3.2-15.2,7-21.9c0.7-1,1.4-2,2.1-3c0,3.7-0.1,7.3,0,11c0,2.1,0.4,4.1,1,6.1
			c1.4,4.1,5.6,5.2,9,2.6c1.8-1.4,3.4-3,5.1-4.4c2.6-2.1,5.6-3.5,8.7-1.6c6.9,4,14.4,3.6,21.8,3c8.4-0.6,16.8-2,25.2-2.5
			c10.5-0.6,29-0.6,39.4-0.8c5.6-0.1,11.2-0.1,16.8-0.1c1.4,0,2.6-0.4,2.6-2.1S282.1,16.4,280.9,16.5"/>
	</defs>
	<clipPath id="SVGID_2_">
		<use xlink:href="#SVGID_1_"  style="overflow:visible;"/>
	</clipPath>
	<path id="signature" class="st0" d="M-4.5,29.7c0.1,0,5.8-0.2,10.9-0.6c5.1-0.4,18.1-2.3,22.3-3.2c4.1-1,11.8-3.1,19.2-5
		s15.1-5.3,20.7-7.2c5.6-1.9,4.7-0.8,7,7.7c2.3,8.2,3.1,2.4,9.2-4.1c6-6.5,5-10.4,9.4,1c0,0,0.7,2.7,3.6,5c2.9,2.3,5.7-0.3,9.3-4.2
		c3.9-4.3,7-11.3,8,0.2c0.8,10,13.8,1.1,17.3-1.8c8.1-6.6,8.1-12.1,8.4-2.4c0.1,3.1,1.9,26,1.9,26c-0.4,5.3-2.9,16.9-3,21.3
		c-0.2,7-0.8,15.1-1.8,15.4c-1,0.3,5.6-50.7,5.6-50.7c0,0,0.7-10.8,5.3-17.1c4.6-6.2,9.7-15.1,6.9,4.7c-2.6,18.7,8.7,8.3,10.7,6.7
		c5.7-4.4,7.2-6.3,14.3-1c5.7,4.2,27.9-0.5,43.8-1.4c15.8-0.9,67.4-1,67.4-1"/>
</g>
<g>
	<path d="M39.1,47.9c0-1.1-0.9-2.1-2.1-2.1c-1.1,0-2.1,0.9-2.1,2.1v1.3c0,1.1,0.9,2.1,2.1,2.1s2.1-0.9,2.1-2.1c0,0,0,0,0,0V47.9z"/>
	<polygon points="13.6,76.2 10.5,76.2 4.1,63 4.1,81.2 0,81.2 0,54 4.1,54 12.1,70.9 19.9,54 24,54 24,81.2 19.9,81.2 19.9,63 	"/>
	<rect x="34.9" y="54" width="4.1" height="27.2"/>
	<polygon points="55,81.2 55,57.7 47.5,57.7 47.5,54 66.6,54 66.6,57.7 59.1,57.7 59.1,81.2 	"/>
	<path d="M94.2,72c0.1,2.6-0.9,5.1-2.8,6.8c-4,3.5-9.9,3.5-13.9,0c-1.9-1.8-2.9-4.2-2.8-6.8V54h4.1v17.8c0,3.9,1.9,5.9,5.6,5.9
		c3.7,0,5.6-2,5.7-5.9V54h4.1L94.2,72z"/>
	<path d="M119,79.3c-2,1.5-4.5,2.2-7,2.1c-4.1,0-7.3-1.2-9.6-3.6l2.8-2.7c1.9,1.8,4.4,2.7,7,2.6c3.7,0,5.6-1.4,5.6-4.2
		c0.1-1.1-0.3-2.1-1.1-2.8c-0.9-0.7-1.9-1.1-3-1.1l-3.2-0.5c-1.9-0.2-3.7-0.9-5.2-2.2c-1.4-1.4-2.1-3.3-2-5.2
		c-0.1-2.2,0.8-4.3,2.4-5.7c1.9-1.6,4.2-2.3,6.6-2.2c3.1-0.1,6.1,1,8.4,3.1l-2.6,2.6c-1.6-1.5-3.7-2.2-5.9-2.1c-3.3,0-5,1.4-5,4.2
		c-0.1,0.9,0.3,1.9,1,2.5c0.9,0.7,1.9,1.1,3.1,1.3l3.1,0.4c1.8,0.2,3.6,0.9,5.1,2c1.5,1.4,2.4,3.5,2.2,5.6
		C121.8,75.7,120.8,77.9,119,79.3"/>
</g>
<g id="maden">
	<path d="M170.6,81.3l-7.9-22.7h-0.1c0.2,3.4,0.3,6.5,0.3,9.5v13.2h-4V54.1h6.3l7.5,21.6h0.1l7.8-21.6h6.3v27.1h-4.3V67.9
		c0-1.3,0-3.1,0.1-5.3c0.1-2.2,0.1-3.5,0.2-3.9h-0.1l-8.1,22.6H170.6z"/>
	<path d="M208.8,81.3l-2.7-7.5h-10.4l-2.7,7.5h-4.7L198.5,54h4.8l10.1,27.2H208.8z M204.9,69.9l-2.5-7.4c-0.2-0.5-0.4-1.3-0.8-2.3
		c-0.3-1.1-0.6-1.8-0.7-2.3c-0.3,1.5-0.8,3.2-1.5,5l-2.4,7.1H204.9z"/>
	<path d="M237.2,67.5c0,4.5-1.2,7.9-3.7,10.3c-2.5,2.4-6.1,3.6-10.7,3.6h-7.6V54.1h8.4c4.3,0,7.7,1.2,10.1,3.5
		C236,60,237.2,63.2,237.2,67.5z M232.5,67.6c0-6.5-3-9.7-9.1-9.7h-3.8v19.7h3.2C229.3,77.5,232.5,74.2,232.5,67.6z"/>
	<path d="M256.4,81.3h-15.3V54.1h15.3v3.7h-10.9v7.4h10.2V69h-10.2v8.5h10.9V81.3z"/>
	<path d="M283,81.3h-5.4l-13.3-21.6H264l0.1,1.2c0.2,2.3,0.3,4.4,0.3,6.3v14.1h-4V54.1h5.4l13.3,21.5h0.1c0-0.3-0.1-1.3-0.1-3.1
		c-0.1-1.8-0.1-3.2-0.1-4.2V54.1h4.1V81.3z"/>
</g>
<g id="arama">
	<g>
		<rect x="157.9" y="53.8" class="st1" width="125.6" height="36.3"/>
		<path d="M168.7,54h3.4l9.9,27.1h-4.4l-2.1-6.1h-10.3l-2.2,6.1h-4.3L168.7,54z M174.3,71.4c-0.7-2-1.3-3.9-2-5.9
			c-0.6-1.9-1.3-3.9-1.9-5.9c-0.6,2-1.3,3.9-1.9,5.9c-0.7,1.9-1.3,3.9-2,5.8L174.3,71.4L174.3,71.4z"/>
		<path d="M186.2,54.1h10.6c1.1,0,2.1,0.2,3.1,0.5c1,0.4,1.9,0.9,2.6,1.5c0.7,0.7,1.3,1.4,1.8,2.4c0.4,0.9,0.7,2,0.7,3.1
			c0,0.9-0.1,1.7-0.4,2.5c-0.2,0.8-0.6,1.5-1,2.1c-0.5,0.7-1,1.2-1.7,1.7s-1.4,0.9-2.2,1.2l6.3,12h-4.9l-5.6-11.5h-5.3v11.5h-4.1
			L186.2,54.1L186.2,54.1z M190.3,65.9h6.2c0.7,0,1.3-0.1,1.8-0.3c0.6-0.2,1-0.5,1.5-0.8c0.4-0.4,0.7-0.8,1-1.3
			c0.2-0.5,0.4-1.1,0.4-1.8s-0.1-1.2-0.3-1.7s-0.5-0.9-0.9-1.2s-0.9-0.6-1.4-0.7c-0.5-0.2-1.1-0.2-1.7-0.2h-6.4v8
			C190.5,65.9,190.3,65.9,190.3,65.9z"/>
		<path d="M217.7,54h3.4l9.9,27.1h-4.3l-2.1-6.1h-10.3l-2.2,6.1h-4.3L217.7,54z M223.3,71.4c-0.7-2-1.3-3.9-2-5.9
			c-0.6-1.9-1.3-3.9-1.9-5.9c-0.6,2-1.3,3.9-1.9,5.9c-0.7,1.9-1.3,3.9-2,5.8L223.3,71.4L223.3,71.4z"/>
		<path d="M234.5,54.1h3.9l7.8,17.6l7.6-17.6h3.9v27h-4.1V64.2h-0.1l-5.7,13h-3.4l-5.7-13h-0.1v16.9h-4.1V54.1L234.5,54.1z"/>
		<path d="M269.8,54h3.4l9.9,27.1h-4.3l-2.1-6.1h-10.3l-2.2,6.1h-4.3L269.8,54z M275.5,71.4c-0.7-2-1.3-3.9-2-5.9
			c-0.6-1.9-1.3-3.9-1.9-5.9c-0.6,2-1.3,3.9-1.9,5.9c-0.7,1.9-1.3,3.9-2,5.8L275.5,71.4L275.5,71.4z"/>
	</g>
	<g>
		<rect x="157.9" y="53.8" class="st1" width="125.6" height="36.3"/>
		<path d="M168.7,54h3.4l9.9,27.1h-4.4l-2.1-6.1h-10.3l-2.2,6.1h-4.3L168.7,54z M174.3,71.4c-0.7-2-1.3-3.9-2-5.9
			c-0.6-1.9-1.3-3.9-1.9-5.9c-0.6,2-1.3,3.9-1.9,5.9c-0.7,1.9-1.3,3.9-2,5.8L174.3,71.4L174.3,71.4z"/>
		<path d="M186.2,54.1h10.6c1.1,0,2.1,0.2,3.1,0.5c1,0.4,1.9,0.9,2.6,1.5c0.7,0.7,1.3,1.4,1.8,2.4c0.4,0.9,0.7,2,0.7,3.1
			c0,0.9-0.1,1.7-0.4,2.5c-0.2,0.8-0.6,1.5-1,2.1c-0.5,0.7-1,1.2-1.7,1.7s-1.4,0.9-2.2,1.2l6.3,12h-4.9l-5.6-11.5h-5.3v11.5h-4.1
			L186.2,54.1L186.2,54.1z M190.3,65.9h6.2c0.7,0,1.3-0.1,1.8-0.3c0.6-0.2,1-0.5,1.5-0.8c0.4-0.4,0.7-0.8,1-1.3
			c0.2-0.5,0.4-1.1,0.4-1.8s-0.1-1.2-0.3-1.7s-0.5-0.9-0.9-1.2s-0.9-0.6-1.4-0.7c-0.5-0.2-1.1-0.2-1.7-0.2h-6.4v8
			C190.5,65.9,190.3,65.9,190.3,65.9z"/>
		<path d="M217.7,54h3.4l9.9,27.1h-4.3l-2.1-6.1h-10.3l-2.2,6.1h-4.3L217.7,54z M223.3,71.4c-0.7-2-1.3-3.9-2-5.9
			c-0.6-1.9-1.3-3.9-1.9-5.9c-0.6,2-1.3,3.9-1.9,5.9c-0.7,1.9-1.3,3.9-2,5.8L223.3,71.4L223.3,71.4z"/>
		<path d="M234.5,54.1h3.9l7.8,17.6l7.6-17.6h3.9v27h-4.1V64.2h-0.1l-5.7,13h-3.4l-5.7-13h-0.1v16.9h-4.1V54.1L234.5,54.1z"/>
		<path d="M269.8,54h3.4l9.9,27.1h-4.3l-2.1-6.1h-10.3l-2.2,6.1h-4.3L269.8,54z M275.5,71.4c-0.7-2-1.3-3.9-2-5.9
			c-0.6-1.9-1.3-3.9-1.9-5.9c-0.6,2-1.3,3.9-1.9,5.9c-0.7,1.9-1.3,3.9-2,5.8L275.5,71.4L275.5,71.4z"/>
	</g>
</g>
<g id="cevre">
	<g>
		<rect x="157.9" y="53.8" class="st1" width="125.6" height="36.3"/>
		<path d="M177.8,73.9c-0.2,1.2-0.6,2.2-1.2,3.2c-0.5,0.9-1.2,1.8-2,2.4c-0.8,0.7-1.7,1.2-2.7,1.6s-2.1,0.6-3.3,0.6l-1.5,2.1
			c0,0,0.1,0,0.2,0c0.1,0,0.2,0,0.3,0s0.2,0,0.3-0.1c0.1,0,0.2,0,0.3,0c0.4,0,0.9,0.1,1.3,0.2c0.4,0.1,0.7,0.3,1,0.5
			s0.5,0.5,0.7,0.9s0.3,0.8,0.3,1.2c0,0.6-0.1,1.2-0.4,1.6c-0.3,0.5-0.6,0.8-1,1.1c-0.4,0.3-0.9,0.5-1.5,0.6
			c-0.5,0.1-1.1,0.2-1.7,0.2c-0.6,0-1.3-0.1-1.9-0.3c-0.6-0.2-1.2-0.4-1.8-0.6l0.6-1.6c0.4,0.2,0.8,0.3,1.3,0.4
			c0.4,0.1,0.9,0.2,1.3,0.2c0.3,0,0.5,0,0.8-0.1s0.5-0.1,0.7-0.3c0.2-0.1,0.4-0.3,0.5-0.5s0.2-0.5,0.2-0.8s-0.1-0.5-0.2-0.7
			c-0.1-0.2-0.3-0.3-0.5-0.4s-0.4-0.2-0.6-0.2c-0.2,0-0.5-0.1-0.7-0.1s-0.5,0-0.7,0.1s-0.4,0.2-0.6,0.3l-0.9-0.7l2.4-3.3
			c-0.7-0.1-1.3-0.2-2-0.5c-0.6-0.2-1.3-0.5-1.8-0.9c-1.2-0.8-2-1.7-2.6-2.6s-1-1.8-1.3-2.8c-0.2-1-0.4-2.1-0.4-3.2s0-2.3,0-3.6
			c0-1.3,0-2.5,0-3.6s0.1-2.2,0.4-3.2c0.2-1,0.7-1.9,1.3-2.8s1.5-1.8,2.6-2.6c0.8-0.6,1.6-1,2.6-1.2c0.9-0.2,1.9-0.4,2.8-0.4
			c1.2,0,2.3,0.2,3.4,0.6c1.1,0.4,2,0.9,2.8,1.7c0.8,0.7,1.5,1.5,2.1,2.5s1,2.1,1.2,3.2h-4.4c-0.2-0.6-0.4-1.1-0.8-1.6
			c-0.3-0.5-0.7-0.9-1.2-1.2s-0.9-0.6-1.5-0.8c-0.5-0.2-1.1-0.3-1.7-0.3c-0.9,0-1.7,0.1-2.4,0.4c-0.6,0.3-1.2,0.7-1.6,1.2
			c-0.4,0.5-0.7,1.1-0.9,1.7c-0.2,0.7-0.4,1.3-0.5,2c-0.1,0.7-0.2,1.4-0.2,2.2c0,0.7,0,1.4,0,2.1s0,1.4,0,2.1s0.1,1.5,0.2,2.2
			c0.1,0.7,0.2,1.4,0.5,2c0.2,0.6,0.5,1.2,0.9,1.7s0.9,0.9,1.6,1.2c0.6,0.3,1.4,0.4,2.4,0.4c0.6,0,1.2-0.1,1.7-0.3
			c0.5-0.2,1-0.4,1.4-0.8c0.4-0.3,0.8-0.7,1.1-1.2s0.6-0.9,0.9-1.5h4.4L177.8,73.9L177.8,73.9z"/>
		<path d="M184.8,54h17.3v3.9h-13.2v7.7h11.2v3.7h-11.2v7.9h13.2v3.9h-17.3V54z"/>
		<path d="M208.7,54.1h4.3l6.2,20.6h0.1l6.2-20.6h4.3l-8.9,27h-3.2L208.7,54.1z"/>
		<path d="M238.4,54H249c1.1,0,2.1,0.2,3.1,0.5c1,0.4,1.9,0.9,2.6,1.5c0.7,0.7,1.3,1.4,1.8,2.4c0.4,0.9,0.7,2,0.7,3.1
			c0,0.9-0.1,1.7-0.4,2.5c-0.2,0.8-0.6,1.5-1,2.1c-0.5,0.7-1,1.2-1.7,1.7s-1.4,0.9-2.2,1.2l6.3,12h-4.9l-5.6-11.5h-5.3v11.6h-4.1
			L238.4,54L238.4,54z M242.5,65.9h6.2c0.7,0,1.3-0.1,1.8-0.3c0.6-0.2,1-0.5,1.5-0.8c0.4-0.4,0.7-0.8,1-1.3c0.2-0.5,0.4-1.1,0.4-1.8
			s-0.1-1.2-0.3-1.7s-0.5-0.9-0.9-1.2s-0.9-0.6-1.4-0.7c-0.5-0.2-1.1-0.2-1.7-0.2h-6.4v8L242.5,65.9L242.5,65.9z"/>
		<path d="M265.8,54h17.3v3.9h-13.2v7.7h11.2v3.7h-11.2v7.9h13.2v3.9h-17.3V54L265.8,54z"/>
	</g>
	<g>
		<rect x="157.9" y="53.8" class="st1" width="125.6" height="36.3"/>
		<path d="M177.8,73.9c-0.2,1.2-0.6,2.2-1.2,3.2c-0.5,0.9-1.2,1.8-2,2.4c-0.8,0.7-1.7,1.2-2.7,1.6s-2.1,0.6-3.3,0.6l-1.5,2.1
			c0,0,0.1,0,0.2,0c0.1,0,0.2,0,0.3,0s0.2,0,0.3-0.1c0.1,0,0.2,0,0.3,0c0.4,0,0.9,0.1,1.3,0.2c0.4,0.1,0.7,0.3,1,0.5
			s0.5,0.5,0.7,0.9s0.3,0.8,0.3,1.2c0,0.6-0.1,1.2-0.4,1.6c-0.3,0.5-0.6,0.8-1,1.1c-0.4,0.3-0.9,0.5-1.5,0.6
			c-0.5,0.1-1.1,0.2-1.7,0.2c-0.6,0-1.3-0.1-1.9-0.3c-0.6-0.2-1.2-0.4-1.8-0.6l0.6-1.6c0.4,0.2,0.8,0.3,1.3,0.4
			c0.4,0.1,0.9,0.2,1.3,0.2c0.3,0,0.5,0,0.8-0.1s0.5-0.1,0.7-0.3c0.2-0.1,0.4-0.3,0.5-0.5s0.2-0.5,0.2-0.8s-0.1-0.5-0.2-0.7
			c-0.1-0.2-0.3-0.3-0.5-0.4s-0.4-0.2-0.6-0.2c-0.2,0-0.5-0.1-0.7-0.1s-0.5,0-0.7,0.1s-0.4,0.2-0.6,0.3l-0.9-0.7l2.4-3.3
			c-0.7-0.1-1.3-0.2-2-0.5c-0.6-0.2-1.3-0.5-1.8-0.9c-1.2-0.8-2-1.7-2.6-2.6s-1-1.8-1.3-2.8c-0.2-1-0.4-2.1-0.4-3.2s0-2.3,0-3.6
			c0-1.3,0-2.5,0-3.6s0.1-2.2,0.4-3.2c0.2-1,0.7-1.9,1.3-2.8s1.5-1.8,2.6-2.6c0.8-0.6,1.6-1,2.6-1.2c0.9-0.2,1.9-0.4,2.8-0.4
			c1.2,0,2.3,0.2,3.4,0.6c1.1,0.4,2,0.9,2.8,1.7c0.8,0.7,1.5,1.5,2.1,2.5s1,2.1,1.2,3.2h-4.4c-0.2-0.6-0.4-1.1-0.8-1.6
			c-0.3-0.5-0.7-0.9-1.2-1.2s-0.9-0.6-1.5-0.8c-0.5-0.2-1.1-0.3-1.7-0.3c-0.9,0-1.7,0.1-2.4,0.4c-0.6,0.3-1.2,0.7-1.6,1.2
			c-0.4,0.5-0.7,1.1-0.9,1.7c-0.2,0.7-0.4,1.3-0.5,2c-0.1,0.7-0.2,1.4-0.2,2.2c0,0.7,0,1.4,0,2.1s0,1.4,0,2.1s0.1,1.5,0.2,2.2
			c0.1,0.7,0.2,1.4,0.5,2c0.2,0.6,0.5,1.2,0.9,1.7s0.9,0.9,1.6,1.2c0.6,0.3,1.4,0.4,2.4,0.4c0.6,0,1.2-0.1,1.7-0.3
			c0.5-0.2,1-0.4,1.4-0.8c0.4-0.3,0.8-0.7,1.1-1.2s0.6-0.9,0.9-1.5h4.4L177.8,73.9L177.8,73.9z"/>
		<path d="M184.8,54h17.3v3.9h-13.2v7.7h11.2v3.7h-11.2v7.9h13.2v3.9h-17.3V54z"/>
		<path d="M208.7,54.1h4.3l6.2,20.6h0.1l6.2-20.6h4.3l-8.9,27h-3.2L208.7,54.1z"/>
		<path d="M238.4,54H249c1.1,0,2.1,0.2,3.1,0.5c1,0.4,1.9,0.9,2.6,1.5c0.7,0.7,1.3,1.4,1.8,2.4c0.4,0.9,0.7,2,0.7,3.1
			c0,0.9-0.1,1.7-0.4,2.5c-0.2,0.8-0.6,1.5-1,2.1c-0.5,0.7-1,1.2-1.7,1.7s-1.4,0.9-2.2,1.2l6.3,12h-4.9l-5.6-11.5h-5.3v11.6h-4.1
			L238.4,54L238.4,54z M242.5,65.9h6.2c0.7,0,1.3-0.1,1.8-0.3c0.6-0.2,1-0.5,1.5-0.8c0.4-0.4,0.7-0.8,1-1.3c0.2-0.5,0.4-1.1,0.4-1.8
			s-0.1-1.2-0.3-1.7s-0.5-0.9-0.9-1.2s-0.9-0.6-1.4-0.7c-0.5-0.2-1.1-0.2-1.7-0.2h-6.4v8L242.5,65.9L242.5,65.9z"/>
		<path d="M265.8,54h17.3v3.9h-13.2v7.7h11.2v3.7h-11.2v7.9h13.2v3.9h-17.3V54L265.8,54z"/>
	</g>
</g>
<g id="proje">
	<g>
		<rect x="157.9" y="53.8" class="st1" width="125.6" height="36.3"/>
		<path d="M175.7,68.1c-1.7,1.6-4,2.5-6.3,2.4h-6.2v10.6h-4.1V54h10.3c2.3-0.1,4.6,0.7,6.3,2.3c1.6,1.6,2.4,3.7,2.4,5.9
			C178.2,64.5,177.3,66.6,175.7,68.1 M169.2,57.7h-6v9h6c3.2,0,4.8-1.5,4.8-4.5C174,59.2,172.4,57.7,169.2,57.7L169.2,57.7z"/>
		<path d="M201.8,81.1l-5.7-11.4H191v11.4h-4.1V54h10.5c2.3-0.1,4.5,0.7,6.1,2.3c1.5,1.5,2.4,3.5,2.3,5.7c0,1.7-0.5,3.4-1.6,4.7
			c-1,1.2-2.3,2.1-3.8,2.5l6.2,12L201.8,81.1z M197.1,57.7H191v8.5h6.1c3.1,0,4.6-1.4,4.6-4.2C201.7,59.2,200.1,57.7,197.1,57.7z"/>
		<path d="M234.1,69.4c0,0.7,0,1.2,0,1.7c0,1-0.1,1.9-0.3,2.9c-0.3,1.7-1.1,3.3-2.3,4.5c-4,3.9-10.3,3.9-14.3,0
			c-1.2-1.2-2-2.8-2.3-4.5c-0.2-0.9-0.3-1.9-0.3-2.9v-1.7v-3.7V64c0-1,0.1-1.9,0.3-2.8c0.3-1.7,1.1-3.3,2.3-4.5
			c4-3.9,10.3-3.9,14.3,0c1.2,1.2,2,2.8,2.3,4.5c0.2,0.9,0.3,1.9,0.3,2.8c0,0.5,0,1,0,1.7V69.4z M229.7,61.8c-0.6-3-3.6-4.9-6.5-4.2
			c-1.1,0.2-2,0.8-2.8,1.5c-0.7,0.8-1.1,1.7-1.3,2.7c-0.3,1.9-0.4,3.8-0.3,5.7c-0.1,1.9,0,3.8,0.3,5.7c0.6,3,3.6,4.9,6.5,4.2
			c1.1-0.2,2-0.8,2.8-1.5c0.7-0.8,1.1-1.7,1.3-2.7c0.3-1.9,0.4-3.8,0.3-5.7C230,65.6,229.9,63.7,229.7,61.8z"/>
		<path d="M255.3,72.5c0.1,2.4-0.9,4.8-2.6,6.5c-1.8,1.6-4,2.4-6.4,2.3c-2.5,0.1-4.8-0.9-6.6-2.6l2.7-2.7c0.4,0.5,1,0.9,1.5,1.2
			c0.7,0.3,1.5,0.5,2.3,0.4c3.3,0,4.9-1.8,4.9-5.4V54h4.1v18.5H255.3z"/>
		<polygon points="283.1,54 283.1,57.7 269.9,57.7 269.9,65.6 281.2,65.6 281.2,69.3 269.9,69.3 269.9,77.4 283.1,77.4 283.1,81.1 
			265.8,81.1 265.8,54 		"/>
	</g>
	<g>
		<rect x="157.9" y="53.8" class="st1" width="125.6" height="36.3"/>
		<path d="M175.7,68.1c-1.7,1.6-4,2.5-6.3,2.4h-6.2v10.6h-4.1V54h10.3c2.3-0.1,4.6,0.7,6.3,2.3c1.6,1.6,2.4,3.7,2.4,5.9
			C178.2,64.5,177.3,66.6,175.7,68.1 M169.2,57.7h-6v9h6c3.2,0,4.8-1.5,4.8-4.5C174,59.2,172.4,57.7,169.2,57.7L169.2,57.7z"/>
		<path d="M201.8,81.1l-5.7-11.4H191v11.4h-4.1V54h10.5c2.3-0.1,4.5,0.7,6.1,2.3c1.5,1.5,2.4,3.5,2.3,5.7c0,1.7-0.5,3.4-1.6,4.7
			c-1,1.2-2.3,2.1-3.8,2.5l6.2,12L201.8,81.1z M197.1,57.7H191v8.5h6.1c3.1,0,4.6-1.4,4.6-4.2C201.7,59.2,200.1,57.7,197.1,57.7z"/>
		<path d="M234.1,69.4c0,0.7,0,1.2,0,1.7c0,1-0.1,1.9-0.3,2.9c-0.3,1.7-1.1,3.3-2.3,4.5c-4,3.9-10.3,3.9-14.3,0
			c-1.2-1.2-2-2.8-2.3-4.5c-0.2-0.9-0.3-1.9-0.3-2.9v-1.7v-3.7V64c0-1,0.1-1.9,0.3-2.8c0.3-1.7,1.1-3.3,2.3-4.5
			c4-3.9,10.3-3.9,14.3,0c1.2,1.2,2,2.8,2.3,4.5c0.2,0.9,0.3,1.9,0.3,2.8c0,0.5,0,1,0,1.7V69.4z M229.7,61.8c-0.6-3-3.6-4.9-6.5-4.2
			c-1.1,0.2-2,0.8-2.8,1.5c-0.7,0.8-1.1,1.7-1.3,2.7c-0.3,1.9-0.4,3.8-0.3,5.7c-0.1,1.9,0,3.8,0.3,5.7c0.6,3,3.6,4.9,6.5,4.2
			c1.1-0.2,2-0.8,2.8-1.5c0.7-0.8,1.1-1.7,1.3-2.7c0.3-1.9,0.4-3.8,0.3-5.7C230,65.6,229.9,63.7,229.7,61.8z"/>
		<path d="M255.3,72.5c0.1,2.4-0.9,4.8-2.6,6.5c-1.8,1.6-4,2.4-6.4,2.3c-2.5,0.1-4.8-0.9-6.6-2.6l2.7-2.7c0.4,0.5,1,0.9,1.5,1.2
			c0.7,0.3,1.5,0.5,2.3,0.4c3.3,0,4.9-1.8,4.9-5.4V54h4.1v18.5H255.3z"/>
		<polygon points="283.1,54 283.1,57.7 269.9,57.7 269.9,65.6 281.2,65.6 281.2,69.3 269.9,69.3 269.9,77.4 283.1,77.4 283.1,81.1 
			265.8,81.1 265.8,54 		"/>
	</g>
</g>
<g id="slogan">
	<path d="M0.1,94.5c0-0.6,0-1.1,0-1.6H1v0.9l0,0c0.3-0.6,0.9-1.1,1.8-1.1c0.8,0,1.4,0.5,1.6,1.2l0,0c0.2-0.3,0.4-0.6,0.6-0.8
		c0.3-0.3,0.7-0.4,1.3-0.4c0.8,0,1.9,0.5,1.9,2.5v3.4h-1v-3.3c0-1.1-0.4-1.8-1.3-1.8c-0.6,0-1.1,0.4-1.2,1c0,0.1-0.1,0.3-0.1,0.5
		v3.6h-1v-3.5c0-0.9-0.4-1.6-1.2-1.6c-0.7,0-1.1,0.5-1.3,1.1C1,94.8,1,94.9,1,95.1v3.5H0v-4.1H0.1z"/>
	<path d="M11.6,96c0,1.4,0.9,2,2,2c0.8,0,1.2-0.1,1.6-0.3l0.2,0.8c-0.4,0.2-1,0.4-1.9,0.4c-1.8,0-2.9-1.2-2.9-2.9s1-3.1,2.7-3.1
		c1.9,0,2.4,1.7,2.4,2.7c0,0.2,0,0.4,0,0.5L11.6,96L11.6,96z M14.7,95.2c0-0.7-0.3-1.7-1.5-1.7c-1.1,0-1.5,1-1.6,1.7H14.7z"/>
	<path d="M18.4,96c0,1.4,0.9,2,2,2c0.8,0,1.2-0.1,1.6-0.3l0.2,0.8c-0.4,0.2-1,0.4-1.9,0.4c-1.8,0-2.9-1.2-2.9-2.9s1-3.1,2.7-3.1
		c1.9,0,2.4,1.7,2.4,2.7c0,0.2,0,0.4,0,0.5L18.4,96L18.4,96z M21.5,95.2c0-0.7-0.3-1.7-1.5-1.7c-1.1,0-1.5,1-1.6,1.7H21.5z"/>
	<path d="M25.9,91.2v1.7h1.5v0.8h-1.5v3.1c0,0.7,0.2,1.1,0.8,1.1c0.3,0,0.5,0,0.6-0.1v0.8c-0.2,0.1-0.5,0.1-0.9,0.1
		c-0.5,0-0.9-0.2-1.1-0.4c-0.3-0.3-0.4-0.8-0.4-1.5v-3.2H24v-0.8h0.9v-1.4L25.9,91.2z"/>
	<path d="M37.7,97.1c0,0.6,0,1.1,0,1.6h-0.9l-0.1-0.9l0,0c-0.3,0.5-0.9,1.1-1.9,1.1c-0.9,0-2-0.5-2-2.5V93h1.1v3.2
		c0,1.1,0.3,1.8,1.3,1.8c0.7,0,1.2-0.5,1.4-1c0.1-0.2,0.1-0.3,0.1-0.5v-3.6h1.1L37.7,97.1L37.7,97.1z"/>
	<path d="M40.2,97.6c0.3,0.2,0.9,0.4,1.4,0.4c0.8,0,1.1-0.4,1.1-0.9s-0.3-0.8-1.1-1.1c-1-0.4-1.5-0.9-1.5-1.6c0-0.9,0.8-1.7,2-1.7
		c0.6,0,1.1,0.2,1.4,0.4l-0.3,0.8c-0.2-0.1-0.6-0.3-1.2-0.3c-0.6,0-1,0.4-1,0.8c0,0.5,0.3,0.7,1.1,1c1,0.4,1.5,0.9,1.5,1.8
		c0,1-0.8,1.7-2.2,1.7c-0.6,0-1.2-0.2-1.6-0.4L40.2,97.6z"/>
	<path d="M50.6,91.2v1.7h1.5v0.8h-1.5v3.1c0,0.7,0.2,1.1,0.8,1.1c0.3,0,0.5,0,0.6-0.1v0.8c-0.2,0.1-0.5,0.1-0.9,0.1
		c-0.5,0-0.9-0.2-1.1-0.4c-0.3-0.3-0.4-0.8-0.4-1.5v-3.2h-0.9v-0.8h0.9v-1.4L50.6,91.2z"/>
	<path d="M59.3,95.8c0,2.1-1.5,3.1-2.9,3.1c-1.6,0-2.8-1.2-2.8-3c0-1.9,1.3-3.1,2.9-3.1C58.2,92.8,59.3,94,59.3,95.8z M54.7,95.8
		c0,1.3,0.7,2.2,1.8,2.2c1,0,1.8-0.9,1.8-2.3c0-1-0.5-2.2-1.7-2.2C55.2,93.6,54.7,94.7,54.7,95.8z"/>
	<path d="M65.4,96c0,1.4,0.9,2,2,2c0.8,0,1.2-0.1,1.6-0.3l0.2,0.8c-0.4,0.2-1,0.4-1.9,0.4c-1.8,0-2.9-1.2-2.9-2.9s1-3.1,2.7-3.1
		c1.9,0,2.4,1.7,2.4,2.7c0,0.2,0,0.4,0,0.5L65.4,96L65.4,96z M68.5,95.2c0-0.7-0.3-1.7-1.5-1.7c-1.1,0-1.5,1-1.6,1.7H68.5z"/>
	<path d="M72.2,92.9l0.8,1.2c0.2,0.3,0.4,0.6,0.6,0.9l0,0c0.2-0.3,0.4-0.6,0.6-1l0.8-1.2h1.1l-2,2.8l2,3H75l-0.9-1.3
		c-0.2-0.3-0.4-0.7-0.6-1l0,0c-0.2,0.3-0.4,0.7-0.6,1L72,98.7h-1.2l2.1-3l-2-2.8C70.9,92.9,72.2,92.9,72.2,92.9z"/>
	<path d="M78.1,94.8c0-0.7,0-1.3,0-1.9H79v1l0,0c0.4-0.7,1.1-1.1,2.1-1.1c1.4,0,2.5,1.2,2.5,3c0,2.1-1.3,3.1-2.6,3.1
		c-0.8,0-1.4-0.3-1.8-0.9l0,0v3.2h-1L78.1,94.8L78.1,94.8z M79.1,96.3c0,0.2,0,0.3,0,0.4c0.2,0.7,0.8,1.2,1.6,1.2
		c1.1,0,1.8-0.9,1.8-2.2c0-1.2-0.6-2.2-1.7-2.2c-0.7,0-1.4,0.5-1.6,1.3c0,0.1-0.1,0.3-0.1,0.4C79.1,95.2,79.1,96.3,79.1,96.3z"/>
	<path d="M85.7,90.2h1.1v8.5h-1.1V90.2z"/>
	<path d="M94.7,95.8c0,2.1-1.5,3.1-2.9,3.1c-1.6,0-2.8-1.2-2.8-3c0-1.9,1.3-3.1,2.9-3.1C93.5,92.8,94.7,94,94.7,95.8z M90,95.8
		c0,1.3,0.7,2.2,1.8,2.2c1,0,1.8-0.9,1.8-2.3c0-1-0.5-2.2-1.7-2.2C90.6,93.6,90,94.7,90,95.8z"/>
	<path d="M96.8,94.7c0-0.7,0-1.3,0-1.8h0.9V94l0,0c0.3-0.8,0.9-1.3,1.6-1.3c0.1,0,0.2,0,0.3,0v1c-0.1,0-0.2,0-0.4,0
		c-0.7,0-1.3,0.6-1.4,1.4c0,0.1,0,0.3,0,0.5v3.1h-1V94.7z"/>
	<path d="M102.1,96c0,1.4,0.9,2,2,2c0.8,0,1.2-0.1,1.6-0.3l0.2,0.8c-0.4,0.2-1,0.4-1.9,0.4c-1.8,0-2.9-1.2-2.9-2.9s1-3.1,2.7-3.1
		c1.9,0,2.4,1.7,2.4,2.7c0,0.2,0,0.4,0,0.5L102.1,96L102.1,96z M105.2,95.2c0-0.7-0.3-1.7-1.5-1.7c-1.1,0-1.5,1-1.6,1.7H105.2z"/>
	<path d="M112.9,91.3c0,0.4-0.3,0.6-0.7,0.6c-0.4,0-0.6-0.3-0.6-0.6c0-0.4,0.3-0.7,0.7-0.7C112.6,90.6,112.9,90.9,112.9,91.3z
		 M111.7,98.7v-5.8h1.1v5.8H111.7z"/>
	<path d="M116.6,91.2v1.7h1.5v0.8h-1.5v3.1c0,0.7,0.2,1.1,0.8,1.1c0.3,0,0.5,0,0.6-0.1v0.8c-0.2,0.1-0.5,0.1-0.9,0.1
		c-0.5,0-0.9-0.2-1.1-0.4c-0.3-0.3-0.4-0.8-0.4-1.5v-3.2h-0.9v-0.8h0.9v-1.4L116.6,91.2z"/>
	<path d="M119.5,100.2c0.3-0.7,0.6-2,0.7-2.9l1.2-0.1c-0.3,1-0.8,2.4-1.1,2.9L119.5,100.2z"/>
	<path d="M128.1,91.2v1.7h1.5v0.8h-1.5v3.1c0,0.7,0.2,1.1,0.8,1.1c0.3,0,0.5,0,0.6-0.1v0.8c-0.2,0.1-0.5,0.1-0.9,0.1
		c-0.5,0-0.9-0.2-1.1-0.4c-0.3-0.3-0.4-0.8-0.4-1.5v-3.2h-0.9v-0.8h0.9v-1.4L128.1,91.2z"/>
	<path d="M136.8,95.8c0,2.1-1.5,3.1-2.9,3.1c-1.6,0-2.8-1.2-2.8-3c0-1.9,1.3-3.1,2.9-3.1C135.7,92.8,136.8,94,136.8,95.8z
		 M132.2,95.8c0,1.3,0.7,2.2,1.8,2.2c1,0,1.8-0.9,1.8-2.3c0-1-0.5-2.2-1.7-2.2C132.8,93.6,132.2,94.7,132.2,95.8z"/>
	<path d="M147.4,90.2v7c0,0.5,0,1.1,0,1.5h-0.9v-1l0,0c-0.3,0.6-1,1.1-2,1.1c-1.4,0-2.5-1.2-2.5-3c0-1.9,1.2-3.1,2.6-3.1
		c0.9,0,1.5,0.4,1.8,0.9l0,0v-3.5L147.4,90.2L147.4,90.2z M146.4,95.3c0-0.1,0-0.3,0-0.4c-0.2-0.7-0.7-1.2-1.5-1.2
		c-1.1,0-1.7,1-1.7,2.2s0.6,2.1,1.7,2.1c0.7,0,1.4-0.5,1.5-1.3c0-0.1,0-0.3,0-0.5V95.3z"/>
	<path d="M151.2,91.3c0,0.4-0.3,0.6-0.7,0.6s-0.6-0.3-0.6-0.6c0-0.4,0.3-0.7,0.7-0.7C150.9,90.6,151.2,90.9,151.2,91.3z M150,98.7
		v-5.8h1.1v5.8H150z"/>
	<path d="M153.5,97.6c0.3,0.2,0.9,0.4,1.4,0.4c0.8,0,1.1-0.4,1.1-0.9s-0.3-0.8-1.1-1.1c-1-0.4-1.5-0.9-1.5-1.6c0-0.9,0.8-1.7,2-1.7
		c0.6,0,1.1,0.2,1.4,0.4l-0.3,0.8c-0.2-0.1-0.6-0.3-1.2-0.3c-0.6,0-1,0.4-1,0.8c0,0.5,0.3,0.7,1.1,1c1,0.4,1.5,0.9,1.5,1.8
		c0,1-0.8,1.7-2.2,1.7c-0.6,0-1.2-0.2-1.6-0.4L153.5,97.6z"/>
	<path d="M163.4,98.5c-0.3,0.1-0.9,0.3-1.7,0.3c-1.8,0-2.9-1.2-2.9-3s1.2-3.1,3.1-3.1c0.6,0,1.2,0.2,1.5,0.3l-0.2,0.8
		c-0.3-0.1-0.6-0.3-1.2-0.3c-1.3,0-2.1,1-2.1,2.2c0,1.3,0.9,2.2,2,2.2c0.6,0,1-0.2,1.3-0.3L163.4,98.5z"/>
	<path d="M170.6,95.8c0,2.1-1.5,3.1-2.9,3.1c-1.6,0-2.8-1.2-2.8-3c0-1.9,1.3-3.1,2.9-3.1C169.5,92.8,170.6,94,170.6,95.8z M166,95.8
		c0,1.3,0.7,2.2,1.8,2.2c1,0,1.8-0.9,1.8-2.3c0-1-0.5-2.2-1.7-2.2C166.6,93.6,166,94.7,166,95.8z"/>
	<path d="M173.1,92.9l1.1,3.3c0.2,0.5,0.3,1,0.5,1.5l0,0c0.1-0.5,0.3-1,0.5-1.5l1.1-3.3h1.1l-2.3,5.8h-1l-2.2-5.8H173.1z"/>
	<path d="M179.8,96c0,1.4,0.9,2,2,2c0.8,0,1.2-0.1,1.6-0.3l0.2,0.8c-0.4,0.2-1,0.4-1.9,0.4c-1.8,0-2.9-1.2-2.9-2.9s1-3.1,2.7-3.1
		c1.9,0,2.4,1.7,2.4,2.7c0,0.2,0,0.4,0,0.5L179.8,96L179.8,96z M182.9,95.2c0-0.7-0.3-1.7-1.5-1.7c-1.1,0-1.5,1-1.6,1.7H182.9z"/>
	<path d="M186.1,94.7c0-0.7,0-1.3,0-1.8h0.9V94l0,0c0.3-0.8,0.9-1.3,1.6-1.3c0.1,0,0.2,0,0.3,0v1c-0.1,0-0.2,0-0.4,0
		c-0.7,0-1.3,0.6-1.4,1.4c0,0.1,0,0.3,0,0.5v3.1h-1L186.1,94.7L186.1,94.7z"/>
	<path d="M195.4,91.3c0,0.4-0.3,0.6-0.7,0.6s-0.6-0.3-0.6-0.6c0-0.4,0.3-0.7,0.7-0.7C195.1,90.6,195.4,90.9,195.4,91.3z M194.2,98.7
		v-5.8h1.1v5.8H194.2z"/>
	<path d="M199.1,91.2v1.7h1.5v0.8h-1.5v3.1c0,0.7,0.2,1.1,0.8,1.1c0.3,0,0.5,0,0.6-0.1v0.8c-0.2,0.1-0.5,0.1-0.9,0.1
		c-0.5,0-0.9-0.2-1.1-0.4c-0.3-0.3-0.4-0.8-0.4-1.5v-3.2h-0.9v-0.8h0.9v-1.4L199.1,91.2z"/>
	<path d="M209.3,98.7l-0.1-0.7l0,0c-0.3,0.5-0.9,0.9-1.8,0.9c-1.2,0-1.8-0.8-1.8-1.7c0-1.4,1.2-2.2,3.5-2.2v-0.1
		c0-0.5-0.1-1.3-1.3-1.3c-0.5,0-1.1,0.2-1.5,0.4l-0.2-0.7c0.5-0.3,1.2-0.5,1.9-0.5c1.8,0,2.2,1.2,2.2,2.4v2.2c0,0.5,0,1,0.1,1.4h-1
		V98.7z M209.1,95.7c-1.2,0-2.5,0.2-2.5,1.3c0,0.7,0.5,1,1,1c0.8,0,1.2-0.5,1.4-1c0-0.1,0.1-0.2,0.1-0.3V95.7z"/>
	<path d="M212.7,94.5c0-0.6,0-1.1,0-1.6h0.9l0.1,1l0,0c0.3-0.6,1-1.1,1.9-1.1c0.8,0,2.1,0.5,2.1,2.5v3.5h-1.1v-3.3
		c0-0.9-0.3-1.7-1.3-1.7c-0.7,0-1.2,0.5-1.4,1.1c0,0.1-0.1,0.3-0.1,0.5v3.5h-1.1L212.7,94.5L212.7,94.5z"/>
	<path d="M225.2,90.2v7c0,0.5,0,1.1,0,1.5h-0.9v-1l0,0c-0.3,0.6-1,1.1-2,1.1c-1.4,0-2.5-1.2-2.5-3c0-1.9,1.2-3.1,2.6-3.1
		c0.9,0,1.5,0.4,1.8,0.9l0,0v-3.5L225.2,90.2L225.2,90.2z M224.1,95.3c0-0.1,0-0.3,0-0.4c-0.2-0.7-0.7-1.2-1.5-1.2
		c-1.1,0-1.7,1-1.7,2.2s0.6,2.1,1.7,2.1c0.7,0,1.4-0.5,1.5-1.3c0-0.1,0-0.3,0-0.5V95.3z"/>
	<path d="M231.2,94.8c0-0.7,0-1.3,0-1.9h0.9v1l0,0c0.4-0.7,1.1-1.1,2.1-1.1c1.4,0,2.5,1.2,2.5,3c0,2.1-1.3,3.1-2.6,3.1
		c-0.8,0-1.4-0.3-1.8-0.9l0,0v3.2h-1L231.2,94.8L231.2,94.8z M232.2,96.3c0,0.2,0,0.3,0,0.4c0.2,0.7,0.8,1.2,1.6,1.2
		c1.1,0,1.8-0.9,1.8-2.2c0-1.2-0.6-2.2-1.7-2.2c-0.7,0-1.4,0.5-1.6,1.3c0,0.1-0.1,0.3-0.1,0.4V96.3z"/>
	<path d="M238.8,94.7c0-0.7,0-1.3,0-1.8h0.9V94l0,0c0.3-0.8,0.9-1.3,1.6-1.3c0.1,0,0.2,0,0.3,0v1c-0.1,0-0.2,0-0.4,0
		c-0.7,0-1.3,0.6-1.4,1.4c0,0.1,0,0.3,0,0.5v3.1h-1L238.8,94.7L238.8,94.7z"/>
	<path d="M248.7,95.8c0,2.1-1.5,3.1-2.9,3.1c-1.6,0-2.8-1.2-2.8-3c0-1.9,1.3-3.1,2.9-3.1C247.6,92.8,248.7,94,248.7,95.8z
		 M244.1,95.8c0,1.3,0.7,2.2,1.8,2.2c1,0,1.8-0.9,1.8-2.3c0-1-0.5-2.2-1.7-2.2C244.7,93.6,244.1,94.7,244.1,95.8z"/>
	<path d="M249.5,100.4c0.5,0,0.9-0.2,1.2-0.4c0.3-0.3,0.4-0.8,0.4-2.2v-4.9h1.1v5.3c0,1.1-0.2,1.9-0.7,2.4s-1.2,0.7-1.8,0.7
		L249.5,100.4z M252.2,91.3c0,0.3-0.2,0.6-0.7,0.6c-0.4,0-0.6-0.3-0.6-0.6c0-0.4,0.3-0.7,0.7-0.7C252,90.6,252.2,90.9,252.2,91.3z"
		/>
	<path d="M255.3,96c0,1.4,0.9,2,2,2c0.8,0,1.2-0.1,1.6-0.3l0.2,0.8c-0.4,0.2-1,0.4-1.9,0.4c-1.8,0-2.9-1.2-2.9-2.9s1-3.1,2.7-3.1
		c1.9,0,2.4,1.7,2.4,2.7c0,0.2,0,0.4,0,0.5L255.3,96L255.3,96z M258.4,95.2c0-0.7-0.3-1.7-1.5-1.7c-1.1,0-1.5,1-1.6,1.7H258.4z"/>
	<path d="M265.7,98.5c-0.3,0.1-0.9,0.3-1.7,0.3c-1.8,0-2.9-1.2-2.9-3s1.2-3.1,3.1-3.1c0.6,0,1.2,0.2,1.5,0.3l-0.2,0.8
		c-0.3-0.1-0.6-0.3-1.2-0.3c-1.3,0-2.1,1-2.1,2.2c0,1.3,0.9,2.2,2,2.2c0.6,0,1-0.2,1.3-0.3L265.7,98.5z"/>
	<path d="M269.2,91.2v1.7h1.5v0.8h-1.5v3.1c0,0.7,0.2,1.1,0.8,1.1c0.3,0,0.5,0,0.6-0.1v0.8c-0.2,0.1-0.5,0.1-0.9,0.1
		c-0.5,0-0.9-0.2-1.1-0.4c-0.3-0.3-0.4-0.8-0.4-1.5v-3.2h-0.9v-0.8h0.9v-1.4L269.2,91.2z"/>
	<path d="M277.3,91.3c0,0.4-0.3,0.6-0.7,0.6c-0.4,0-0.6-0.3-0.6-0.6c0-0.4,0.3-0.7,0.7-0.7C277,90.6,277.3,90.9,277.3,91.3z
		 M276.1,98.7v-5.8h1.1v5.8H276.1z"/>
	<path d="M281,91.2v1.7h1.5v0.8H281v3.1c0,0.7,0.2,1.1,0.8,1.1c0.3,0,0.5,0,0.6-0.1v0.8c-0.2,0.1-0.5,0.1-0.9,0.1
		c-0.5,0-0.9-0.2-1.1-0.4c-0.3-0.3-0.4-0.8-0.4-1.5v-3.2h-0.9v-0.8h0.9v-1.4L281,91.2z"/>
</g>
</svg>
