<svg data-v-71ae69e4="" version="1.1" viewBox="0 0 283.5 101.8" xmlns="http://www.w3.org/2000/svg"><clipPath data-v-71ae69e4="" id="clipPath1720"><path data-v-71ae69e4="" d="m280.9 16.49h-13.92c-15 0-38 0.18-52.91 1.87a179.62 179.62 0 0 1-26.43 1c-3.46-0.12-6.88-0.7-9.77-2.69a6.49 6.49 0 0 0-7.15-0.47 40.62 40.62 0 0 0-4.42 2.86c-1.86 1.27-3.69 2.6-5.56 3.87-1.38 0.93-2.24 0.24-2.44-1.13a53.43 53.43 0 0 1-0.81-8c0-3.79 0.56-7.58 0.69-11.38a2.91 2.91 0 0 0-1.28-2.33 3 3 0 0 0-2.48 0.65c-5.06 4.16-7.68 9.86-9.81 15.86-0.23 0.65-0.54 1.28-0.82 1.92-0.39-2.54-0.3-5-0.45-7.36a2.94 2.94 0 0 0-1.15-2.23 3.33 3.33 0 0 0-2.47 0.66 29.63 29.63 0 0 0-3 2.58c-3.91 3.37-7.74 6.84-12.49 9.07-3.26 1.53-6 0.63-7-2.6a39.71 39.71 0 0 1-1.23-5.93c-0.26-1.81-1.65-2.63-3.2-1.67a7.57 7.57 0 0 0-1.29 1.12c-2.75 2.59-5.42 5.26-8.25 7.77-2.22 2-4.6 1.65-6.4-0.71a14 14 0 0 1-1.51-2.6c-1-2.18-1.85-4.42-2.93-6.55-1-1.87-2.45-2-3.73-0.34-0.85 1.09-1.57 2.28-2.42 3.38-2.27 2.89-4.56 5.82-7.13 9.1a20.81 20.81 0 0 1-2-3.08c-0.83-2.05-1.52-4.15-2.18-6.26s-1.43-2.63-3.57-1.87c-6 2.09-12 4.43-18.07 6.23-9 2.66-18.08 5.37-27.28 7.25-7.54 1.52-15.33 1.91-23.04 2.81-0.55 0.07-1.34 0-1.6 0.36-0.46 0.59-1 1.64-0.78 2.1a2.78 2.78 0 0 0 2.1 1.07 117 117 0 0 0 29.31-4c8.82-2.21 17.55-4.79 26.28-7.36 3.49-1 6.86-2.5 10.32-3.68 2-0.67 3.28 0.11 3.87 2.08a61 61 0 0 0 2.29 7.34 6.46 6.46 0 0 0 0.38 0.86c0.52 1.09 1.06 1.9 1.57 2 1.9 0.53 3.72-2.06 6.48-5.12a46.69 46.69 0 0 0 5.27-6.41c0.57-0.78 1.19-1.51 2-2.51 0.62 1.67 1 2.94 1.56 4.13 1 2.17 1.76 4.48 4 5.81 3.74 2.22 7.14 1.79 10.82-1.57 1.89-1.73 3.64-3.61 5.67-5.64 0.32 0.9 0.55 1.53 0.76 2.16 1.92 5.59 5.69 7.54 11.22 5.39a51.77 51.77 0 0 0 8.3-4.44c2.26-1.4 4.29-3.15 6.7-5 1.05 11.15 0.2 21.94-1.21 32.68 0 0.28-0.25 1.58-0.49 3.5-0.16 1.15-0.33 2.3-0.5 3.46h0.12c-0.09 1-0.18 2-0.25 3a0.5 0.5 0 0 0 0 0.16v0.93c0 0.66-0.07 1.32-0.1 2 0 0.47-0.05 0.94-0.08 1.42-0.3 5.73-0.85 8.72 0.08 10.33s2.45 1.84 3.23-1a0.79 0.79 0 0 0 0.12-0.3l0.12-0.81v-0.18c0-0.11 0-0.24 0.06-0.38 0.65-4.17 1.22-8.37 1.64-12.58 0.84-8.39 1.33-16.82 2.35-25.18a57.8 57.8 0 0 1 7-21.92 35.35 35.35 0 0 1 2.12-3c0 3.67-0.11 7.34 0 11a21.7 21.7 0 0 0 1 6.12c1.43 4.09 5.6 5.24 9 2.6 1.8-1.37 3.39-3 5.12-4.45 2.6-2.14 5.56-3.49 8.74-1.64 6.91 4 14.39 3.56 21.84 3 8.41-0.65 16.76-2.05 25.18-2.52 10.46-0.59 29-0.6 39.43-0.79 5.59-0.1 11.19-0.06 16.78-0.11 1.38 0 2.61-0.4 2.65-2.06s-1.33-1.69-2.56-1.69" class="cls-2"></path></clipPath> <path data-v-71ae69e4="" id="signature" d="m-4.4603 29.719c0.060112-0.01202 5.8188-0.2164 10.904-0.63718 5.0855-0.42078 18.124-2.2526 22.273-3.2048 4.1485-0.95212 11.823-3.131 19.18-4.9584s15.12-5.3476 20.746-7.2231c5.6265-1.8755 4.6895-0.7571 7.0494 7.704 2.2832 8.1862 3.1024 2.4498 9.1658-4.1166 5.9632-6.4579 5.0206-10.358 9.4448 1.0389 0 0 0.67325 2.7411 3.6067 5.0013 2.9334 2.2602 5.6849-0.28362 9.3293-4.2319 3.9241-4.2513 7.0188-11.31 7.9828 0.24045 0.83797 10.04 13.783 1.0877 17.262-1.7696 8.0838-6.6404 8.1325-12.081 8.3535-2.4424 0.0704 3.0721 1.92 25.959 1.92 25.959-0.39344 5.2594-2.8986 16.896-3.0095 21.293-0.17671 7.003-0.81752 15.148-1.8274 15.437-1.0099 0.28854 5.6023-50.72 5.6023-50.72 4e-3 0.0018 0.66435-10.82 5.2898-17.12 4.5698-6.2242 9.6795-15.09 6.9009 4.7464-2.6217 18.717 8.6745 8.2843 10.676 6.7325 5.6564-4.3858 7.1692-6.2883 14.331-1.0099 5.6544 4.1677 27.902-0.51121 43.761-1.4427 15.823-0.92936 67.421-0.96179 67.421-0.96179" clip-path="url(#clipPath1720)" fill="none" stroke="#333333" stroke-width="5.8"></path> <g data-v-71ae69e4=""><path data-v-71ae69e4="" d="m39.14 47.94a2.07 2.07 0 0 0-4.14 0v1.3a2.07 2.07 0 1 0 4.14 0z" class="cls-2"></path> <polygon data-v-71ae69e4="" points="13.6 76.23 10.54 76.23 4.13 62.98 4.13 81.16 0 81.16 0 53.97 4.13 53.97 12.07 70.89 19.86 53.97 23.99 53.97 23.99 81.16 19.86 81.16 19.86 62.98" class="cls-2"></polygon> <rect data-v-71ae69e4="" x="34.87" y="53.96" width="4.13" height="27.2" class="cls-2"></rect> <polygon data-v-71ae69e4="" points="55 81.16 55 57.67 47.52 57.67 47.52 53.97 66.61 53.97 66.61 57.67 59.13 57.67 59.13 81.16" class="cls-2"></polygon> <path data-v-71ae69e4="" d="m94.23 72a8.86 8.86 0 0 1-2.83 6.8 10.59 10.59 0 0 1-13.9 0 8.93 8.93 0 0 1-2.79-6.8v-18h4.13v17.8q0 5.88 5.61 5.88t5.65-5.88v-17.8h4.13z" class="cls-2"></path> <path data-v-71ae69e4="" d="m119 79.29a11.06 11.06 0 0 1-7 2.1q-6.08 0-9.62-3.59l2.75-2.71a9.38 9.38 0 0 0 7 2.59c3.74 0 5.61-1.38 5.61-4.16a3.58 3.58 0 0 0-1.07-2.83 5.64 5.64 0 0 0-3-1.14l-3.21-0.46a9.16 9.16 0 0 1-5.15-2.18 6.76 6.76 0 0 1-2-5.19 7.34 7.34 0 0 1 2.38-5.72 9.5 9.5 0 0 1 6.64-2.21 11.88 11.88 0 0 1 8.44 3.09l-2.63 2.6a8.26 8.26 0 0 0-5.92-2.1q-5 0-5 4.24a3.23 3.23 0 0 0 1 2.52 6 6 0 0 0 3.06 1.26l3.09 0.45a9.93 9.93 0 0 1 5.08 2 7 7 0 0 1 2.22 5.58 7.11 7.11 0 0 1-2.67 5.86" class="cls-2"></path></g> <g data-v-71ae69e4="" id="arama" class="animated-clip"><g data-v-71ae69e4="" class="left"><rect data-v-71ae69e4="" fill="#fff" x="157.9" y="53.8" width="125.6" height="36.3"></rect> <path data-v-71ae69e4="" d="M168.7,54h3.4l9.9,27.1h-4.4l-2.1-6.1h-10.3l-2.2,6.1h-4.3L168.7,54z M174.3,71.4c-0.7-2-1.3-3.9-2-5.9
			c-0.6-1.9-1.3-3.9-1.9-5.9c-0.6,2-1.3,3.9-1.9,5.9c-0.7,1.9-1.3,3.9-2,5.8L174.3,71.4L174.3,71.4z"></path> <path data-v-71ae69e4="" d="M186.2,54.1h10.6c1.1,0,2.1,0.2,3.1,0.5c1,0.4,1.9,0.9,2.6,1.5c0.7,0.7,1.3,1.4,1.8,2.4c0.4,0.9,0.7,2,0.7,3.1
			c0,0.9-0.1,1.7-0.4,2.5c-0.2,0.8-0.6,1.5-1,2.1c-0.5,0.7-1,1.2-1.7,1.7s-1.4,0.9-2.2,1.2l6.3,12h-4.9l-5.6-11.5h-5.3v11.5h-4.1
			L186.2,54.1L186.2,54.1z M190.3,65.9h6.2c0.7,0,1.3-0.1,1.8-0.3c0.6-0.2,1-0.5,1.5-0.8c0.4-0.4,0.7-0.8,1-1.3
			c0.2-0.5,0.4-1.1,0.4-1.8s-0.1-1.2-0.3-1.7s-0.5-0.9-0.9-1.2s-0.9-0.6-1.4-0.7c-0.5-0.2-1.1-0.2-1.7-0.2h-6.4v8
			C190.5,65.9,190.3,65.9,190.3,65.9z"></path> <path data-v-71ae69e4="" d="M217.7,54h3.4l9.9,27.1h-4.3l-2.1-6.1h-10.3l-2.2,6.1h-4.3L217.7,54z M223.3,71.4c-0.7-2-1.3-3.9-2-5.9
			c-0.6-1.9-1.3-3.9-1.9-5.9c-0.6,2-1.3,3.9-1.9,5.9c-0.7,1.9-1.3,3.9-2,5.8L223.3,71.4L223.3,71.4z"></path> <path data-v-71ae69e4="" d="M234.5,54.1h3.9l7.8,17.6l7.6-17.6h3.9v27h-4.1V64.2h-0.1l-5.7,13h-3.4l-5.7-13h-0.1v16.9h-4.1L234.5,54.1L234.5,54.1z"></path> <path data-v-71ae69e4="" d="M269.8,54h3.4l9.9,27.1h-4.3l-2.1-6.1h-10.3l-2.2,6.1h-4.3L269.8,54z M275.5,71.4c-0.7-2-1.3-3.9-2-5.9
			c-0.6-1.9-1.3-3.9-1.9-5.9c-0.6,2-1.3,3.9-1.9,5.9c-0.7,1.9-1.3,3.9-2,5.8L275.5,71.4L275.5,71.4z"></path></g> <g data-v-71ae69e4="" class="right"><rect data-v-71ae69e4="" fill="#fff" x="157.9" y="53.8" width="125.6" height="36.3"></rect> <path data-v-71ae69e4="" d="M168.7,54h3.4l9.9,27.1h-4.4l-2.1-6.1h-10.3l-2.2,6.1h-4.3L168.7,54z M174.3,71.4c-0.7-2-1.3-3.9-2-5.9
			c-0.6-1.9-1.3-3.9-1.9-5.9c-0.6,2-1.3,3.9-1.9,5.9c-0.7,1.9-1.3,3.9-2,5.8L174.3,71.4L174.3,71.4z"></path> <path data-v-71ae69e4="" d="M186.2,54.1h10.6c1.1,0,2.1,0.2,3.1,0.5c1,0.4,1.9,0.9,2.6,1.5c0.7,0.7,1.3,1.4,1.8,2.4c0.4,0.9,0.7,2,0.7,3.1
			c0,0.9-0.1,1.7-0.4,2.5c-0.2,0.8-0.6,1.5-1,2.1c-0.5,0.7-1,1.2-1.7,1.7s-1.4,0.9-2.2,1.2l6.3,12h-4.9l-5.6-11.5h-5.3v11.5h-4.1
			L186.2,54.1L186.2,54.1z M190.3,65.9h6.2c0.7,0,1.3-0.1,1.8-0.3c0.6-0.2,1-0.5,1.5-0.8c0.4-0.4,0.7-0.8,1-1.3
			c0.2-0.5,0.4-1.1,0.4-1.8s-0.1-1.2-0.3-1.7s-0.5-0.9-0.9-1.2s-0.9-0.6-1.4-0.7c-0.5-0.2-1.1-0.2-1.7-0.2h-6.4v8
			C190.5,65.9,190.3,65.9,190.3,65.9z"></path> <path data-v-71ae69e4="" d="M217.7,54h3.4l9.9,27.1h-4.3l-2.1-6.1h-10.3l-2.2,6.1h-4.3L217.7,54z M223.3,71.4c-0.7-2-1.3-3.9-2-5.9
			c-0.6-1.9-1.3-3.9-1.9-5.9c-0.6,2-1.3,3.9-1.9,5.9c-0.7,1.9-1.3,3.9-2,5.8L223.3,71.4L223.3,71.4z"></path> <path data-v-71ae69e4="" d="M234.5,54.1h3.9l7.8,17.6l7.6-17.6h3.9v27h-4.1V64.2h-0.1l-5.7,13h-3.4l-5.7-13h-0.1v16.9h-4.1L234.5,54.1L234.5,54.1z"></path> <path data-v-71ae69e4="" d="M269.8,54h3.4l9.9,27.1h-4.3l-2.1-6.1h-10.3l-2.2,6.1h-4.3L269.8,54z M275.5,71.4c-0.7-2-1.3-3.9-2-5.9
			c-0.6-1.9-1.3-3.9-1.9-5.9c-0.6,2-1.3,3.9-1.9,5.9c-0.7,1.9-1.3,3.9-2,5.8L275.5,71.4L275.5,71.4z"></path></g></g> <g data-v-71ae69e4="" id="cevre" class="animated-clip show"><g data-v-71ae69e4="" class="left"><rect data-v-71ae69e4="" fill="#fff" x="157.9" y="53.8" width="125.6" height="36.3"></rect> <path data-v-71ae69e4="" d="M177.8,73.9c-0.2,1.2-0.6,2.2-1.2,3.2c-0.5,0.9-1.2,1.8-2,2.4c-0.8,0.7-1.7,1.2-2.7,1.6c-1,0.4-2.1,0.6-3.3,0.6l-1.5,2.1
			c0,0,0.1,0,0.2,0c0.1,0,0.2,0,0.3,0s0.2,0,0.3-0.1c0.1,0,0.2,0,0.3,0c0.4,0,0.9,0.1,1.3,0.2c0.4,0.1,0.7,0.3,1,0.5
			s0.5,0.5,0.7,0.9c0.2,0.4,0.3,0.8,0.3,1.2c0,0.6-0.1,1.2-0.4,1.6c-0.3,0.5-0.6,0.8-1,1.1c-0.4,0.3-0.9,0.5-1.5,0.6
			c-0.5,0.1-1.1,0.2-1.7,0.2c-0.6,0-1.3-0.1-1.9-0.3c-0.6-0.2-1.2-0.4-1.8-0.6l0.6-1.6c0.4,0.2,0.8,0.3,1.3,0.4
			c0.4,0.1,0.9,0.2,1.3,0.2c0.3,0,0.5,0,0.8-0.1c0.3-0.1,0.5-0.1,0.7-0.3c0.2-0.1,0.4-0.3,0.5-0.5s0.2-0.5,0.2-0.8s-0.1-0.5-0.2-0.7
			c-0.1-0.2-0.3-0.3-0.5-0.4c-0.2-0.1-0.4-0.2-0.6-0.2c-0.2,0-0.5-0.1-0.7-0.1s-0.5,0-0.7,0.1c-0.2,0.1-0.4,0.2-0.6,0.3l-0.9-0.7
			l2.4-3.3c-0.7-0.1-1.3-0.2-2-0.5c-0.6-0.2-1.3-0.5-1.8-0.9c-1.2-0.8-2-1.7-2.6-2.6c-0.6-0.9-1-1.8-1.3-2.8c-0.2-1-0.4-2.1-0.4-3.2
			c0-1.1,0-2.3,0-3.6c0-1.3,0-2.5,0-3.6c0-1.1,0.1-2.2,0.4-3.2c0.2-1,0.7-1.9,1.3-2.8s1.5-1.8,2.6-2.6c0.8-0.6,1.6-1,2.6-1.2
			c0.9-0.2,1.9-0.4,2.8-0.4c1.2,0,2.3,0.2,3.4,0.6c1.1,0.4,2,0.9,2.8,1.7c0.8,0.7,1.5,1.5,2.1,2.5s1,2.1,1.2,3.2h-4.4
			c-0.2-0.6-0.4-1.1-0.8-1.6c-0.3-0.5-0.7-0.9-1.2-1.2s-0.9-0.6-1.5-0.8c-0.5-0.2-1.1-0.3-1.7-0.3c-0.9,0-1.7,0.1-2.4,0.4
			c-0.6,0.3-1.2,0.7-1.6,1.2c-0.4,0.5-0.7,1.1-0.9,1.7c-0.2,0.7-0.4,1.3-0.5,2s-0.2,1.4-0.2,2.2c0,0.7,0,1.4,0,2.1s0,1.4,0,2.1
			s0.1,1.5,0.2,2.2c0.1,0.7,0.2,1.4,0.5,2c0.2,0.6,0.5,1.2,0.9,1.7s0.9,0.9,1.6,1.2c0.6,0.3,1.4,0.4,2.4,0.4c0.6,0,1.2-0.1,1.7-0.3
			c0.5-0.2,1-0.4,1.4-0.8c0.4-0.3,0.8-0.7,1.1-1.2s0.6-0.9,0.9-1.5h4.4L177.8,73.9L177.8,73.9z"></path> <path data-v-71ae69e4="" d="M184.8,54h17.3v3.9h-13.2v7.7h11.2v3.7h-11.2v7.9h13.2v3.9h-17.3V54z"></path> <path data-v-71ae69e4="" d="M208.7,54.1h4.3l6.2,20.6h0.1l6.2-20.6h4.3l-8.9,27h-3.2L208.7,54.1z"></path> <path data-v-71ae69e4="" d="M238.4,54H249c1.1,0,2.1,0.2,3.1,0.5c1,0.4,1.9,0.9,2.6,1.5c0.7,0.7,1.3,1.4,1.8,2.4c0.4,0.9,0.7,2,0.7,3.1
			c0,0.9-0.1,1.7-0.4,2.5c-0.2,0.8-0.6,1.5-1,2.1c-0.5,0.7-1,1.2-1.7,1.7s-1.4,0.9-2.2,1.2l6.3,12h-4.9l-5.6-11.5h-5.3v11.6h-4.1
			L238.4,54L238.4,54z M242.5,65.9h6.2c0.7,0,1.3-0.1,1.8-0.3c0.6-0.2,1-0.5,1.5-0.8c0.4-0.4,0.7-0.8,1-1.3c0.2-0.5,0.4-1.1,0.4-1.8
			s-0.1-1.2-0.3-1.7s-0.5-0.9-0.9-1.2s-0.9-0.6-1.4-0.7c-0.5-0.2-1.1-0.2-1.7-0.2h-6.4v8L242.5,65.9L242.5,65.9z"></path> <path data-v-71ae69e4="" d="M265.8,54h17.3v3.9h-13.2v7.7h11.2v3.7h-11.2v7.9h13.2v3.9h-17.3V54L265.8,54z"></path></g> <g data-v-71ae69e4="" class="right"><rect data-v-71ae69e4="" fill="#fff" x="157.9" y="53.8" width="125.6" height="36.3"></rect> <path data-v-71ae69e4="" d="M177.8,73.9c-0.2,1.2-0.6,2.2-1.2,3.2c-0.5,0.9-1.2,1.8-2,2.4c-0.8,0.7-1.7,1.2-2.7,1.6c-1,0.4-2.1,0.6-3.3,0.6l-1.5,2.1
			c0,0,0.1,0,0.2,0c0.1,0,0.2,0,0.3,0s0.2,0,0.3-0.1c0.1,0,0.2,0,0.3,0c0.4,0,0.9,0.1,1.3,0.2c0.4,0.1,0.7,0.3,1,0.5
			s0.5,0.5,0.7,0.9c0.2,0.4,0.3,0.8,0.3,1.2c0,0.6-0.1,1.2-0.4,1.6c-0.3,0.5-0.6,0.8-1,1.1c-0.4,0.3-0.9,0.5-1.5,0.6
			c-0.5,0.1-1.1,0.2-1.7,0.2c-0.6,0-1.3-0.1-1.9-0.3c-0.6-0.2-1.2-0.4-1.8-0.6l0.6-1.6c0.4,0.2,0.8,0.3,1.3,0.4
			c0.4,0.1,0.9,0.2,1.3,0.2c0.3,0,0.5,0,0.8-0.1c0.3-0.1,0.5-0.1,0.7-0.3c0.2-0.1,0.4-0.3,0.5-0.5s0.2-0.5,0.2-0.8s-0.1-0.5-0.2-0.7
			c-0.1-0.2-0.3-0.3-0.5-0.4c-0.2-0.1-0.4-0.2-0.6-0.2c-0.2,0-0.5-0.1-0.7-0.1s-0.5,0-0.7,0.1c-0.2,0.1-0.4,0.2-0.6,0.3l-0.9-0.7
			l2.4-3.3c-0.7-0.1-1.3-0.2-2-0.5c-0.6-0.2-1.3-0.5-1.8-0.9c-1.2-0.8-2-1.7-2.6-2.6c-0.6-0.9-1-1.8-1.3-2.8c-0.2-1-0.4-2.1-0.4-3.2
			c0-1.1,0-2.3,0-3.6c0-1.3,0-2.5,0-3.6c0-1.1,0.1-2.2,0.4-3.2c0.2-1,0.7-1.9,1.3-2.8s1.5-1.8,2.6-2.6c0.8-0.6,1.6-1,2.6-1.2
			c0.9-0.2,1.9-0.4,2.8-0.4c1.2,0,2.3,0.2,3.4,0.6c1.1,0.4,2,0.9,2.8,1.7c0.8,0.7,1.5,1.5,2.1,2.5s1,2.1,1.2,3.2h-4.4
			c-0.2-0.6-0.4-1.1-0.8-1.6c-0.3-0.5-0.7-0.9-1.2-1.2s-0.9-0.6-1.5-0.8c-0.5-0.2-1.1-0.3-1.7-0.3c-0.9,0-1.7,0.1-2.4,0.4
			c-0.6,0.3-1.2,0.7-1.6,1.2c-0.4,0.5-0.7,1.1-0.9,1.7c-0.2,0.7-0.4,1.3-0.5,2s-0.2,1.4-0.2,2.2c0,0.7,0,1.4,0,2.1s0,1.4,0,2.1
			s0.1,1.5,0.2,2.2c0.1,0.7,0.2,1.4,0.5,2c0.2,0.6,0.5,1.2,0.9,1.7s0.9,0.9,1.6,1.2c0.6,0.3,1.4,0.4,2.4,0.4c0.6,0,1.2-0.1,1.7-0.3
			c0.5-0.2,1-0.4,1.4-0.8c0.4-0.3,0.8-0.7,1.1-1.2s0.6-0.9,0.9-1.5h4.4L177.8,73.9L177.8,73.9z"></path> <path data-v-71ae69e4="" d="M184.8,54h17.3v3.9h-13.2v7.7h11.2v3.7h-11.2v7.9h13.2v3.9h-17.3V54z"></path> <path data-v-71ae69e4="" d="M208.7,54.1h4.3l6.2,20.6h0.1l6.2-20.6h4.3l-8.9,27h-3.2L208.7,54.1z"></path> <path data-v-71ae69e4="" d="M238.4,54H249c1.1,0,2.1,0.2,3.1,0.5c1,0.4,1.9,0.9,2.6,1.5c0.7,0.7,1.3,1.4,1.8,2.4c0.4,0.9,0.7,2,0.7,3.1
			c0,0.9-0.1,1.7-0.4,2.5c-0.2,0.8-0.6,1.5-1,2.1c-0.5,0.7-1,1.2-1.7,1.7s-1.4,0.9-2.2,1.2l6.3,12h-4.9l-5.6-11.5h-5.3v11.6h-4.1
			L238.4,54L238.4,54z M242.5,65.9h6.2c0.7,0,1.3-0.1,1.8-0.3c0.6-0.2,1-0.5,1.5-0.8c0.4-0.4,0.7-0.8,1-1.3c0.2-0.5,0.4-1.1,0.4-1.8
			s-0.1-1.2-0.3-1.7s-0.5-0.9-0.9-1.2s-0.9-0.6-1.4-0.7c-0.5-0.2-1.1-0.2-1.7-0.2h-6.4v8L242.5,65.9L242.5,65.9z"></path> <path data-v-71ae69e4="" d="M265.8,54h17.3v3.9h-13.2v7.7h11.2v3.7h-11.2v7.9h13.2v3.9h-17.3V54L265.8,54z"></path></g></g> <g data-v-71ae69e4="" id="proje" class="animated-clip"><g data-v-71ae69e4="" class="left"><rect data-v-71ae69e4="" fill="#fff" x="157.9" y="53.8" width="125.6" height="36.3"></rect> <path data-v-71ae69e4="" d="M175.7,68.1c-1.7,1.6-4,2.5-6.3,2.4h-6.2v10.6h-4.1V54h10.3c2.3-0.1,4.6,0.7,6.3,2.3c1.6,1.6,2.4,3.7,2.4,5.9
        C178.2,64.5,177.3,66.6,175.7,68.1 M169.2,57.7h-6v9h6c3.2,0,4.8-1.5,4.8-4.5C174,59.2,172.4,57.7,169.2,57.7L169.2,57.7z"></path> <path data-v-71ae69e4="" d="M201.8,81.1l-5.7-11.4H191v11.4h-4.1V54h10.5c2.3-0.1,4.5,0.7,6.1,2.3c1.5,1.5,2.4,3.5,2.3,5.7c0,1.7-0.5,3.4-1.6,4.7
        c-1,1.2-2.3,2.1-3.8,2.5l6.2,12L201.8,81.1z M197.1,57.7H191v8.5h6.1c3.1,0,4.6-1.4,4.6-4.2C201.7,59.2,200.1,57.7,197.1,57.7z"></path> <path data-v-71ae69e4="" d="M234.1,69.4c0,0.7,0,1.2,0,1.7c0,1-0.1,1.9-0.3,2.9c-0.3,1.7-1.1,3.3-2.3,4.5c-4,3.9-10.3,3.9-14.3,0
        c-1.2-1.2-2-2.8-2.3-4.5c-0.2-0.9-0.3-1.9-0.3-2.9v-1.7v-3.7V64c0-1,0.1-1.9,0.3-2.8c0.3-1.7,1.1-3.3,2.3-4.5
        c4-3.9,10.3-3.9,14.3,0c1.2,1.2,2,2.8,2.3,4.5c0.2,0.9,0.3,1.9,0.3,2.8c0,0.5,0,1,0,1.7L234.1,69.4z M229.7,61.8
        c-0.6-3-3.6-4.9-6.5-4.2c-1.1,0.2-2,0.8-2.8,1.5c-0.7,0.8-1.1,1.7-1.3,2.7c-0.3,1.9-0.4,3.8-0.3,5.7c-0.1,1.9,0,3.8,0.3,5.7
        c0.6,3,3.6,4.9,6.5,4.2c1.1-0.2,2-0.8,2.8-1.5c0.7-0.8,1.1-1.7,1.3-2.7c0.3-1.9,0.4-3.8,0.3-5.7C230,65.6,229.9,63.7,229.7,61.8z"></path> <path data-v-71ae69e4="" d="M255.3,72.5c0.1,2.4-0.9,4.8-2.6,6.5c-1.8,1.6-4,2.4-6.4,2.3c-2.5,0.1-4.8-0.9-6.6-2.6l2.7-2.7c0.4,0.5,1,0.9,1.5,1.2
        c0.7,0.3,1.5,0.5,2.3,0.4c3.3,0,4.9-1.8,4.9-5.4V54h4.1V72.5z"></path> <polygon data-v-71ae69e4="" points="283.1,54 283.1,57.7 269.9,57.7 269.9,65.6 281.2,65.6 281.2,69.3 269.9,69.3 269.9,77.4 283.1,77.4 283.1,81.1 
        265.8,81.1 265.8,54 		"></polygon></g> <g data-v-71ae69e4="" class="right"><rect data-v-71ae69e4="" fill="#fff" x="157.9" y="53.8" width="125.6" height="36.3"></rect> <path data-v-71ae69e4="" d="M175.7,68.1c-1.7,1.6-4,2.5-6.3,2.4h-6.2v10.6h-4.1V54h10.3c2.3-0.1,4.6,0.7,6.3,2.3c1.6,1.6,2.4,3.7,2.4,5.9
        C178.2,64.5,177.3,66.6,175.7,68.1 M169.2,57.7h-6v9h6c3.2,0,4.8-1.5,4.8-4.5C174,59.2,172.4,57.7,169.2,57.7L169.2,57.7z"></path> <path data-v-71ae69e4="" d="M201.8,81.1l-5.7-11.4H191v11.4h-4.1V54h10.5c2.3-0.1,4.5,0.7,6.1,2.3c1.5,1.5,2.4,3.5,2.3,5.7c0,1.7-0.5,3.4-1.6,4.7
        c-1,1.2-2.3,2.1-3.8,2.5l6.2,12L201.8,81.1z M197.1,57.7H191v8.5h6.1c3.1,0,4.6-1.4,4.6-4.2C201.7,59.2,200.1,57.7,197.1,57.7z"></path> <path data-v-71ae69e4="" d="M234.1,69.4c0,0.7,0,1.2,0,1.7c0,1-0.1,1.9-0.3,2.9c-0.3,1.7-1.1,3.3-2.3,4.5c-4,3.9-10.3,3.9-14.3,0
        c-1.2-1.2-2-2.8-2.3-4.5c-0.2-0.9-0.3-1.9-0.3-2.9v-1.7v-3.7V64c0-1,0.1-1.9,0.3-2.8c0.3-1.7,1.1-3.3,2.3-4.5
        c4-3.9,10.3-3.9,14.3,0c1.2,1.2,2,2.8,2.3,4.5c0.2,0.9,0.3,1.9,0.3,2.8c0,0.5,0,1,0,1.7L234.1,69.4z M229.7,61.8
        c-0.6-3-3.6-4.9-6.5-4.2c-1.1,0.2-2,0.8-2.8,1.5c-0.7,0.8-1.1,1.7-1.3,2.7c-0.3,1.9-0.4,3.8-0.3,5.7c-0.1,1.9,0,3.8,0.3,5.7
        c0.6,3,3.6,4.9,6.5,4.2c1.1-0.2,2-0.8,2.8-1.5c0.7-0.8,1.1-1.7,1.3-2.7c0.3-1.9,0.4-3.8,0.3-5.7C230,65.6,229.9,63.7,229.7,61.8z"></path> <path data-v-71ae69e4="" d="M255.3,72.5c0.1,2.4-0.9,4.8-2.6,6.5c-1.8,1.6-4,2.4-6.4,2.3c-2.5,0.1-4.8-0.9-6.6-2.6l2.7-2.7c0.4,0.5,1,0.9,1.5,1.2
        c0.7,0.3,1.5,0.5,2.3,0.4c3.3,0,4.9-1.8,4.9-5.4V54h4.1V72.5z"></path> <polygon data-v-71ae69e4="" points="283.1,54 283.1,57.7 269.9,57.7 269.9,65.6 281.2,65.6 281.2,69.3 269.9,69.3 269.9,77.4 283.1,77.4 283.1,81.1 
        265.8,81.1 265.8,54 		"></polygon></g></g> <g data-v-71ae69e4="" id="slogan" class="animated-clip show"><path data-v-71ae69e4="" d="M0.1,94.5c0-0.6,0-1.1,0-1.6H1l0,0.9h0c0.3-0.6,0.9-1.1,1.8-1.1c0.8,0,1.4,0.5,1.6,1.2h0c0.2-0.3,0.4-0.6,0.6-0.8 c0.3-0.3,0.7-0.4,1.3-0.4c0.8,0,1.9,0.5,1.9,2.5v3.4h-1v-3.3c0-1.1-0.4-1.8-1.3-1.8c-0.6,0-1.1,0.4-1.2,1c0,0.1-0.1,0.3-0.1,0.5 v3.6h-1v-3.5c0-0.9-0.4-1.6-1.2-1.6c-0.7,0-1.1,0.5-1.3,1.1c-0.1,0.2-0.1,0.3-0.1,0.5v3.5h-1V94.5z"></path> <path data-v-71ae69e4="" d="M11.6,96c0,1.4,0.9,2,2,2c0.8,0,1.2-0.1,1.6-0.3l0.2,0.8c-0.4,0.2-1,0.4-1.9,0.4c-1.8,0-2.9-1.2-2.9-2.9s1-3.1,2.7-3.1 c1.9,0,2.4,1.7,2.4,2.7c0,0.2,0,0.4,0,0.5H11.6z M14.7,95.2c0-0.7-0.3-1.7-1.5-1.7c-1.1,0-1.5,1-1.6,1.7H14.7z"></path> <path data-v-71ae69e4="" d="M18.4,96c0,1.4,0.9,2,2,2c0.8,0,1.2-0.1,1.6-0.3l0.2,0.8c-0.4,0.2-1,0.4-1.9,0.4c-1.8,0-2.9-1.2-2.9-2.9s1-3.1,2.7-3.1 c1.9,0,2.4,1.7,2.4,2.7c0,0.2,0,0.4,0,0.5H18.4z M21.5,95.2c0-0.7-0.3-1.7-1.5-1.7c-1.1,0-1.5,1-1.6,1.7H21.5z"></path> <path data-v-71ae69e4="" d="M25.9,91.2v1.7h1.5v0.8h-1.5v3.1c0,0.7,0.2,1.1,0.8,1.1c0.3,0,0.5,0,0.6-0.1l0,0.8c-0.2,0.1-0.5,0.1-0.9,0.1 c-0.5,0-0.9-0.2-1.1-0.4c-0.3-0.3-0.4-0.8-0.4-1.5v-3.2H24v-0.8h0.9v-1.4L25.9,91.2z"></path> <path data-v-71ae69e4="" d="M37.7,97.1c0,0.6,0,1.1,0,1.6h-0.9l-0.1-0.9h0c-0.3,0.5-0.9,1.1-1.9,1.1c-0.9,0-2-0.5-2-2.5v-3.4h1.1v3.2 c0,1.1,0.3,1.8,1.3,1.8c0.7,0,1.2-0.5,1.4-1c0.1-0.2,0.1-0.3,0.1-0.5v-3.6h1.1V97.1z"></path> <path data-v-71ae69e4="" d="M40.2,97.6c0.3,0.2,0.9,0.4,1.4,0.4c0.8,0,1.1-0.4,1.1-0.9c0-0.5-0.3-0.8-1.1-1.1c-1-0.4-1.5-0.9-1.5-1.6 c0-0.9,0.8-1.7,2-1.7c0.6,0,1.1,0.2,1.4,0.4l-0.3,0.8c-0.2-0.1-0.6-0.3-1.2-0.3c-0.6,0-1,0.4-1,0.8c0,0.5,0.3,0.7,1.1,1 c1,0.4,1.5,0.9,1.5,1.8c0,1-0.8,1.7-2.2,1.7c-0.6,0-1.2-0.2-1.6-0.4L40.2,97.6z"></path> <path data-v-71ae69e4="" d="M50.6,91.2v1.7h1.5v0.8h-1.5v3.1c0,0.7,0.2,1.1,0.8,1.1c0.3,0,0.5,0,0.6-0.1l0,0.8c-0.2,0.1-0.5,0.1-0.9,0.1 c-0.5,0-0.9-0.2-1.1-0.4c-0.3-0.3-0.4-0.8-0.4-1.5v-3.2h-0.9v-0.8h0.9v-1.4L50.6,91.2z"></path> <path data-v-71ae69e4="" d="M59.3,95.8c0,2.1-1.5,3.1-2.9,3.1c-1.6,0-2.8-1.2-2.8-3c0-1.9,1.3-3.1,2.9-3.1C58.2,92.8,59.3,94,59.3,95.8z M54.7,95.8 c0,1.3,0.7,2.2,1.8,2.2c1,0,1.8-0.9,1.8-2.3c0-1-0.5-2.2-1.7-2.2C55.2,93.6,54.7,94.7,54.7,95.8z"></path> <path data-v-71ae69e4="" d="M65.4,96c0,1.4,0.9,2,2,2c0.8,0,1.2-0.1,1.6-0.3l0.2,0.8c-0.4,0.2-1,0.4-1.9,0.4c-1.8,0-2.9-1.2-2.9-2.9s1-3.1,2.7-3.1 c1.9,0,2.4,1.7,2.4,2.7c0,0.2,0,0.4,0,0.5H65.4z M68.5,95.2c0-0.7-0.3-1.7-1.5-1.7c-1.1,0-1.5,1-1.6,1.7H68.5z"></path> <path data-v-71ae69e4="" d="M72.2,92.9l0.8,1.2c0.2,0.3,0.4,0.6,0.6,0.9h0c0.2-0.3,0.4-0.6,0.6-1l0.8-1.2h1.1l-2,2.8l2,3H75l-0.9-1.3 c-0.2-0.3-0.4-0.7-0.6-1h0c-0.2,0.3-0.4,0.7-0.6,1L72,98.7h-1.2l2.1-3l-2-2.8H72.2z"></path> <path data-v-71ae69e4="" d="M78.1,94.8c0-0.7,0-1.3,0-1.9H79l0,1h0c0.4-0.7,1.1-1.1,2.1-1.1c1.4,0,2.5,1.2,2.5,3c0,2.1-1.3,3.1-2.6,3.1
		c-0.8,0-1.4-0.3-1.8-0.9h0v3.2h-1V94.8z M79.1,96.3c0,0.2,0,0.3,0,0.4c0.2,0.7,0.8,1.2,1.6,1.2c1.1,0,1.8-0.9,1.8-2.2 c0-1.2-0.6-2.2-1.7-2.2c-0.7,0-1.4,0.5-1.6,1.3c0,0.1-0.1,0.3-0.1,0.4V96.3z"></path> <path data-v-71ae69e4="" d="M85.7,90.2h1.1v8.5h-1.1V90.2z"></path> <path data-v-71ae69e4="" d="M94.7,95.8c0,2.1-1.5,3.1-2.9,3.1c-1.6,0-2.8-1.2-2.8-3c0-1.9,1.3-3.1,2.9-3.1C93.5,92.8,94.7,94,94.7,95.8z M90,95.8 c0,1.3,0.7,2.2,1.8,2.2c1,0,1.8-0.9,1.8-2.3c0-1-0.5-2.2-1.7-2.2C90.6,93.6,90,94.7,90,95.8z"></path> <path data-v-71ae69e4="" d="M96.8,94.7c0-0.7,0-1.3,0-1.8h0.9l0,1.1h0c0.3-0.8,0.9-1.3,1.6-1.3c0.1,0,0.2,0,0.3,0v1c-0.1,0-0.2,0-0.4,0
		c-0.7,0-1.3,0.6-1.4,1.4c0,0.1,0,0.3,0,0.5v3.1h-1V94.7z"></path> <path data-v-71ae69e4="" d="M102.1,96c0,1.4,0.9,2,2,2c0.8,0,1.2-0.1,1.6-0.3l0.2,0.8c-0.4,0.2-1,0.4-1.9,0.4c-1.8,0-2.9-1.2-2.9-2.9s1-3.1,2.7-3.1 c1.9,0,2.4,1.7,2.4,2.7c0,0.2,0,0.4,0,0.5H102.1z M105.2,95.2c0-0.7-0.3-1.7-1.5-1.7c-1.1,0-1.5,1-1.6,1.7H105.2z"></path> <path data-v-71ae69e4="" d="M112.9,91.3c0,0.4-0.3,0.6-0.7,0.6c-0.4,0-0.6-0.3-0.6-0.6c0-0.4,0.3-0.7,0.7-0.7C112.6,90.6,112.9,90.9,112.9,91.3z M111.7,98.7v-5.8h1.1v5.8H111.7z"></path> <path data-v-71ae69e4="" d="M116.6,91.2v1.7h1.5v0.8h-1.5v3.1c0,0.7,0.2,1.1,0.8,1.1c0.3,0,0.5,0,0.6-0.1l0,0.8c-0.2,0.1-0.5,0.1-0.9,0.1 c-0.5,0-0.9-0.2-1.1-0.4c-0.3-0.3-0.4-0.8-0.4-1.5v-3.2h-0.9v-0.8h0.9v-1.4L116.6,91.2z"></path> <path data-v-71ae69e4="" d="M119.5,100.2c0.3-0.7,0.6-2,0.7-2.9l1.2-0.1c-0.3,1-0.8,2.4-1.1,2.9L119.5,100.2z"></path> <path data-v-71ae69e4="" d="M128.1,91.2v1.7h1.5v0.8h-1.5v3.1c0,0.7,0.2,1.1,0.8,1.1c0.3,0,0.5,0,0.6-0.1l0,0.8c-0.2,0.1-0.5,0.1-0.9,0.1 c-0.5,0-0.9-0.2-1.1-0.4c-0.3-0.3-0.4-0.8-0.4-1.5v-3.2h-0.9v-0.8h0.9v-1.4L128.1,91.2z"></path> <path data-v-71ae69e4="" d="M136.8,95.8c0,2.1-1.5,3.1-2.9,3.1c-1.6,0-2.8-1.2-2.8-3c0-1.9,1.3-3.1,2.9-3.1C135.7,92.8,136.8,94,136.8,95.8z M132.2,95.8c0,1.3,0.7,2.2,1.8,2.2c1,0,1.8-0.9,1.8-2.3c0-1-0.5-2.2-1.7-2.2C132.8,93.6,132.2,94.7,132.2,95.8z"></path> <path data-v-71ae69e4="" d="M147.4,90.2v7c0,0.5,0,1.1,0,1.5h-0.9l0-1h0c-0.3,0.6-1,1.1-2,1.1c-1.4,0-2.5-1.2-2.5-3c0-1.9,1.2-3.1,2.6-3.1 c0.9,0,1.5,0.4,1.8,0.9h0v-3.5H147.4z M146.4,95.3c0-0.1,0-0.3,0-0.4c-0.2-0.7-0.7-1.2-1.5-1.2c-1.1,0-1.7,1-1.7,2.2 c0,1.2,0.6,2.1,1.7,2.1c0.7,0,1.4-0.5,1.5-1.3c0-0.1,0-0.3,0-0.5V95.3z"></path> <path data-v-71ae69e4="" d="M151.2,91.3c0,0.4-0.3,0.6-0.7,0.6c-0.4,0-0.6-0.3-0.6-0.6c0-0.4,0.3-0.7,0.7-0.7C150.9,90.6,151.2,90.9,151.2,91.3z M150,98.7v-5.8h1.1v5.8H150z"></path> <path data-v-71ae69e4="" d="M153.5,97.6c0.3,0.2,0.9,0.4,1.4,0.4c0.8,0,1.1-0.4,1.1-0.9c0-0.5-0.3-0.8-1.1-1.1c-1-0.4-1.5-0.9-1.5-1.6 c0-0.9,0.8-1.7,2-1.7c0.6,0,1.1,0.2,1.4,0.4l-0.3,0.8c-0.2-0.1-0.6-0.3-1.2-0.3c-0.6,0-1,0.4-1,0.8c0,0.5,0.3,0.7,1.1,1 c1,0.4,1.5,0.9,1.5,1.8c0,1-0.8,1.7-2.2,1.7c-0.6,0-1.2-0.2-1.6-0.4L153.5,97.6z"></path> <path data-v-71ae69e4="" d="M163.4,98.5c-0.3,0.1-0.9,0.3-1.7,0.3c-1.8,0-2.9-1.2-2.9-3c0-1.8,1.2-3.1,3.1-3.1c0.6,0,1.2,0.2,1.5,0.3l-0.2,0.8 c-0.3-0.1-0.6-0.3-1.2-0.3c-1.3,0-2.1,1-2.1,2.2c0,1.3,0.9,2.2,2,2.2c0.6,0,1-0.2,1.3-0.3L163.4,98.5z"></path> <path data-v-71ae69e4="" d="M170.6,95.8c0,2.1-1.5,3.1-2.9,3.1c-1.6,0-2.8-1.2-2.8-3c0-1.9,1.3-3.1,2.9-3.1C169.5,92.8,170.6,94,170.6,95.8z M166,95.8 c0,1.3,0.7,2.2,1.8,2.2c1,0,1.8-0.9,1.8-2.3c0-1-0.5-2.2-1.7-2.2C166.6,93.6,166,94.7,166,95.8z"></path> <path data-v-71ae69e4="" d="M173.1,92.9l1.1,3.3c0.2,0.5,0.3,1,0.5,1.5h0c0.1-0.5,0.3-1,0.5-1.5l1.1-3.3h1.1l-2.3,5.8h-1l-2.2-5.8H173.1z"></path> <path data-v-71ae69e4="" d="M179.8,96c0,1.4,0.9,2,2,2c0.8,0,1.2-0.1,1.6-0.3l0.2,0.8c-0.4,0.2-1,0.4-1.9,0.4c-1.8,0-2.9-1.2-2.9-2.9s1-3.1,2.7-3.1 c1.9,0,2.4,1.7,2.4,2.7c0,0.2,0,0.4,0,0.5H179.8z M182.9,95.2c0-0.7-0.3-1.7-1.5-1.7c-1.1,0-1.5,1-1.6,1.7H182.9z"></path> <path data-v-71ae69e4="" d="M186.1,94.7c0-0.7,0-1.3,0-1.8h0.9l0,1.1h0c0.3-0.8,0.9-1.3,1.6-1.3c0.1,0,0.2,0,0.3,0v1c-0.1,0-0.2,0-0.4,0 c-0.7,0-1.3,0.6-1.4,1.4c0,0.1,0,0.3,0,0.5v3.1h-1V94.7z"></path> <path data-v-71ae69e4="" d="M195.4,91.3c0,0.4-0.3,0.6-0.7,0.6c-0.4,0-0.6-0.3-0.6-0.6c0-0.4,0.3-0.7,0.7-0.7C195.1,90.6,195.4,90.9,195.4,91.3z M194.2,98.7v-5.8h1.1v5.8H194.2z"></path> <path data-v-71ae69e4="" d="M199.1,91.2v1.7h1.5v0.8h-1.5v3.1c0,0.7,0.2,1.1,0.8,1.1c0.3,0,0.5,0,0.6-0.1l0,0.8c-0.2,0.1-0.5,0.1-0.9,0.1 c-0.5,0-0.9-0.2-1.1-0.4c-0.3-0.3-0.4-0.8-0.4-1.5v-3.2h-0.9v-0.8h0.9v-1.4L199.1,91.2z"></path> <path data-v-71ae69e4="" d="M209.3,98.7l-0.1-0.7h0c-0.3,0.5-0.9,0.9-1.8,0.9c-1.2,0-1.8-0.8-1.8-1.7c0-1.4,1.2-2.2,3.5-2.2v-0.1 c0-0.5-0.1-1.3-1.3-1.3c-0.5,0-1.1,0.2-1.5,0.4l-0.2-0.7c0.5-0.3,1.2-0.5,1.9-0.5c1.8,0,2.2,1.2,2.2,2.4v2.2c0,0.5,0,1,0.1,1.4 H209.3z M209.1,95.7c-1.2,0-2.5,0.2-2.5,1.3c0,0.7,0.5,1,1,1c0.8,0,1.2-0.5,1.4-1c0-0.1,0.1-0.2,0.1-0.3V95.7z"></path> <path data-v-71ae69e4="" d="M212.7,94.5c0-0.6,0-1.1,0-1.6h0.9l0.1,1h0c0.3-0.6,1-1.1,1.9-1.1c0.8,0,2.1,0.5,2.1,2.5v3.5h-1.1v-3.3 c0-0.9-0.3-1.7-1.3-1.7c-0.7,0-1.2,0.5-1.4,1.1c0,0.1-0.1,0.3-0.1,0.5v3.5h-1.1V94.5z"></path> <path data-v-71ae69e4="" d="M225.2,90.2v7c0,0.5,0,1.1,0,1.5h-0.9l0-1h0c-0.3,0.6-1,1.1-2,1.1c-1.4,0-2.5-1.2-2.5-3c0-1.9,1.2-3.1,2.6-3.1 c0.9,0,1.5,0.4,1.8,0.9h0v-3.5H225.2z M224.1,95.3c0-0.1,0-0.3,0-0.4c-0.2-0.7-0.7-1.2-1.5-1.2c-1.1,0-1.7,1-1.7,2.2 c0,1.2,0.6,2.1,1.7,2.1c0.7,0,1.4-0.5,1.5-1.3c0-0.1,0-0.3,0-0.5V95.3z"></path> <path data-v-71ae69e4="" d="M231.2,94.8c0-0.7,0-1.3,0-1.9h0.9l0,1h0c0.4-0.7,1.1-1.1,2.1-1.1c1.4,0,2.5,1.2,2.5,3c0,2.1-1.3,3.1-2.6,3.1 c-0.8,0-1.4-0.3-1.8-0.9h0v3.2h-1V94.8z M232.2,96.3c0,0.2,0,0.3,0,0.4c0.2,0.7,0.8,1.2,1.6,1.2c1.1,0,1.8-0.9,1.8-2.2 c0-1.2-0.6-2.2-1.7-2.2c-0.7,0-1.4,0.5-1.6,1.3c0,0.1-0.1,0.3-0.1,0.4V96.3z"></path> <path data-v-71ae69e4="" d="M238.8,94.7c0-0.7,0-1.3,0-1.8h0.9l0,1.1h0c0.3-0.8,0.9-1.3,1.6-1.3c0.1,0,0.2,0,0.3,0v1c-0.1,0-0.2,0-0.4,0 c-0.7,0-1.3,0.6-1.4,1.4c0,0.1,0,0.3,0,0.5v3.1h-1V94.7z"></path> <path data-v-71ae69e4="" d="M248.7,95.8c0,2.1-1.5,3.1-2.9,3.1c-1.6,0-2.8-1.2-2.8-3c0-1.9,1.3-3.1,2.9-3.1C247.6,92.8,248.7,94,248.7,95.8z M244.1,95.8c0,1.3,0.7,2.2,1.8,2.2c1,0,1.8-0.9,1.8-2.3c0-1-0.5-2.2-1.7-2.2C244.7,93.6,244.1,94.7,244.1,95.8z"></path> <path data-v-71ae69e4="" d="M249.5,100.4c0.5,0,0.9-0.2,1.2-0.4c0.3-0.3,0.4-0.8,0.4-2.2v-4.9h1.1v5.3c0,1.1-0.2,1.9-0.7,2.4c-0.5,0.5-1.2,0.7-1.8,0.7 L249.5,100.4z M252.2,91.3c0,0.3-0.2,0.6-0.7,0.6c-0.4,0-0.6-0.3-0.6-0.6c0-0.4,0.3-0.7,0.7-0.7C252,90.6,252.2,90.9,252.2,91.3z"></path> <path data-v-71ae69e4="" d="M255.3,96c0,1.4,0.9,2,2,2c0.8,0,1.2-0.1,1.6-0.3l0.2,0.8c-0.4,0.2-1,0.4-1.9,0.4c-1.8,0-2.9-1.2-2.9-2.9s1-3.1,2.7-3.1 c1.9,0,2.4,1.7,2.4,2.7c0,0.2,0,0.4,0,0.5H255.3z M258.4,95.2c0-0.7-0.3-1.7-1.5-1.7c-1.1,0-1.5,1-1.6,1.7H258.4z"></path> <path data-v-71ae69e4="" d="M265.7,98.5c-0.3,0.1-0.9,0.3-1.7,0.3c-1.8,0-2.9-1.2-2.9-3c0-1.8,1.2-3.1,3.1-3.1c0.6,0,1.2,0.2,1.5,0.3l-0.2,0.8 c-0.3-0.1-0.6-0.3-1.2-0.3c-1.3,0-2.1,1-2.1,2.2c0,1.3,0.9,2.2,2,2.2c0.6,0,1-0.2,1.3-0.3L265.7,98.5z"></path> <path data-v-71ae69e4="" d="M269.2,91.2v1.7h1.5v0.8h-1.5v3.1c0,0.7,0.2,1.1,0.8,1.1c0.3,0,0.5,0,0.6-0.1l0,0.8c-0.2,0.1-0.5,0.1-0.9,0.1 c-0.5,0-0.9-0.2-1.1-0.4c-0.3-0.3-0.4-0.8-0.4-1.5v-3.2h-0.9v-0.8h0.9v-1.4L269.2,91.2z"></path> <path data-v-71ae69e4="" d="M277.3,91.3c0,0.4-0.3,0.6-0.7,0.6c-0.4,0-0.6-0.3-0.6-0.6c0-0.4,0.3-0.7,0.7-0.7C277,90.6,277.3,90.9,277.3,91.3z M276.1,98.7v-5.8h1.1v5.8H276.1z"></path> <path data-v-71ae69e4="" d="M281,91.2v1.7h1.5v0.8H281v3.1c0,0.7,0.2,1.1,0.8,1.1c0.3,0,0.5,0,0.6-0.1l0,0.8c-0.2,0.1-0.5,0.1-0.9,0.1 c-0.5,0-0.9-0.2-1.1-0.4c-0.3-0.3-0.4-0.8-0.4-1.5v-3.2h-0.9v-0.8h0.9v-1.4L281,91.2z"></path></g></svg>